G04 #@! TF.GenerationSoftware,KiCad,Pcbnew,5.1.4-3.fc30*
G04 #@! TF.CreationDate,2019-11-13T22:00:14+01:00*
G04 #@! TF.ProjectId,dpf_ressure_dumper,6470665f-7265-4737-9375-72655f64756d,rev?*
G04 #@! TF.SameCoordinates,Original*
G04 #@! TF.FileFunction,Soldermask,Bot*
G04 #@! TF.FilePolarity,Negative*
%FSLAX46Y46*%
G04 Gerber Fmt 4.6, Leading zero omitted, Abs format (unit mm)*
G04 Created by KiCad (PCBNEW 5.1.4-3.fc30) date 2019-11-13 22:00:14*
%MOMM*%
%LPD*%
G04 APERTURE LIST*
%ADD10C,0.100000*%
G04 APERTURE END LIST*
D10*
G36*
X173125994Y-146466423D02*
G01*
X173399407Y-146520808D01*
X173699688Y-146645189D01*
X173969934Y-146825761D01*
X174199759Y-147055586D01*
X174380331Y-147325832D01*
X174504712Y-147626113D01*
X174568120Y-147944889D01*
X174568120Y-148269911D01*
X174504712Y-148588687D01*
X174380331Y-148888968D01*
X174199759Y-149159214D01*
X173969934Y-149389039D01*
X173699688Y-149569611D01*
X173399407Y-149693992D01*
X173125994Y-149748377D01*
X173080632Y-149757400D01*
X172755608Y-149757400D01*
X172710246Y-149748377D01*
X172436833Y-149693992D01*
X172136552Y-149569611D01*
X171866306Y-149389039D01*
X171636481Y-149159214D01*
X171455909Y-148888968D01*
X171331528Y-148588687D01*
X171268120Y-148269911D01*
X171268120Y-147944889D01*
X171331528Y-147626113D01*
X171455909Y-147325832D01*
X171636481Y-147055586D01*
X171866306Y-146825761D01*
X172136552Y-146645189D01*
X172436833Y-146520808D01*
X172710246Y-146466423D01*
X172755608Y-146457400D01*
X173080632Y-146457400D01*
X173125994Y-146466423D01*
X173125994Y-146466423D01*
G37*
G36*
X220187114Y-146466423D02*
G01*
X220460527Y-146520808D01*
X220760808Y-146645189D01*
X221031054Y-146825761D01*
X221260879Y-147055586D01*
X221441451Y-147325832D01*
X221565832Y-147626113D01*
X221629240Y-147944889D01*
X221629240Y-148269911D01*
X221565832Y-148588687D01*
X221441451Y-148888968D01*
X221260879Y-149159214D01*
X221031054Y-149389039D01*
X220760808Y-149569611D01*
X220460527Y-149693992D01*
X220187114Y-149748377D01*
X220141752Y-149757400D01*
X219816728Y-149757400D01*
X219771366Y-149748377D01*
X219497953Y-149693992D01*
X219197672Y-149569611D01*
X218927426Y-149389039D01*
X218697601Y-149159214D01*
X218517029Y-148888968D01*
X218392648Y-148588687D01*
X218329240Y-148269911D01*
X218329240Y-147944889D01*
X218392648Y-147626113D01*
X218517029Y-147325832D01*
X218697601Y-147055586D01*
X218927426Y-146825761D01*
X219197672Y-146645189D01*
X219497953Y-146520808D01*
X219771366Y-146466423D01*
X219816728Y-146457400D01*
X220141752Y-146457400D01*
X220187114Y-146466423D01*
X220187114Y-146466423D01*
G37*
G36*
X202082668Y-145793165D02*
G01*
X202121338Y-145804896D01*
X202156977Y-145823946D01*
X202188217Y-145849583D01*
X202213854Y-145880823D01*
X202232904Y-145916462D01*
X202244635Y-145955132D01*
X202249200Y-146001488D01*
X202249200Y-146652712D01*
X202244635Y-146699068D01*
X202232904Y-146737738D01*
X202213854Y-146773377D01*
X202188217Y-146804617D01*
X202156977Y-146830254D01*
X202121338Y-146849304D01*
X202082668Y-146861035D01*
X202036312Y-146865600D01*
X200960088Y-146865600D01*
X200913732Y-146861035D01*
X200875062Y-146849304D01*
X200839423Y-146830254D01*
X200808183Y-146804617D01*
X200782546Y-146773377D01*
X200763496Y-146737738D01*
X200751765Y-146699068D01*
X200747200Y-146652712D01*
X200747200Y-146001488D01*
X200751765Y-145955132D01*
X200763496Y-145916462D01*
X200782546Y-145880823D01*
X200808183Y-145849583D01*
X200839423Y-145823946D01*
X200875062Y-145804896D01*
X200913732Y-145793165D01*
X200960088Y-145788600D01*
X202036312Y-145788600D01*
X202082668Y-145793165D01*
X202082668Y-145793165D01*
G37*
G36*
X207670668Y-145793165D02*
G01*
X207709338Y-145804896D01*
X207744977Y-145823946D01*
X207776217Y-145849583D01*
X207801854Y-145880823D01*
X207820904Y-145916462D01*
X207832635Y-145955132D01*
X207837200Y-146001488D01*
X207837200Y-146652712D01*
X207832635Y-146699068D01*
X207820904Y-146737738D01*
X207801854Y-146773377D01*
X207776217Y-146804617D01*
X207744977Y-146830254D01*
X207709338Y-146849304D01*
X207670668Y-146861035D01*
X207624312Y-146865600D01*
X206548088Y-146865600D01*
X206501732Y-146861035D01*
X206463062Y-146849304D01*
X206427423Y-146830254D01*
X206396183Y-146804617D01*
X206370546Y-146773377D01*
X206351496Y-146737738D01*
X206339765Y-146699068D01*
X206335200Y-146652712D01*
X206335200Y-146001488D01*
X206339765Y-145955132D01*
X206351496Y-145916462D01*
X206370546Y-145880823D01*
X206396183Y-145849583D01*
X206427423Y-145823946D01*
X206463062Y-145804896D01*
X206501732Y-145793165D01*
X206548088Y-145788600D01*
X207624312Y-145788600D01*
X207670668Y-145793165D01*
X207670668Y-145793165D01*
G37*
G36*
X203793200Y-146790600D02*
G01*
X202791200Y-146790600D01*
X202791200Y-145888600D01*
X203793200Y-145888600D01*
X203793200Y-146790600D01*
X203793200Y-146790600D01*
G37*
G36*
X205793200Y-145840600D02*
G01*
X204791200Y-145840600D01*
X204791200Y-144938600D01*
X205793200Y-144938600D01*
X205793200Y-145840600D01*
X205793200Y-145840600D01*
G37*
G36*
X202082668Y-143918165D02*
G01*
X202121338Y-143929896D01*
X202156977Y-143948946D01*
X202188217Y-143974583D01*
X202213854Y-144005823D01*
X202232904Y-144041462D01*
X202244635Y-144080132D01*
X202249200Y-144126488D01*
X202249200Y-144777712D01*
X202244635Y-144824068D01*
X202232904Y-144862738D01*
X202213854Y-144898377D01*
X202188217Y-144929617D01*
X202156977Y-144955254D01*
X202121338Y-144974304D01*
X202082668Y-144986035D01*
X202036312Y-144990600D01*
X200960088Y-144990600D01*
X200913732Y-144986035D01*
X200875062Y-144974304D01*
X200839423Y-144955254D01*
X200808183Y-144929617D01*
X200782546Y-144898377D01*
X200763496Y-144862738D01*
X200751765Y-144824068D01*
X200747200Y-144777712D01*
X200747200Y-144126488D01*
X200751765Y-144080132D01*
X200763496Y-144041462D01*
X200782546Y-144005823D01*
X200808183Y-143974583D01*
X200839423Y-143948946D01*
X200875062Y-143929896D01*
X200913732Y-143918165D01*
X200960088Y-143913600D01*
X202036312Y-143913600D01*
X202082668Y-143918165D01*
X202082668Y-143918165D01*
G37*
G36*
X207670668Y-143918165D02*
G01*
X207709338Y-143929896D01*
X207744977Y-143948946D01*
X207776217Y-143974583D01*
X207801854Y-144005823D01*
X207820904Y-144041462D01*
X207832635Y-144080132D01*
X207837200Y-144126488D01*
X207837200Y-144777712D01*
X207832635Y-144824068D01*
X207820904Y-144862738D01*
X207801854Y-144898377D01*
X207776217Y-144929617D01*
X207744977Y-144955254D01*
X207709338Y-144974304D01*
X207670668Y-144986035D01*
X207624312Y-144990600D01*
X206548088Y-144990600D01*
X206501732Y-144986035D01*
X206463062Y-144974304D01*
X206427423Y-144955254D01*
X206396183Y-144929617D01*
X206370546Y-144898377D01*
X206351496Y-144862738D01*
X206339765Y-144824068D01*
X206335200Y-144777712D01*
X206335200Y-144126488D01*
X206339765Y-144080132D01*
X206351496Y-144041462D01*
X206370546Y-144005823D01*
X206396183Y-143974583D01*
X206427423Y-143948946D01*
X206463062Y-143929896D01*
X206501732Y-143918165D01*
X206548088Y-143913600D01*
X207624312Y-143913600D01*
X207670668Y-143918165D01*
X207670668Y-143918165D01*
G37*
G36*
X203793200Y-144890600D02*
G01*
X202791200Y-144890600D01*
X202791200Y-143988600D01*
X203793200Y-143988600D01*
X203793200Y-144890600D01*
X203793200Y-144890600D01*
G37*
G36*
X175888268Y-142560365D02*
G01*
X175926938Y-142572096D01*
X175962577Y-142591146D01*
X175993817Y-142616783D01*
X176019454Y-142648023D01*
X176038504Y-142683662D01*
X176050235Y-142722332D01*
X176054800Y-142768688D01*
X176054800Y-143844912D01*
X176050235Y-143891268D01*
X176038504Y-143929938D01*
X176019454Y-143965577D01*
X175993817Y-143996817D01*
X175962577Y-144022454D01*
X175926938Y-144041504D01*
X175888268Y-144053235D01*
X175841912Y-144057800D01*
X175190688Y-144057800D01*
X175144332Y-144053235D01*
X175105662Y-144041504D01*
X175070023Y-144022454D01*
X175038783Y-143996817D01*
X175013146Y-143965577D01*
X174994096Y-143929938D01*
X174982365Y-143891268D01*
X174977800Y-143844912D01*
X174977800Y-142768688D01*
X174982365Y-142722332D01*
X174994096Y-142683662D01*
X175013146Y-142648023D01*
X175038783Y-142616783D01*
X175070023Y-142591146D01*
X175105662Y-142572096D01*
X175144332Y-142560365D01*
X175190688Y-142555800D01*
X175841912Y-142555800D01*
X175888268Y-142560365D01*
X175888268Y-142560365D01*
G37*
G36*
X177763268Y-142560365D02*
G01*
X177801938Y-142572096D01*
X177837577Y-142591146D01*
X177868817Y-142616783D01*
X177894454Y-142648023D01*
X177913504Y-142683662D01*
X177925235Y-142722332D01*
X177929800Y-142768688D01*
X177929800Y-143844912D01*
X177925235Y-143891268D01*
X177913504Y-143929938D01*
X177894454Y-143965577D01*
X177868817Y-143996817D01*
X177837577Y-144022454D01*
X177801938Y-144041504D01*
X177763268Y-144053235D01*
X177716912Y-144057800D01*
X177065688Y-144057800D01*
X177019332Y-144053235D01*
X176980662Y-144041504D01*
X176945023Y-144022454D01*
X176913783Y-143996817D01*
X176888146Y-143965577D01*
X176869096Y-143929938D01*
X176857365Y-143891268D01*
X176852800Y-143844912D01*
X176852800Y-142768688D01*
X176857365Y-142722332D01*
X176869096Y-142683662D01*
X176888146Y-142648023D01*
X176913783Y-142616783D01*
X176945023Y-142591146D01*
X176980662Y-142572096D01*
X177019332Y-142560365D01*
X177065688Y-142555800D01*
X177716912Y-142555800D01*
X177763268Y-142560365D01*
X177763268Y-142560365D01*
G37*
G36*
X207670668Y-142237165D02*
G01*
X207709338Y-142248896D01*
X207744977Y-142267946D01*
X207776217Y-142293583D01*
X207801854Y-142324823D01*
X207820904Y-142360462D01*
X207832635Y-142399132D01*
X207837200Y-142445488D01*
X207837200Y-143096712D01*
X207832635Y-143143068D01*
X207820904Y-143181738D01*
X207801854Y-143217377D01*
X207776217Y-143248617D01*
X207744977Y-143274254D01*
X207709338Y-143293304D01*
X207670668Y-143305035D01*
X207624312Y-143309600D01*
X206548088Y-143309600D01*
X206501732Y-143305035D01*
X206463062Y-143293304D01*
X206427423Y-143274254D01*
X206396183Y-143248617D01*
X206370546Y-143217377D01*
X206351496Y-143181738D01*
X206339765Y-143143068D01*
X206335200Y-143096712D01*
X206335200Y-142445488D01*
X206339765Y-142399132D01*
X206351496Y-142360462D01*
X206370546Y-142324823D01*
X206396183Y-142293583D01*
X206427423Y-142267946D01*
X206463062Y-142248896D01*
X206501732Y-142237165D01*
X206548088Y-142232600D01*
X207624312Y-142232600D01*
X207670668Y-142237165D01*
X207670668Y-142237165D01*
G37*
G36*
X202082668Y-142237165D02*
G01*
X202121338Y-142248896D01*
X202156977Y-142267946D01*
X202188217Y-142293583D01*
X202213854Y-142324823D01*
X202232904Y-142360462D01*
X202244635Y-142399132D01*
X202249200Y-142445488D01*
X202249200Y-143096712D01*
X202244635Y-143143068D01*
X202232904Y-143181738D01*
X202213854Y-143217377D01*
X202188217Y-143248617D01*
X202156977Y-143274254D01*
X202121338Y-143293304D01*
X202082668Y-143305035D01*
X202036312Y-143309600D01*
X200960088Y-143309600D01*
X200913732Y-143305035D01*
X200875062Y-143293304D01*
X200839423Y-143274254D01*
X200808183Y-143248617D01*
X200782546Y-143217377D01*
X200763496Y-143181738D01*
X200751765Y-143143068D01*
X200747200Y-143096712D01*
X200747200Y-142445488D01*
X200751765Y-142399132D01*
X200763496Y-142360462D01*
X200782546Y-142324823D01*
X200808183Y-142293583D01*
X200839423Y-142267946D01*
X200875062Y-142248896D01*
X200913732Y-142237165D01*
X200960088Y-142232600D01*
X202036312Y-142232600D01*
X202082668Y-142237165D01*
X202082668Y-142237165D01*
G37*
G36*
X203793200Y-143234600D02*
G01*
X202791200Y-143234600D01*
X202791200Y-142332600D01*
X203793200Y-142332600D01*
X203793200Y-143234600D01*
X203793200Y-143234600D01*
G37*
G36*
X219793043Y-140935319D02*
G01*
X219859227Y-140941837D01*
X220029066Y-140993357D01*
X220185591Y-141077022D01*
X220221329Y-141106352D01*
X220322786Y-141189614D01*
X220387433Y-141268388D01*
X220435378Y-141326809D01*
X220519043Y-141483334D01*
X220570563Y-141653173D01*
X220587959Y-141829800D01*
X220570563Y-142006427D01*
X220519043Y-142176266D01*
X220435378Y-142332791D01*
X220412669Y-142360462D01*
X220322786Y-142469986D01*
X220221329Y-142553248D01*
X220185591Y-142582578D01*
X220029066Y-142666243D01*
X219859227Y-142717763D01*
X219816085Y-142722012D01*
X219726860Y-142730800D01*
X219388340Y-142730800D01*
X219299115Y-142722012D01*
X219255973Y-142717763D01*
X219086134Y-142666243D01*
X218929609Y-142582578D01*
X218893871Y-142553248D01*
X218792414Y-142469986D01*
X218702531Y-142360462D01*
X218679822Y-142332791D01*
X218596157Y-142176266D01*
X218544637Y-142006427D01*
X218527241Y-141829800D01*
X218544637Y-141653173D01*
X218596157Y-141483334D01*
X218679822Y-141326809D01*
X218727767Y-141268388D01*
X218792414Y-141189614D01*
X218893871Y-141106352D01*
X218929609Y-141077022D01*
X219086134Y-140993357D01*
X219255973Y-140941837D01*
X219322157Y-140935319D01*
X219388340Y-140928800D01*
X219726860Y-140928800D01*
X219793043Y-140935319D01*
X219793043Y-140935319D01*
G37*
G36*
X205793200Y-142284600D02*
G01*
X204791200Y-142284600D01*
X204791200Y-141382600D01*
X205793200Y-141382600D01*
X205793200Y-142284600D01*
X205793200Y-142284600D01*
G37*
G36*
X179551191Y-140968285D02*
G01*
X179585169Y-140978593D01*
X179616490Y-140995334D01*
X179643939Y-141017861D01*
X179666466Y-141045310D01*
X179683207Y-141076631D01*
X179693515Y-141110609D01*
X179697600Y-141152090D01*
X179697600Y-141753310D01*
X179693515Y-141794791D01*
X179683207Y-141828769D01*
X179666466Y-141860090D01*
X179643939Y-141887539D01*
X179616490Y-141910066D01*
X179585169Y-141926807D01*
X179551191Y-141937115D01*
X179509710Y-141941200D01*
X178833490Y-141941200D01*
X178792009Y-141937115D01*
X178758031Y-141926807D01*
X178726710Y-141910066D01*
X178699261Y-141887539D01*
X178676734Y-141860090D01*
X178659993Y-141828769D01*
X178649685Y-141794791D01*
X178645600Y-141753310D01*
X178645600Y-141152090D01*
X178649685Y-141110609D01*
X178659993Y-141076631D01*
X178676734Y-141045310D01*
X178699261Y-141017861D01*
X178726710Y-140995334D01*
X178758031Y-140978593D01*
X178792009Y-140968285D01*
X178833490Y-140964200D01*
X179509710Y-140964200D01*
X179551191Y-140968285D01*
X179551191Y-140968285D01*
G37*
G36*
X177950991Y-140968285D02*
G01*
X177984969Y-140978593D01*
X178016290Y-140995334D01*
X178043739Y-141017861D01*
X178066266Y-141045310D01*
X178083007Y-141076631D01*
X178093315Y-141110609D01*
X178097400Y-141152090D01*
X178097400Y-141753310D01*
X178093315Y-141794791D01*
X178083007Y-141828769D01*
X178066266Y-141860090D01*
X178043739Y-141887539D01*
X178016290Y-141910066D01*
X177984969Y-141926807D01*
X177950991Y-141937115D01*
X177909510Y-141941200D01*
X177233290Y-141941200D01*
X177191809Y-141937115D01*
X177157831Y-141926807D01*
X177126510Y-141910066D01*
X177099061Y-141887539D01*
X177076534Y-141860090D01*
X177059793Y-141828769D01*
X177049485Y-141794791D01*
X177045400Y-141753310D01*
X177045400Y-141152090D01*
X177049485Y-141110609D01*
X177059793Y-141076631D01*
X177076534Y-141045310D01*
X177099061Y-141017861D01*
X177126510Y-140995334D01*
X177157831Y-140978593D01*
X177191809Y-140968285D01*
X177233290Y-140964200D01*
X177909510Y-140964200D01*
X177950991Y-140968285D01*
X177950991Y-140968285D01*
G37*
G36*
X207670668Y-140362165D02*
G01*
X207709338Y-140373896D01*
X207744977Y-140392946D01*
X207776217Y-140418583D01*
X207801854Y-140449823D01*
X207820904Y-140485462D01*
X207832635Y-140524132D01*
X207837200Y-140570488D01*
X207837200Y-141221712D01*
X207832635Y-141268068D01*
X207820904Y-141306738D01*
X207801854Y-141342377D01*
X207776217Y-141373617D01*
X207744977Y-141399254D01*
X207709338Y-141418304D01*
X207670668Y-141430035D01*
X207624312Y-141434600D01*
X206548088Y-141434600D01*
X206501732Y-141430035D01*
X206463062Y-141418304D01*
X206427423Y-141399254D01*
X206396183Y-141373617D01*
X206370546Y-141342377D01*
X206351496Y-141306738D01*
X206339765Y-141268068D01*
X206335200Y-141221712D01*
X206335200Y-140570488D01*
X206339765Y-140524132D01*
X206351496Y-140485462D01*
X206370546Y-140449823D01*
X206396183Y-140418583D01*
X206427423Y-140392946D01*
X206463062Y-140373896D01*
X206501732Y-140362165D01*
X206548088Y-140357600D01*
X207624312Y-140357600D01*
X207670668Y-140362165D01*
X207670668Y-140362165D01*
G37*
G36*
X202082668Y-140362165D02*
G01*
X202121338Y-140373896D01*
X202156977Y-140392946D01*
X202188217Y-140418583D01*
X202213854Y-140449823D01*
X202232904Y-140485462D01*
X202244635Y-140524132D01*
X202249200Y-140570488D01*
X202249200Y-141221712D01*
X202244635Y-141268068D01*
X202232904Y-141306738D01*
X202213854Y-141342377D01*
X202188217Y-141373617D01*
X202156977Y-141399254D01*
X202121338Y-141418304D01*
X202082668Y-141430035D01*
X202036312Y-141434600D01*
X200960088Y-141434600D01*
X200913732Y-141430035D01*
X200875062Y-141418304D01*
X200839423Y-141399254D01*
X200808183Y-141373617D01*
X200782546Y-141342377D01*
X200763496Y-141306738D01*
X200751765Y-141268068D01*
X200747200Y-141221712D01*
X200747200Y-140570488D01*
X200751765Y-140524132D01*
X200763496Y-140485462D01*
X200782546Y-140449823D01*
X200808183Y-140418583D01*
X200839423Y-140392946D01*
X200875062Y-140373896D01*
X200913732Y-140362165D01*
X200960088Y-140357600D01*
X202036312Y-140357600D01*
X202082668Y-140362165D01*
X202082668Y-140362165D01*
G37*
G36*
X203793200Y-141334600D02*
G01*
X202791200Y-141334600D01*
X202791200Y-140432600D01*
X203793200Y-140432600D01*
X203793200Y-141334600D01*
X203793200Y-141334600D01*
G37*
G36*
X177950991Y-139393285D02*
G01*
X177984969Y-139403593D01*
X178016290Y-139420334D01*
X178043739Y-139442861D01*
X178066266Y-139470310D01*
X178083007Y-139501631D01*
X178093315Y-139535609D01*
X178097400Y-139577090D01*
X178097400Y-140178310D01*
X178093315Y-140219791D01*
X178083007Y-140253769D01*
X178066266Y-140285090D01*
X178043739Y-140312539D01*
X178016290Y-140335066D01*
X177984969Y-140351807D01*
X177950991Y-140362115D01*
X177909510Y-140366200D01*
X177233290Y-140366200D01*
X177191809Y-140362115D01*
X177157831Y-140351807D01*
X177126510Y-140335066D01*
X177099061Y-140312539D01*
X177076534Y-140285090D01*
X177059793Y-140253769D01*
X177049485Y-140219791D01*
X177045400Y-140178310D01*
X177045400Y-139577090D01*
X177049485Y-139535609D01*
X177059793Y-139501631D01*
X177076534Y-139470310D01*
X177099061Y-139442861D01*
X177126510Y-139420334D01*
X177157831Y-139403593D01*
X177191809Y-139393285D01*
X177233290Y-139389200D01*
X177909510Y-139389200D01*
X177950991Y-139393285D01*
X177950991Y-139393285D01*
G37*
G36*
X179551191Y-139393285D02*
G01*
X179585169Y-139403593D01*
X179616490Y-139420334D01*
X179643939Y-139442861D01*
X179666466Y-139470310D01*
X179683207Y-139501631D01*
X179693515Y-139535609D01*
X179697600Y-139577090D01*
X179697600Y-140178310D01*
X179693515Y-140219791D01*
X179683207Y-140253769D01*
X179666466Y-140285090D01*
X179643939Y-140312539D01*
X179616490Y-140335066D01*
X179585169Y-140351807D01*
X179551191Y-140362115D01*
X179509710Y-140366200D01*
X178833490Y-140366200D01*
X178792009Y-140362115D01*
X178758031Y-140351807D01*
X178726710Y-140335066D01*
X178699261Y-140312539D01*
X178676734Y-140285090D01*
X178659993Y-140253769D01*
X178649685Y-140219791D01*
X178645600Y-140178310D01*
X178645600Y-139577090D01*
X178649685Y-139535609D01*
X178659993Y-139501631D01*
X178676734Y-139470310D01*
X178699261Y-139442861D01*
X178726710Y-139420334D01*
X178758031Y-139403593D01*
X178792009Y-139393285D01*
X178833490Y-139389200D01*
X179509710Y-139389200D01*
X179551191Y-139393285D01*
X179551191Y-139393285D01*
G37*
G36*
X219793043Y-138435319D02*
G01*
X219859227Y-138441837D01*
X220029066Y-138493357D01*
X220185591Y-138577022D01*
X220221329Y-138606352D01*
X220322786Y-138689614D01*
X220406048Y-138791071D01*
X220435378Y-138826809D01*
X220519043Y-138983334D01*
X220570563Y-139153173D01*
X220587959Y-139329800D01*
X220570563Y-139506427D01*
X220519043Y-139676266D01*
X220435378Y-139832791D01*
X220406048Y-139868529D01*
X220322786Y-139969986D01*
X220221329Y-140053248D01*
X220185591Y-140082578D01*
X220029066Y-140166243D01*
X219859227Y-140217763D01*
X219793042Y-140224282D01*
X219726860Y-140230800D01*
X219388340Y-140230800D01*
X219322158Y-140224282D01*
X219255973Y-140217763D01*
X219086134Y-140166243D01*
X218929609Y-140082578D01*
X218893871Y-140053248D01*
X218792414Y-139969986D01*
X218709152Y-139868529D01*
X218679822Y-139832791D01*
X218596157Y-139676266D01*
X218544637Y-139506427D01*
X218527241Y-139329800D01*
X218544637Y-139153173D01*
X218596157Y-138983334D01*
X218679822Y-138826809D01*
X218709152Y-138791071D01*
X218792414Y-138689614D01*
X218893871Y-138606352D01*
X218929609Y-138577022D01*
X219086134Y-138493357D01*
X219255973Y-138441837D01*
X219322157Y-138435319D01*
X219388340Y-138428800D01*
X219726860Y-138428800D01*
X219793043Y-138435319D01*
X219793043Y-138435319D01*
G37*
G36*
X181789564Y-138054389D02*
G01*
X181980833Y-138133615D01*
X181980835Y-138133616D01*
X182030820Y-138167015D01*
X182152973Y-138248635D01*
X182299365Y-138395027D01*
X182414385Y-138567167D01*
X182493611Y-138758436D01*
X182534000Y-138961484D01*
X182534000Y-139168516D01*
X182493611Y-139371564D01*
X182415567Y-139559979D01*
X182414384Y-139562835D01*
X182299365Y-139734973D01*
X182152973Y-139881365D01*
X181980835Y-139996384D01*
X181980834Y-139996385D01*
X181980833Y-139996385D01*
X181789564Y-140075611D01*
X181586516Y-140116000D01*
X181379484Y-140116000D01*
X181176436Y-140075611D01*
X180985167Y-139996385D01*
X180985166Y-139996385D01*
X180985165Y-139996384D01*
X180813027Y-139881365D01*
X180666635Y-139734973D01*
X180551616Y-139562835D01*
X180550433Y-139559979D01*
X180472389Y-139371564D01*
X180432000Y-139168516D01*
X180432000Y-138961484D01*
X180472389Y-138758436D01*
X180551615Y-138567167D01*
X180666635Y-138395027D01*
X180813027Y-138248635D01*
X180935180Y-138167015D01*
X180985165Y-138133616D01*
X180985167Y-138133615D01*
X181176436Y-138054389D01*
X181379484Y-138014000D01*
X181586516Y-138014000D01*
X181789564Y-138054389D01*
X181789564Y-138054389D01*
G37*
G36*
X173765283Y-137912427D02*
G01*
X173834427Y-137919237D01*
X174004266Y-137970757D01*
X174160791Y-138054422D01*
X174196529Y-138083752D01*
X174297986Y-138167014D01*
X174381248Y-138268471D01*
X174410578Y-138304209D01*
X174494243Y-138460734D01*
X174545763Y-138630573D01*
X174563159Y-138807200D01*
X174545763Y-138983827D01*
X174494392Y-139153175D01*
X174494242Y-139153668D01*
X174452411Y-139231928D01*
X174410578Y-139310191D01*
X174394485Y-139329800D01*
X174297986Y-139447386D01*
X174217077Y-139513785D01*
X174160791Y-139559978D01*
X174004266Y-139643643D01*
X173834427Y-139695163D01*
X173768243Y-139701681D01*
X173702060Y-139708200D01*
X173363540Y-139708200D01*
X173297357Y-139701681D01*
X173231173Y-139695163D01*
X173061334Y-139643643D01*
X172904809Y-139559978D01*
X172848523Y-139513785D01*
X172767614Y-139447386D01*
X172671115Y-139329800D01*
X172655022Y-139310191D01*
X172613190Y-139231929D01*
X172571358Y-139153668D01*
X172571208Y-139153175D01*
X172519837Y-138983827D01*
X172502441Y-138807200D01*
X172519837Y-138630573D01*
X172571357Y-138460734D01*
X172655022Y-138304209D01*
X172684352Y-138268471D01*
X172767614Y-138167014D01*
X172869071Y-138083752D01*
X172904809Y-138054422D01*
X173061334Y-137970757D01*
X173231173Y-137919237D01*
X173300317Y-137912427D01*
X173363540Y-137906200D01*
X173702060Y-137906200D01*
X173765283Y-137912427D01*
X173765283Y-137912427D01*
G37*
G36*
X214123764Y-137571789D02*
G01*
X214243661Y-137621452D01*
X214315035Y-137651016D01*
X214487173Y-137766035D01*
X214633565Y-137912427D01*
X214728422Y-138054390D01*
X214748585Y-138084567D01*
X214827811Y-138275836D01*
X214868200Y-138478884D01*
X214868200Y-138685916D01*
X214827811Y-138888964D01*
X214748585Y-139080233D01*
X214748584Y-139080235D01*
X214633565Y-139252373D01*
X214487173Y-139398765D01*
X214315035Y-139513784D01*
X214315034Y-139513785D01*
X214315033Y-139513785D01*
X214123764Y-139593011D01*
X213920716Y-139633400D01*
X213713684Y-139633400D01*
X213510636Y-139593011D01*
X213319367Y-139513785D01*
X213319366Y-139513785D01*
X213319365Y-139513784D01*
X213147227Y-139398765D01*
X213000835Y-139252373D01*
X212885816Y-139080235D01*
X212885815Y-139080233D01*
X212806589Y-138888964D01*
X212766200Y-138685916D01*
X212766200Y-138478884D01*
X212806589Y-138275836D01*
X212885815Y-138084567D01*
X212905979Y-138054390D01*
X213000835Y-137912427D01*
X213147227Y-137766035D01*
X213319365Y-137651016D01*
X213390739Y-137621452D01*
X213510636Y-137571789D01*
X213713684Y-137531400D01*
X213920716Y-137531400D01*
X214123764Y-137571789D01*
X214123764Y-137571789D01*
G37*
G36*
X178973600Y-138663200D02*
G01*
X176321600Y-138663200D01*
X176321600Y-137501200D01*
X178973600Y-137501200D01*
X178973600Y-138663200D01*
X178973600Y-138663200D01*
G37*
G36*
X196568703Y-137775985D02*
G01*
X195416703Y-137775985D01*
X195416703Y-136893985D01*
X196568703Y-136893985D01*
X196568703Y-137775985D01*
X196568703Y-137775985D01*
G37*
G36*
X200758703Y-137775985D02*
G01*
X199756703Y-137775985D01*
X199756703Y-136743985D01*
X200758703Y-136743985D01*
X200758703Y-137775985D01*
X200758703Y-137775985D01*
G37*
G36*
X202968703Y-137775985D02*
G01*
X202166703Y-137775985D01*
X202166703Y-134343985D01*
X202968703Y-134343985D01*
X202968703Y-137775985D01*
X202968703Y-137775985D01*
G37*
G36*
X190008703Y-137775985D02*
G01*
X189206703Y-137775985D01*
X189206703Y-134343985D01*
X190008703Y-134343985D01*
X190008703Y-137775985D01*
X190008703Y-137775985D01*
G37*
G36*
X220441200Y-135932789D02*
G01*
X220474252Y-135942815D01*
X220504703Y-135959092D01*
X220531399Y-135981001D01*
X220553308Y-136007697D01*
X220569585Y-136038148D01*
X220579611Y-136071200D01*
X220583600Y-136111703D01*
X220583600Y-137547897D01*
X220579611Y-137588400D01*
X220569585Y-137621452D01*
X220553308Y-137651903D01*
X220531399Y-137678599D01*
X220504703Y-137700508D01*
X220474252Y-137716785D01*
X220441200Y-137726811D01*
X220400697Y-137730800D01*
X218714503Y-137730800D01*
X218674000Y-137726811D01*
X218640948Y-137716785D01*
X218610497Y-137700508D01*
X218583801Y-137678599D01*
X218561892Y-137651903D01*
X218545615Y-137621452D01*
X218535589Y-137588400D01*
X218531600Y-137547897D01*
X218531600Y-136111703D01*
X218535589Y-136071200D01*
X218545615Y-136038148D01*
X218561892Y-136007697D01*
X218583801Y-135981001D01*
X218610497Y-135959092D01*
X218640948Y-135942815D01*
X218674000Y-135932789D01*
X218714503Y-135928800D01*
X220400697Y-135928800D01*
X220441200Y-135932789D01*
X220441200Y-135932789D01*
G37*
G36*
X186388871Y-136584245D02*
G01*
X186422849Y-136594553D01*
X186454170Y-136611294D01*
X186481619Y-136633821D01*
X186504146Y-136661270D01*
X186520887Y-136692591D01*
X186531195Y-136726569D01*
X186535280Y-136768050D01*
X186535280Y-137369270D01*
X186531195Y-137410751D01*
X186520887Y-137444729D01*
X186504146Y-137476050D01*
X186481619Y-137503499D01*
X186454170Y-137526026D01*
X186422849Y-137542767D01*
X186388871Y-137553075D01*
X186347390Y-137557160D01*
X185671170Y-137557160D01*
X185629689Y-137553075D01*
X185595711Y-137542767D01*
X185564390Y-137526026D01*
X185536941Y-137503499D01*
X185514414Y-137476050D01*
X185497673Y-137444729D01*
X185487365Y-137410751D01*
X185483280Y-137369270D01*
X185483280Y-136768050D01*
X185487365Y-136726569D01*
X185497673Y-136692591D01*
X185514414Y-136661270D01*
X185536941Y-136633821D01*
X185564390Y-136611294D01*
X185595711Y-136594553D01*
X185629689Y-136584245D01*
X185671170Y-136580160D01*
X186347390Y-136580160D01*
X186388871Y-136584245D01*
X186388871Y-136584245D01*
G37*
G36*
X173768242Y-135412718D02*
G01*
X173834427Y-135419237D01*
X174004266Y-135470757D01*
X174160791Y-135554422D01*
X174196529Y-135583752D01*
X174297986Y-135667014D01*
X174375186Y-135761084D01*
X174410578Y-135804209D01*
X174494243Y-135960734D01*
X174545763Y-136130573D01*
X174563159Y-136307200D01*
X174545763Y-136483827D01*
X174494243Y-136653666D01*
X174410578Y-136810191D01*
X174381248Y-136845929D01*
X174297986Y-136947386D01*
X174196529Y-137030648D01*
X174160791Y-137059978D01*
X174004266Y-137143643D01*
X173834427Y-137195163D01*
X173768243Y-137201681D01*
X173702060Y-137208200D01*
X173363540Y-137208200D01*
X173297357Y-137201681D01*
X173231173Y-137195163D01*
X173061334Y-137143643D01*
X172904809Y-137059978D01*
X172869071Y-137030648D01*
X172767614Y-136947386D01*
X172684352Y-136845929D01*
X172655022Y-136810191D01*
X172571357Y-136653666D01*
X172519837Y-136483827D01*
X172502441Y-136307200D01*
X172519837Y-136130573D01*
X172571357Y-135960734D01*
X172655022Y-135804209D01*
X172690414Y-135761084D01*
X172767614Y-135667014D01*
X172869071Y-135583752D01*
X172904809Y-135554422D01*
X173061334Y-135470757D01*
X173231173Y-135419237D01*
X173297358Y-135412718D01*
X173363540Y-135406200D01*
X173702060Y-135406200D01*
X173768242Y-135412718D01*
X173768242Y-135412718D01*
G37*
G36*
X183872364Y-134853989D02*
G01*
X184063633Y-134933215D01*
X184063635Y-134933216D01*
X184171307Y-135005160D01*
X184235773Y-135048235D01*
X184382165Y-135194627D01*
X184497185Y-135366767D01*
X184576411Y-135558036D01*
X184616800Y-135761084D01*
X184616800Y-135968116D01*
X184576411Y-136171164D01*
X184520063Y-136307200D01*
X184497184Y-136362435D01*
X184382165Y-136534573D01*
X184235773Y-136680965D01*
X184063635Y-136795984D01*
X184063634Y-136795985D01*
X184063633Y-136795985D01*
X183872364Y-136875211D01*
X183669316Y-136915600D01*
X183462284Y-136915600D01*
X183259236Y-136875211D01*
X183067967Y-136795985D01*
X183067966Y-136795985D01*
X183067965Y-136795984D01*
X182895827Y-136680965D01*
X182749435Y-136534573D01*
X182634416Y-136362435D01*
X182611537Y-136307200D01*
X182555189Y-136171164D01*
X182514800Y-135968116D01*
X182514800Y-135761084D01*
X182555189Y-135558036D01*
X182634415Y-135366767D01*
X182749435Y-135194627D01*
X182895827Y-135048235D01*
X182960293Y-135005160D01*
X183067965Y-134933216D01*
X183067967Y-134933215D01*
X183259236Y-134853989D01*
X183462284Y-134813600D01*
X183669316Y-134813600D01*
X183872364Y-134853989D01*
X183872364Y-134853989D01*
G37*
G36*
X178973600Y-136463200D02*
G01*
X176321600Y-136463200D01*
X176321600Y-135301200D01*
X178973600Y-135301200D01*
X178973600Y-136463200D01*
X178973600Y-136463200D01*
G37*
G36*
X186388871Y-135009245D02*
G01*
X186422849Y-135019553D01*
X186454170Y-135036294D01*
X186481619Y-135058821D01*
X186504146Y-135086270D01*
X186520887Y-135117591D01*
X186531195Y-135151569D01*
X186535280Y-135193050D01*
X186535280Y-135794270D01*
X186531195Y-135835751D01*
X186520887Y-135869729D01*
X186504146Y-135901050D01*
X186481619Y-135928499D01*
X186454170Y-135951026D01*
X186422849Y-135967767D01*
X186388871Y-135978075D01*
X186347390Y-135982160D01*
X185671170Y-135982160D01*
X185629689Y-135978075D01*
X185595711Y-135967767D01*
X185564390Y-135951026D01*
X185536941Y-135928499D01*
X185514414Y-135901050D01*
X185497673Y-135869729D01*
X185487365Y-135835751D01*
X185483280Y-135794270D01*
X185483280Y-135193050D01*
X185487365Y-135151569D01*
X185497673Y-135117591D01*
X185514414Y-135086270D01*
X185536941Y-135058821D01*
X185564390Y-135036294D01*
X185595711Y-135019553D01*
X185629689Y-135009245D01*
X185671170Y-135005160D01*
X186347390Y-135005160D01*
X186388871Y-135009245D01*
X186388871Y-135009245D01*
G37*
G36*
X174416400Y-132910189D02*
G01*
X174449452Y-132920215D01*
X174479903Y-132936492D01*
X174506599Y-132958401D01*
X174528508Y-132985097D01*
X174544785Y-133015548D01*
X174554811Y-133048600D01*
X174558800Y-133089103D01*
X174558800Y-134525297D01*
X174554811Y-134565800D01*
X174544785Y-134598852D01*
X174528508Y-134629303D01*
X174506599Y-134655999D01*
X174479903Y-134677908D01*
X174449452Y-134694185D01*
X174416400Y-134704211D01*
X174375897Y-134708200D01*
X172689703Y-134708200D01*
X172649200Y-134704211D01*
X172616148Y-134694185D01*
X172585697Y-134677908D01*
X172559001Y-134655999D01*
X172537092Y-134629303D01*
X172520815Y-134598852D01*
X172510789Y-134565800D01*
X172506800Y-134525297D01*
X172506800Y-133089103D01*
X172510789Y-133048600D01*
X172520815Y-133015548D01*
X172537092Y-132985097D01*
X172559001Y-132958401D01*
X172585697Y-132936492D01*
X172616148Y-132920215D01*
X172649200Y-132910189D01*
X172689703Y-132906200D01*
X174375897Y-132906200D01*
X174416400Y-132910189D01*
X174416400Y-132910189D01*
G37*
G36*
X180715099Y-132574445D02*
G01*
X180752595Y-132585820D01*
X180787154Y-132604292D01*
X180817447Y-132629153D01*
X180842308Y-132659446D01*
X180860780Y-132694005D01*
X180872155Y-132731501D01*
X180876600Y-132776638D01*
X180876600Y-133415362D01*
X180872155Y-133460499D01*
X180860780Y-133497995D01*
X180842308Y-133532554D01*
X180817447Y-133562847D01*
X180787154Y-133587708D01*
X180752595Y-133606180D01*
X180715099Y-133617555D01*
X180669962Y-133622000D01*
X179931238Y-133622000D01*
X179886101Y-133617555D01*
X179848605Y-133606180D01*
X179814046Y-133587708D01*
X179783753Y-133562847D01*
X179758892Y-133532554D01*
X179740420Y-133497995D01*
X179729045Y-133460499D01*
X179724600Y-133415362D01*
X179724600Y-132776638D01*
X179729045Y-132731501D01*
X179740420Y-132694005D01*
X179758892Y-132659446D01*
X179783753Y-132629153D01*
X179814046Y-132604292D01*
X179848605Y-132585820D01*
X179886101Y-132574445D01*
X179931238Y-132570000D01*
X180669962Y-132570000D01*
X180715099Y-132574445D01*
X180715099Y-132574445D01*
G37*
G36*
X178965099Y-132574445D02*
G01*
X179002595Y-132585820D01*
X179037154Y-132604292D01*
X179067447Y-132629153D01*
X179092308Y-132659446D01*
X179110780Y-132694005D01*
X179122155Y-132731501D01*
X179126600Y-132776638D01*
X179126600Y-133415362D01*
X179122155Y-133460499D01*
X179110780Y-133497995D01*
X179092308Y-133532554D01*
X179067447Y-133562847D01*
X179037154Y-133587708D01*
X179002595Y-133606180D01*
X178965099Y-133617555D01*
X178919962Y-133622000D01*
X178181238Y-133622000D01*
X178136101Y-133617555D01*
X178098605Y-133606180D01*
X178064046Y-133587708D01*
X178033753Y-133562847D01*
X178008892Y-133532554D01*
X177990420Y-133497995D01*
X177979045Y-133460499D01*
X177974600Y-133415362D01*
X177974600Y-132776638D01*
X177979045Y-132731501D01*
X177990420Y-132694005D01*
X178008892Y-132659446D01*
X178033753Y-132629153D01*
X178064046Y-132604292D01*
X178098605Y-132585820D01*
X178136101Y-132574445D01*
X178181238Y-132570000D01*
X178919962Y-132570000D01*
X178965099Y-132574445D01*
X178965099Y-132574445D01*
G37*
G36*
X178885468Y-130444565D02*
G01*
X178924138Y-130456296D01*
X178959777Y-130475346D01*
X178991017Y-130500983D01*
X179016654Y-130532223D01*
X179035704Y-130567862D01*
X179047435Y-130606532D01*
X179052000Y-130652888D01*
X179052000Y-131729112D01*
X179047435Y-131775468D01*
X179035704Y-131814138D01*
X179016654Y-131849777D01*
X178991017Y-131881017D01*
X178959777Y-131906654D01*
X178924138Y-131925704D01*
X178885468Y-131937435D01*
X178839112Y-131942000D01*
X178187888Y-131942000D01*
X178141532Y-131937435D01*
X178102862Y-131925704D01*
X178067223Y-131906654D01*
X178035983Y-131881017D01*
X178010346Y-131849777D01*
X177991296Y-131814138D01*
X177979565Y-131775468D01*
X177975000Y-131729112D01*
X177975000Y-130652888D01*
X177979565Y-130606532D01*
X177991296Y-130567862D01*
X178010346Y-130532223D01*
X178035983Y-130500983D01*
X178067223Y-130475346D01*
X178102862Y-130456296D01*
X178141532Y-130444565D01*
X178187888Y-130440000D01*
X178839112Y-130440000D01*
X178885468Y-130444565D01*
X178885468Y-130444565D01*
G37*
G36*
X180760468Y-130444565D02*
G01*
X180799138Y-130456296D01*
X180834777Y-130475346D01*
X180866017Y-130500983D01*
X180891654Y-130532223D01*
X180910704Y-130567862D01*
X180922435Y-130606532D01*
X180927000Y-130652888D01*
X180927000Y-131729112D01*
X180922435Y-131775468D01*
X180910704Y-131814138D01*
X180891654Y-131849777D01*
X180866017Y-131881017D01*
X180834777Y-131906654D01*
X180799138Y-131925704D01*
X180760468Y-131937435D01*
X180714112Y-131942000D01*
X180062888Y-131942000D01*
X180016532Y-131937435D01*
X179977862Y-131925704D01*
X179942223Y-131906654D01*
X179910983Y-131881017D01*
X179885346Y-131849777D01*
X179866296Y-131814138D01*
X179854565Y-131775468D01*
X179850000Y-131729112D01*
X179850000Y-130652888D01*
X179854565Y-130606532D01*
X179866296Y-130567862D01*
X179885346Y-130532223D01*
X179910983Y-130500983D01*
X179942223Y-130475346D01*
X179977862Y-130456296D01*
X180016532Y-130444565D01*
X180062888Y-130440000D01*
X180714112Y-130440000D01*
X180760468Y-130444565D01*
X180760468Y-130444565D01*
G37*
G36*
X176936668Y-129257765D02*
G01*
X176975338Y-129269496D01*
X177010977Y-129288546D01*
X177042217Y-129314183D01*
X177067854Y-129345423D01*
X177086904Y-129381062D01*
X177098635Y-129419732D01*
X177103200Y-129466088D01*
X177103200Y-130117312D01*
X177098635Y-130163668D01*
X177086904Y-130202338D01*
X177067854Y-130237977D01*
X177042217Y-130269217D01*
X177010977Y-130294854D01*
X176975338Y-130313904D01*
X176936668Y-130325635D01*
X176890312Y-130330200D01*
X175814088Y-130330200D01*
X175767732Y-130325635D01*
X175729062Y-130313904D01*
X175693423Y-130294854D01*
X175662183Y-130269217D01*
X175636546Y-130237977D01*
X175617496Y-130202338D01*
X175605765Y-130163668D01*
X175601200Y-130117312D01*
X175601200Y-129466088D01*
X175605765Y-129419732D01*
X175617496Y-129381062D01*
X175636546Y-129345423D01*
X175662183Y-129314183D01*
X175693423Y-129288546D01*
X175729062Y-129269496D01*
X175767732Y-129257765D01*
X175814088Y-129253200D01*
X176890312Y-129253200D01*
X176936668Y-129257765D01*
X176936668Y-129257765D01*
G37*
G36*
X178636791Y-129030285D02*
G01*
X178670769Y-129040593D01*
X178702090Y-129057334D01*
X178729539Y-129079861D01*
X178752066Y-129107310D01*
X178768807Y-129138631D01*
X178779115Y-129172609D01*
X178783200Y-129214090D01*
X178783200Y-129815310D01*
X178779115Y-129856791D01*
X178768807Y-129890769D01*
X178752066Y-129922090D01*
X178729539Y-129949539D01*
X178702090Y-129972066D01*
X178670769Y-129988807D01*
X178636791Y-129999115D01*
X178595310Y-130003200D01*
X177919090Y-130003200D01*
X177877609Y-129999115D01*
X177843631Y-129988807D01*
X177812310Y-129972066D01*
X177784861Y-129949539D01*
X177762334Y-129922090D01*
X177745593Y-129890769D01*
X177735285Y-129856791D01*
X177731200Y-129815310D01*
X177731200Y-129214090D01*
X177735285Y-129172609D01*
X177745593Y-129138631D01*
X177762334Y-129107310D01*
X177784861Y-129079861D01*
X177812310Y-129057334D01*
X177843631Y-129040593D01*
X177877609Y-129030285D01*
X177919090Y-129026200D01*
X178595310Y-129026200D01*
X178636791Y-129030285D01*
X178636791Y-129030285D01*
G37*
G36*
X174826791Y-128979485D02*
G01*
X174860769Y-128989793D01*
X174892090Y-129006534D01*
X174919539Y-129029061D01*
X174942066Y-129056510D01*
X174958807Y-129087831D01*
X174969115Y-129121809D01*
X174973200Y-129163290D01*
X174973200Y-129764510D01*
X174969115Y-129805991D01*
X174958807Y-129839969D01*
X174942066Y-129871290D01*
X174919539Y-129898739D01*
X174892090Y-129921266D01*
X174860769Y-129938007D01*
X174826791Y-129948315D01*
X174785310Y-129952400D01*
X174109090Y-129952400D01*
X174067609Y-129948315D01*
X174033631Y-129938007D01*
X174002310Y-129921266D01*
X173974861Y-129898739D01*
X173952334Y-129871290D01*
X173935593Y-129839969D01*
X173925285Y-129805991D01*
X173921200Y-129764510D01*
X173921200Y-129163290D01*
X173925285Y-129121809D01*
X173935593Y-129087831D01*
X173952334Y-129056510D01*
X173974861Y-129029061D01*
X174002310Y-129006534D01*
X174033631Y-128989793D01*
X174067609Y-128979485D01*
X174109090Y-128975400D01*
X174785310Y-128975400D01*
X174826791Y-128979485D01*
X174826791Y-128979485D01*
G37*
G36*
X186470299Y-128141645D02*
G01*
X186507795Y-128153020D01*
X186542354Y-128171492D01*
X186572647Y-128196353D01*
X186597508Y-128226646D01*
X186615980Y-128261205D01*
X186627355Y-128298701D01*
X186631800Y-128343838D01*
X186631800Y-129082562D01*
X186627355Y-129127699D01*
X186615980Y-129165195D01*
X186597508Y-129199754D01*
X186572647Y-129230047D01*
X186542354Y-129254908D01*
X186507795Y-129273380D01*
X186470299Y-129284755D01*
X186425162Y-129289200D01*
X185786438Y-129289200D01*
X185741301Y-129284755D01*
X185703805Y-129273380D01*
X185669246Y-129254908D01*
X185638953Y-129230047D01*
X185614092Y-129199754D01*
X185595620Y-129165195D01*
X185584245Y-129127699D01*
X185579800Y-129082562D01*
X185579800Y-128343838D01*
X185584245Y-128298701D01*
X185595620Y-128261205D01*
X185614092Y-128226646D01*
X185638953Y-128196353D01*
X185669246Y-128171492D01*
X185703805Y-128153020D01*
X185741301Y-128141645D01*
X185786438Y-128137200D01*
X186425162Y-128137200D01*
X186470299Y-128141645D01*
X186470299Y-128141645D01*
G37*
G36*
X184946299Y-128141645D02*
G01*
X184983795Y-128153020D01*
X185018354Y-128171492D01*
X185048647Y-128196353D01*
X185073508Y-128226646D01*
X185091980Y-128261205D01*
X185103355Y-128298701D01*
X185107800Y-128343838D01*
X185107800Y-129082562D01*
X185103355Y-129127699D01*
X185091980Y-129165195D01*
X185073508Y-129199754D01*
X185048647Y-129230047D01*
X185018354Y-129254908D01*
X184983795Y-129273380D01*
X184946299Y-129284755D01*
X184901162Y-129289200D01*
X184262438Y-129289200D01*
X184217301Y-129284755D01*
X184179805Y-129273380D01*
X184145246Y-129254908D01*
X184114953Y-129230047D01*
X184090092Y-129199754D01*
X184071620Y-129165195D01*
X184060245Y-129127699D01*
X184055800Y-129082562D01*
X184055800Y-128343838D01*
X184060245Y-128298701D01*
X184071620Y-128261205D01*
X184090092Y-128226646D01*
X184114953Y-128196353D01*
X184145246Y-128171492D01*
X184179805Y-128153020D01*
X184217301Y-128141645D01*
X184262438Y-128137200D01*
X184901162Y-128137200D01*
X184946299Y-128141645D01*
X184946299Y-128141645D01*
G37*
G36*
X188009391Y-128014285D02*
G01*
X188043369Y-128024593D01*
X188074690Y-128041334D01*
X188102139Y-128063861D01*
X188124666Y-128091310D01*
X188141407Y-128122631D01*
X188151715Y-128156609D01*
X188155800Y-128198090D01*
X188155800Y-128799310D01*
X188151715Y-128840791D01*
X188141407Y-128874769D01*
X188124666Y-128906090D01*
X188102139Y-128933539D01*
X188074690Y-128956066D01*
X188043369Y-128972807D01*
X188009391Y-128983115D01*
X187967910Y-128987200D01*
X187291690Y-128987200D01*
X187250209Y-128983115D01*
X187216231Y-128972807D01*
X187184910Y-128956066D01*
X187157461Y-128933539D01*
X187134934Y-128906090D01*
X187118193Y-128874769D01*
X187107885Y-128840791D01*
X187103800Y-128799310D01*
X187103800Y-128198090D01*
X187107885Y-128156609D01*
X187118193Y-128122631D01*
X187134934Y-128091310D01*
X187157461Y-128063861D01*
X187184910Y-128041334D01*
X187216231Y-128024593D01*
X187250209Y-128014285D01*
X187291690Y-128010200D01*
X187967910Y-128010200D01*
X188009391Y-128014285D01*
X188009391Y-128014285D01*
G37*
G36*
X176936668Y-127382765D02*
G01*
X176975338Y-127394496D01*
X177010977Y-127413546D01*
X177042217Y-127439183D01*
X177067854Y-127470423D01*
X177086904Y-127506062D01*
X177098635Y-127544732D01*
X177103200Y-127591088D01*
X177103200Y-128242312D01*
X177098635Y-128288668D01*
X177086904Y-128327338D01*
X177067854Y-128362977D01*
X177042217Y-128394217D01*
X177010977Y-128419854D01*
X176975338Y-128438904D01*
X176936668Y-128450635D01*
X176890312Y-128455200D01*
X175814088Y-128455200D01*
X175767732Y-128450635D01*
X175729062Y-128438904D01*
X175693423Y-128419854D01*
X175662183Y-128394217D01*
X175636546Y-128362977D01*
X175617496Y-128327338D01*
X175605765Y-128288668D01*
X175601200Y-128242312D01*
X175601200Y-127591088D01*
X175605765Y-127544732D01*
X175617496Y-127506062D01*
X175636546Y-127470423D01*
X175662183Y-127439183D01*
X175693423Y-127413546D01*
X175729062Y-127394496D01*
X175767732Y-127382765D01*
X175814088Y-127378200D01*
X176890312Y-127378200D01*
X176936668Y-127382765D01*
X176936668Y-127382765D01*
G37*
G36*
X178636791Y-127455285D02*
G01*
X178670769Y-127465593D01*
X178702090Y-127482334D01*
X178729539Y-127504861D01*
X178752066Y-127532310D01*
X178768807Y-127563631D01*
X178779115Y-127597609D01*
X178783200Y-127639090D01*
X178783200Y-128240310D01*
X178779115Y-128281791D01*
X178768807Y-128315769D01*
X178752066Y-128347090D01*
X178729539Y-128374539D01*
X178702090Y-128397066D01*
X178670769Y-128413807D01*
X178636791Y-128424115D01*
X178595310Y-128428200D01*
X177919090Y-128428200D01*
X177877609Y-128424115D01*
X177843631Y-128413807D01*
X177812310Y-128397066D01*
X177784861Y-128374539D01*
X177762334Y-128347090D01*
X177745593Y-128315769D01*
X177735285Y-128281791D01*
X177731200Y-128240310D01*
X177731200Y-127639090D01*
X177735285Y-127597609D01*
X177745593Y-127563631D01*
X177762334Y-127532310D01*
X177784861Y-127504861D01*
X177812310Y-127482334D01*
X177843631Y-127465593D01*
X177877609Y-127455285D01*
X177919090Y-127451200D01*
X178595310Y-127451200D01*
X178636791Y-127455285D01*
X178636791Y-127455285D01*
G37*
G36*
X174826791Y-127404485D02*
G01*
X174860769Y-127414793D01*
X174892090Y-127431534D01*
X174919539Y-127454061D01*
X174942066Y-127481510D01*
X174958807Y-127512831D01*
X174969115Y-127546809D01*
X174973200Y-127588290D01*
X174973200Y-128189510D01*
X174969115Y-128230991D01*
X174958807Y-128264969D01*
X174942066Y-128296290D01*
X174919539Y-128323739D01*
X174892090Y-128346266D01*
X174860769Y-128363007D01*
X174826791Y-128373315D01*
X174785310Y-128377400D01*
X174109090Y-128377400D01*
X174067609Y-128373315D01*
X174033631Y-128363007D01*
X174002310Y-128346266D01*
X173974861Y-128323739D01*
X173952334Y-128296290D01*
X173935593Y-128264969D01*
X173925285Y-128230991D01*
X173921200Y-128189510D01*
X173921200Y-127588290D01*
X173925285Y-127546809D01*
X173935593Y-127512831D01*
X173952334Y-127481510D01*
X173974861Y-127454061D01*
X174002310Y-127431534D01*
X174033631Y-127414793D01*
X174067609Y-127404485D01*
X174109090Y-127400400D01*
X174785310Y-127400400D01*
X174826791Y-127404485D01*
X174826791Y-127404485D01*
G37*
G36*
X184946299Y-126391645D02*
G01*
X184983795Y-126403020D01*
X185018354Y-126421492D01*
X185048647Y-126446353D01*
X185073508Y-126476646D01*
X185091980Y-126511205D01*
X185103355Y-126548701D01*
X185107800Y-126593838D01*
X185107800Y-127332562D01*
X185103355Y-127377699D01*
X185091980Y-127415195D01*
X185073508Y-127449754D01*
X185048647Y-127480047D01*
X185018354Y-127504908D01*
X184983795Y-127523380D01*
X184946299Y-127534755D01*
X184901162Y-127539200D01*
X184262438Y-127539200D01*
X184217301Y-127534755D01*
X184179805Y-127523380D01*
X184145246Y-127504908D01*
X184114953Y-127480047D01*
X184090092Y-127449754D01*
X184071620Y-127415195D01*
X184060245Y-127377699D01*
X184055800Y-127332562D01*
X184055800Y-126593838D01*
X184060245Y-126548701D01*
X184071620Y-126511205D01*
X184090092Y-126476646D01*
X184114953Y-126446353D01*
X184145246Y-126421492D01*
X184179805Y-126403020D01*
X184217301Y-126391645D01*
X184262438Y-126387200D01*
X184901162Y-126387200D01*
X184946299Y-126391645D01*
X184946299Y-126391645D01*
G37*
G36*
X186470299Y-126391645D02*
G01*
X186507795Y-126403020D01*
X186542354Y-126421492D01*
X186572647Y-126446353D01*
X186597508Y-126476646D01*
X186615980Y-126511205D01*
X186627355Y-126548701D01*
X186631800Y-126593838D01*
X186631800Y-127332562D01*
X186627355Y-127377699D01*
X186615980Y-127415195D01*
X186597508Y-127449754D01*
X186572647Y-127480047D01*
X186542354Y-127504908D01*
X186507795Y-127523380D01*
X186470299Y-127534755D01*
X186425162Y-127539200D01*
X185786438Y-127539200D01*
X185741301Y-127534755D01*
X185703805Y-127523380D01*
X185669246Y-127504908D01*
X185638953Y-127480047D01*
X185614092Y-127449754D01*
X185595620Y-127415195D01*
X185584245Y-127377699D01*
X185579800Y-127332562D01*
X185579800Y-126593838D01*
X185584245Y-126548701D01*
X185595620Y-126511205D01*
X185614092Y-126476646D01*
X185638953Y-126446353D01*
X185669246Y-126421492D01*
X185703805Y-126403020D01*
X185741301Y-126391645D01*
X185786438Y-126387200D01*
X186425162Y-126387200D01*
X186470299Y-126391645D01*
X186470299Y-126391645D01*
G37*
G36*
X188009391Y-126439285D02*
G01*
X188043369Y-126449593D01*
X188074690Y-126466334D01*
X188102139Y-126488861D01*
X188124666Y-126516310D01*
X188141407Y-126547631D01*
X188151715Y-126581609D01*
X188155800Y-126623090D01*
X188155800Y-127224310D01*
X188151715Y-127265791D01*
X188141407Y-127299769D01*
X188124666Y-127331090D01*
X188102139Y-127358539D01*
X188074690Y-127381066D01*
X188043369Y-127397807D01*
X188009391Y-127408115D01*
X187967910Y-127412200D01*
X187291690Y-127412200D01*
X187250209Y-127408115D01*
X187216231Y-127397807D01*
X187184910Y-127381066D01*
X187157461Y-127358539D01*
X187134934Y-127331090D01*
X187118193Y-127299769D01*
X187107885Y-127265791D01*
X187103800Y-127224310D01*
X187103800Y-126623090D01*
X187107885Y-126581609D01*
X187118193Y-126547631D01*
X187134934Y-126516310D01*
X187157461Y-126488861D01*
X187184910Y-126466334D01*
X187216231Y-126449593D01*
X187250209Y-126439285D01*
X187291690Y-126435200D01*
X187967910Y-126435200D01*
X188009391Y-126439285D01*
X188009391Y-126439285D01*
G37*
G36*
X190168703Y-124068986D02*
G01*
X190171105Y-124093372D01*
X190178218Y-124116821D01*
X190189769Y-124138432D01*
X190205314Y-124157374D01*
X190224256Y-124172919D01*
X190245867Y-124184470D01*
X190269316Y-124191583D01*
X190293702Y-124193985D01*
X191168703Y-124193985D01*
X191168703Y-125395985D01*
X190293702Y-125395985D01*
X190269316Y-125398387D01*
X190245867Y-125405500D01*
X190224256Y-125417051D01*
X190205314Y-125432596D01*
X190189769Y-125451538D01*
X190178218Y-125473149D01*
X190171105Y-125496598D01*
X190168703Y-125520984D01*
X190168703Y-126745985D01*
X189206703Y-126745985D01*
X189206703Y-123843985D01*
X190168703Y-123843985D01*
X190168703Y-124068986D01*
X190168703Y-124068986D01*
G37*
G36*
X202968703Y-125775985D02*
G01*
X201726703Y-125775985D01*
X201726703Y-123843985D01*
X202968703Y-123843985D01*
X202968703Y-125775985D01*
X202968703Y-125775985D01*
G37*
G36*
X198868703Y-125395985D02*
G01*
X198066703Y-125395985D01*
X198066703Y-124193985D01*
X198868703Y-124193985D01*
X198868703Y-125395985D01*
X198868703Y-125395985D01*
G37*
G36*
X193368703Y-125395985D02*
G01*
X192566703Y-125395985D01*
X192566703Y-124193985D01*
X193368703Y-124193985D01*
X193368703Y-125395985D01*
X193368703Y-125395985D01*
G37*
G36*
X192268703Y-125395985D02*
G01*
X191466703Y-125395985D01*
X191466703Y-124193985D01*
X192268703Y-124193985D01*
X192268703Y-125395985D01*
X192268703Y-125395985D01*
G37*
G36*
X195568703Y-125395985D02*
G01*
X194766703Y-125395985D01*
X194766703Y-124193985D01*
X195568703Y-124193985D01*
X195568703Y-125395985D01*
X195568703Y-125395985D01*
G37*
G36*
X196668703Y-125395985D02*
G01*
X195866703Y-125395985D01*
X195866703Y-124193985D01*
X196668703Y-124193985D01*
X196668703Y-125395985D01*
X196668703Y-125395985D01*
G37*
G36*
X197768703Y-125395985D02*
G01*
X196966703Y-125395985D01*
X196966703Y-124193985D01*
X197768703Y-124193985D01*
X197768703Y-125395985D01*
X197768703Y-125395985D01*
G37*
G36*
X194468703Y-125395985D02*
G01*
X193666703Y-125395985D01*
X193666703Y-124193985D01*
X194468703Y-124193985D01*
X194468703Y-125395985D01*
X194468703Y-125395985D01*
G37*
G36*
X219912794Y-120802263D02*
G01*
X220186207Y-120856648D01*
X220486488Y-120981029D01*
X220756734Y-121161601D01*
X220986559Y-121391426D01*
X221167131Y-121661672D01*
X221291512Y-121961953D01*
X221354920Y-122280729D01*
X221354920Y-122605751D01*
X221291512Y-122924527D01*
X221167131Y-123224808D01*
X220986559Y-123495054D01*
X220756734Y-123724879D01*
X220486488Y-123905451D01*
X220186207Y-124029832D01*
X219912794Y-124084217D01*
X219867432Y-124093240D01*
X219542408Y-124093240D01*
X219497046Y-124084217D01*
X219223633Y-124029832D01*
X218923352Y-123905451D01*
X218653106Y-123724879D01*
X218423281Y-123495054D01*
X218242709Y-123224808D01*
X218118328Y-122924527D01*
X218054920Y-122605751D01*
X218054920Y-122280729D01*
X218118328Y-121961953D01*
X218242709Y-121661672D01*
X218423281Y-121391426D01*
X218653106Y-121161601D01*
X218923352Y-120981029D01*
X219223633Y-120856648D01*
X219497046Y-120802263D01*
X219542408Y-120793240D01*
X219867432Y-120793240D01*
X219912794Y-120802263D01*
X219912794Y-120802263D01*
G37*
G36*
X173125994Y-120802263D02*
G01*
X173399407Y-120856648D01*
X173699688Y-120981029D01*
X173969934Y-121161601D01*
X174199759Y-121391426D01*
X174380331Y-121661672D01*
X174504712Y-121961953D01*
X174568120Y-122280729D01*
X174568120Y-122605751D01*
X174504712Y-122924527D01*
X174380331Y-123224808D01*
X174199759Y-123495054D01*
X173969934Y-123724879D01*
X173699688Y-123905451D01*
X173399407Y-124029832D01*
X173125994Y-124084217D01*
X173080632Y-124093240D01*
X172755608Y-124093240D01*
X172710246Y-124084217D01*
X172436833Y-124029832D01*
X172136552Y-123905451D01*
X171866306Y-123724879D01*
X171636481Y-123495054D01*
X171455909Y-123224808D01*
X171331528Y-122924527D01*
X171268120Y-122605751D01*
X171268120Y-122280729D01*
X171331528Y-121961953D01*
X171455909Y-121661672D01*
X171636481Y-121391426D01*
X171866306Y-121161601D01*
X172136552Y-120981029D01*
X172436833Y-120856648D01*
X172710246Y-120802263D01*
X172755608Y-120793240D01*
X173080632Y-120793240D01*
X173125994Y-120802263D01*
X173125994Y-120802263D01*
G37*
M02*
