M48
; DRILL file {KiCad 5.1.4-3.fc30} date Wed 13 Nov 2019 22:01:05 CET
; FORMAT={-:-/ absolute / inch / decimal}
; #@! TF.CreationDate,2019-11-13T22:01:05+01:00
; #@! TF.GenerationSoftware,Kicad,Pcbnew,5.1.4-3.fc30
; #@! TF.FileFunction,Plated,1,2,PTH
FMAT,2
INCH
T1C0.0118
T2C0.0374
T3C0.0394
%
G90
G05
T1
X6.901Y-4.942
X6.901Y-4.9726
X6.901Y-5.003
X6.931Y-5.1615
X6.931Y-5.2233
X6.931Y-5.285
X6.931Y-5.51
X6.931Y-5.5705
X6.95Y-4.905
X6.95Y-4.9795
X6.9786Y-5.1696
X7.1035Y-5.398
X7.104Y-5.352
X7.105Y-4.985
X7.1265Y-5.628
X7.151Y-4.982
X7.2365Y-5.4535
X7.2365Y-5.5408
X7.2365Y-5.628
X7.246Y-4.911
X7.246Y-4.943
X7.247Y-4.874
X7.254Y-5.193
X7.2905Y-4.873
X7.297Y-5.232
X7.335Y-4.873
X7.352Y-5.4535
X7.352Y-5.628
X7.366Y-5.1515
X7.379Y-5.374
X7.4145Y-5.103
X7.4515Y-5.1725
X7.455Y-5.086
X7.4552Y-5.2406
X7.4785Y-5.539
X7.4785Y-5.628
X7.4836Y-5.2271
X7.504Y-5.2783
X7.508Y-5.1725
X7.5432Y-5.4552
X7.5714Y-5.0534
X7.59Y-4.986
X7.6174Y-5.0148
X7.662Y-5.118
X7.6622Y-5.8832
X7.6624Y-5.0148
X7.663Y-5.714
X7.663Y-5.787
X7.67Y-5.2388
X7.67Y-5.295
X7.7Y-5.119
X7.708Y-5.0547
X7.709Y-5.018
X7.7224Y-5.2388
X7.7224Y-5.295
X7.7633Y-5.46
X7.767Y-5.609
X7.7894Y-5.8832
X7.7927Y-5.46
X7.8005Y-5.609
X7.822Y-5.46
X7.834Y-5.609
X7.8415Y-5.2065
X7.872Y-5.163
X7.8727Y-5.786
X7.8737Y-5.8475
X7.8878Y-5.2759
X7.891Y-4.914
X7.891Y-4.998
X7.8951Y-5.2342
X7.898Y-5.1975
X7.9745Y-5.138
X7.975Y-4.998
X7.975Y-5.0628
X7.975Y-5.1922
X7.975Y-5.257
X8.0212Y-5.8485
X8.051Y-5.036
X8.051Y-5.0705
X8.051Y-5.105
X8.0885Y-5.1765
X8.0885Y-5.2551
X8.0885Y-5.3338
X8.0885Y-5.4124
X8.0885Y-5.491
X8.0895Y-4.8955
X8.0895Y-4.974
X8.097Y-5.036
X8.097Y-5.0705
X8.097Y-5.105
X8.131Y-4.849
X8.1516Y-5.258
X8.171Y-4.849
X8.1769Y-5.8485
X8.1795Y-5.4115
X8.18Y-5.484
X8.202Y-5.686
X8.202Y-5.714
X8.207Y-4.849
X8.2162Y-5.258
X8.234Y-5.686
X8.234Y-5.714
X8.2464Y-4.8946
X8.267Y-5.511
X8.2808Y-5.258
X8.3326Y-5.8485
X8.3418Y-5.493
X8.3454Y-5.258
X8.353Y-4.874
X8.362Y-5.601
X8.372Y-5.197
X8.373Y-5.123
X8.373Y-5.16
X8.398Y-4.913
X8.41Y-5.258
X8.423Y-5.123
X8.423Y-5.16
X8.423Y-5.197
X8.4575Y-4.8365
X8.4786Y-5.8482
X8.4876Y-5.7368
X8.49Y-5.554
X8.497Y-5.171
X8.5015Y-4.8775
X8.5465Y-4.9165
X8.5735Y-5.3435
X8.574Y-5.253
X8.574Y-5.3983
X8.574Y-5.471
X8.7112Y-5.7178
T2
X8.644Y-5.387
X8.644Y-5.4854
X8.644Y-5.5839
X6.832Y-5.268
X6.832Y-5.3664
X6.832Y-5.4649
T3
X7.145Y-5.475
X8.418Y-5.456
X7.227Y-5.349
T0
M30
