G04 #@! TF.GenerationSoftware,KiCad,Pcbnew,5.1.4-3.fc30*
G04 #@! TF.CreationDate,2019-11-13T22:00:14+01:00*
G04 #@! TF.ProjectId,dpf_ressure_dumper,6470665f-7265-4737-9375-72655f64756d,rev?*
G04 #@! TF.SameCoordinates,Original*
G04 #@! TF.FileFunction,Legend,Top*
G04 #@! TF.FilePolarity,Positive*
%FSLAX46Y46*%
G04 Gerber Fmt 4.6, Leading zero omitted, Abs format (unit mm)*
G04 Created by KiCad (PCBNEW 5.1.4-3.fc30) date 2019-11-13 22:00:14*
%MOMM*%
%LPD*%
G04 APERTURE LIST*
%ADD10C,0.120000*%
%ADD11C,0.160000*%
%ADD12C,0.150000*%
G04 APERTURE END LIST*
D10*
X186227501Y-141988000D02*
X186553059Y-141988000D01*
X186227501Y-140968000D02*
X186553059Y-140968000D01*
X186212261Y-140179520D02*
X186537819Y-140179520D01*
X186212261Y-139159520D02*
X186537819Y-139159520D01*
X189596800Y-128515600D02*
X190996800Y-128515600D01*
X190996800Y-126195600D02*
X189096800Y-126195600D01*
X210881800Y-140630000D02*
X208431800Y-140630000D01*
X209081800Y-143850000D02*
X210881800Y-143850000D01*
X197928000Y-137053000D02*
X197928000Y-137603000D01*
X197928000Y-137603000D02*
X197378000Y-137603000D01*
X191708000Y-131933000D02*
X191708000Y-131383000D01*
X191708000Y-131383000D02*
X192258000Y-131383000D01*
X191708000Y-137053000D02*
X191708000Y-137603000D01*
X191708000Y-137603000D02*
X192258000Y-137603000D01*
X197928000Y-131933000D02*
X197928000Y-131383000D01*
D11*
X192531800Y-147071700D02*
X192531800Y-149371700D01*
X192531800Y-149371700D02*
X182981800Y-149371700D01*
X182981800Y-149371700D02*
X182981800Y-147071700D01*
X182981800Y-147071700D02*
X192531800Y-147071700D01*
X192005800Y-146364700D02*
G75*
G03X192005800Y-146364700I-250000J0D01*
G01*
D10*
X217117200Y-131172133D02*
X217117200Y-131514667D01*
X218137200Y-131172133D02*
X218137200Y-131514667D01*
X210906579Y-132107400D02*
X210581021Y-132107400D01*
X210906579Y-131087400D02*
X210581021Y-131087400D01*
X210788067Y-129436400D02*
X210445533Y-129436400D01*
X210788067Y-130456400D02*
X210445533Y-130456400D01*
X206909600Y-125785378D02*
X206909600Y-125268222D01*
X208329600Y-125785378D02*
X208329600Y-125268222D01*
X208224800Y-129471336D02*
X208224800Y-130675464D01*
X206404800Y-129471336D02*
X206404800Y-130675464D01*
X206410779Y-145743200D02*
X206085221Y-145743200D01*
X206410779Y-146763200D02*
X206085221Y-146763200D01*
X206410779Y-141683200D02*
X206085221Y-141683200D01*
X206410779Y-140663200D02*
X206085221Y-140663200D01*
X206385379Y-144016000D02*
X206059821Y-144016000D01*
X206385379Y-145036000D02*
X206059821Y-145036000D01*
X206241467Y-143385000D02*
X205898933Y-143385000D01*
X206241467Y-142365000D02*
X205898933Y-142365000D01*
X198846221Y-145006600D02*
X199171779Y-145006600D01*
X198846221Y-146026600D02*
X199171779Y-146026600D01*
X198871621Y-144401000D02*
X199197179Y-144401000D01*
X198871621Y-143381000D02*
X199197179Y-143381000D01*
X202046621Y-135206200D02*
X202372179Y-135206200D01*
X202046621Y-134186200D02*
X202372179Y-134186200D01*
X198122000Y-129123221D02*
X198122000Y-129448779D01*
X197102000Y-129123221D02*
X197102000Y-129448779D01*
X197889400Y-140726379D02*
X197889400Y-140400821D01*
X198909400Y-140726379D02*
X198909400Y-140400821D01*
X196365400Y-140726379D02*
X196365400Y-140400821D01*
X197385400Y-140726379D02*
X197385400Y-140400821D01*
X184513600Y-124790400D02*
X184513600Y-128675400D01*
X184513600Y-128675400D02*
X186783600Y-128675400D01*
X186783600Y-128675400D02*
X186783600Y-124790400D01*
X220191400Y-130853548D02*
X220191400Y-131376052D01*
X218771400Y-130853548D02*
X218771400Y-131376052D01*
X214777822Y-128118800D02*
X215294978Y-128118800D01*
X214777822Y-129538800D02*
X215294978Y-129538800D01*
X209833978Y-145721000D02*
X209316822Y-145721000D01*
X209833978Y-147141000D02*
X209316822Y-147141000D01*
X183702000Y-124727000D02*
X183702000Y-128257000D01*
X177232000Y-124727000D02*
X177232000Y-128257000D01*
X183637000Y-123402000D02*
X183637000Y-124727000D01*
X183702000Y-124727000D02*
X183637000Y-124727000D01*
X183702000Y-128257000D02*
X183637000Y-128257000D01*
X177297000Y-124727000D02*
X177232000Y-124727000D01*
X177297000Y-128257000D02*
X177232000Y-128257000D01*
X175242800Y-131197200D02*
X171222800Y-131197200D01*
X171222800Y-131197200D02*
X171222800Y-141417200D01*
X171222800Y-141417200D02*
X175242800Y-141417200D01*
X175242800Y-141417200D02*
X175242800Y-131197200D01*
X173532800Y-131197200D02*
X173532800Y-131697200D01*
X173532800Y-131697200D02*
X174742800Y-131697200D01*
X174742800Y-131697200D02*
X174742800Y-140917200D01*
X174742800Y-140917200D02*
X173532800Y-140917200D01*
X173532800Y-140917200D02*
X173532800Y-141417200D01*
X172722800Y-131197200D02*
X172722800Y-132197200D01*
X172722800Y-132197200D02*
X171222800Y-132197200D01*
X172722800Y-141417200D02*
X172722800Y-140417200D01*
X172722800Y-140417200D02*
X171222800Y-140417200D01*
X173422800Y-130897200D02*
X170922800Y-130897200D01*
X170922800Y-130897200D02*
X170922800Y-133397200D01*
X216947600Y-133919800D02*
X216947600Y-136419800D01*
X219447600Y-133919800D02*
X216947600Y-133919800D01*
X218747600Y-143439800D02*
X217247600Y-143439800D01*
X218747600Y-144439800D02*
X218747600Y-143439800D01*
X218747600Y-135219800D02*
X217247600Y-135219800D01*
X218747600Y-134219800D02*
X218747600Y-135219800D01*
X219557600Y-143939800D02*
X219557600Y-144439800D01*
X220767600Y-143939800D02*
X219557600Y-143939800D01*
X220767600Y-134719800D02*
X220767600Y-143939800D01*
X219557600Y-134719800D02*
X220767600Y-134719800D01*
X219557600Y-134219800D02*
X219557600Y-134719800D01*
X221267600Y-144439800D02*
X221267600Y-134219800D01*
X217247600Y-144439800D02*
X221267600Y-144439800D01*
X217247600Y-134219800D02*
X217247600Y-144439800D01*
X221267600Y-134219800D02*
X217247600Y-134219800D01*
X219479400Y-128859400D02*
X218019400Y-128859400D01*
X219479400Y-125699400D02*
X217319400Y-125699400D01*
X219479400Y-125699400D02*
X219479400Y-126629400D01*
X219479400Y-128859400D02*
X219479400Y-127929400D01*
X215269578Y-125934400D02*
X214752422Y-125934400D01*
X215269578Y-127354400D02*
X214752422Y-127354400D01*
X181510400Y-133492021D02*
X181510400Y-133817579D01*
X180490400Y-133492021D02*
X180490400Y-133817579D01*
X213389978Y-145746400D02*
X212872822Y-145746400D01*
X213389978Y-147166400D02*
X212872822Y-147166400D01*
X210220779Y-139168600D02*
X209895221Y-139168600D01*
X210220779Y-138148600D02*
X209895221Y-138148600D01*
X189397421Y-138559000D02*
X189722979Y-138559000D01*
X189397421Y-137539000D02*
X189722979Y-137539000D01*
X185138600Y-130139221D02*
X185138600Y-130464779D01*
X186158600Y-130139221D02*
X186158600Y-130464779D01*
X182983000Y-139065000D02*
G75*
G03X182983000Y-139065000I-1500000J0D01*
G01*
X185065800Y-135864600D02*
G75*
G03X185065800Y-135864600I-1500000J0D01*
G01*
X215317200Y-138582400D02*
G75*
G03X215317200Y-138582400I-1500000J0D01*
G01*
X211516800Y-125669400D02*
X209716800Y-125669400D01*
X209716800Y-128889400D02*
X212166800Y-128889400D01*
X176596400Y-133186600D02*
X176596400Y-135636600D01*
X179816400Y-134986600D02*
X179816400Y-133186600D01*
X215491600Y-145115400D02*
X215491600Y-144185400D01*
X215491600Y-141955400D02*
X215491600Y-142885400D01*
X215491600Y-141955400D02*
X213331600Y-141955400D01*
X215491600Y-145115400D02*
X214031600Y-145115400D01*
X211034200Y-134254600D02*
X209234200Y-134254600D01*
X209234200Y-137474600D02*
X211684200Y-137474600D01*
X199471600Y-137629200D02*
X199471600Y-136839200D01*
X199651600Y-138269200D02*
X199651600Y-138489200D01*
X201871600Y-138269200D02*
X201871600Y-138489200D01*
X200261600Y-136839200D02*
X199471600Y-136839200D01*
X191099221Y-129538000D02*
X191424779Y-129538000D01*
X191099221Y-130558000D02*
X191424779Y-130558000D01*
D12*
X189565375Y-124618500D02*
X189565375Y-125428024D01*
X189612994Y-125523262D01*
X189660613Y-125570881D01*
X189755851Y-125618500D01*
X189946327Y-125618500D01*
X190041565Y-125570881D01*
X190089184Y-125523262D01*
X190136803Y-125428024D01*
X190136803Y-124618500D01*
X190755851Y-125047072D02*
X190660613Y-124999453D01*
X190612994Y-124951834D01*
X190565375Y-124856596D01*
X190565375Y-124808977D01*
X190612994Y-124713739D01*
X190660613Y-124666120D01*
X190755851Y-124618500D01*
X190946327Y-124618500D01*
X191041565Y-124666120D01*
X191089184Y-124713739D01*
X191136803Y-124808977D01*
X191136803Y-124856596D01*
X191089184Y-124951834D01*
X191041565Y-124999453D01*
X190946327Y-125047072D01*
X190755851Y-125047072D01*
X190660613Y-125094691D01*
X190612994Y-125142310D01*
X190565375Y-125237548D01*
X190565375Y-125428024D01*
X190612994Y-125523262D01*
X190660613Y-125570881D01*
X190755851Y-125618500D01*
X190946327Y-125618500D01*
X191041565Y-125570881D01*
X191089184Y-125523262D01*
X191136803Y-125428024D01*
X191136803Y-125237548D01*
X191089184Y-125142310D01*
X191041565Y-125094691D01*
X190946327Y-125047072D01*
X209727895Y-139152380D02*
X209727895Y-139961904D01*
X209775514Y-140057142D01*
X209823133Y-140104761D01*
X209918371Y-140152380D01*
X210108847Y-140152380D01*
X210204085Y-140104761D01*
X210251704Y-140057142D01*
X210299323Y-139961904D01*
X210299323Y-139152380D01*
X211251704Y-139152380D02*
X210775514Y-139152380D01*
X210727895Y-139628571D01*
X210775514Y-139580952D01*
X210870752Y-139533333D01*
X211108847Y-139533333D01*
X211204085Y-139580952D01*
X211251704Y-139628571D01*
X211299323Y-139723809D01*
X211299323Y-139961904D01*
X211251704Y-140057142D01*
X211204085Y-140104761D01*
X211108847Y-140152380D01*
X210870752Y-140152380D01*
X210775514Y-140104761D01*
X210727895Y-140057142D01*
X198760175Y-129713740D02*
X198760175Y-130523264D01*
X198807794Y-130618502D01*
X198855413Y-130666121D01*
X198950651Y-130713740D01*
X199141127Y-130713740D01*
X199236365Y-130666121D01*
X199283984Y-130618502D01*
X199331603Y-130523264D01*
X199331603Y-129713740D01*
X199712556Y-129713740D02*
X200379222Y-129713740D01*
X199950651Y-130713740D01*
X186404452Y-146432566D02*
X186880642Y-146432566D01*
X186309214Y-146718280D02*
X186642547Y-145718280D01*
X186975880Y-146718280D01*
X187309214Y-146718280D02*
X187309214Y-145718280D01*
X187880642Y-146718280D01*
X187880642Y-145718280D01*
X188213976Y-145718280D02*
X188785404Y-145718280D01*
X188499690Y-146718280D02*
X188499690Y-145718280D01*
X189642547Y-146718280D02*
X189071119Y-146718280D01*
X189356833Y-146718280D02*
X189356833Y-145718280D01*
X189261595Y-145861138D01*
X189166357Y-145956376D01*
X189071119Y-146003995D01*
X215860333Y-132716542D02*
X215812714Y-132764161D01*
X215669857Y-132811780D01*
X215574619Y-132811780D01*
X215431761Y-132764161D01*
X215336523Y-132668923D01*
X215288904Y-132573685D01*
X215241285Y-132383209D01*
X215241285Y-132240352D01*
X215288904Y-132049876D01*
X215336523Y-131954638D01*
X215431761Y-131859400D01*
X215574619Y-131811780D01*
X215669857Y-131811780D01*
X215812714Y-131859400D01*
X215860333Y-131907019D01*
X216812714Y-132811780D02*
X216241285Y-132811780D01*
X216527000Y-132811780D02*
X216527000Y-131811780D01*
X216431761Y-131954638D01*
X216336523Y-132049876D01*
X216241285Y-132097495D01*
X210475533Y-133239782D02*
X210427914Y-133287401D01*
X210285057Y-133335020D01*
X210189819Y-133335020D01*
X210046961Y-133287401D01*
X209951723Y-133192163D01*
X209904104Y-133096925D01*
X209856485Y-132906449D01*
X209856485Y-132763592D01*
X209904104Y-132573116D01*
X209951723Y-132477878D01*
X210046961Y-132382640D01*
X210189819Y-132335020D01*
X210285057Y-132335020D01*
X210427914Y-132382640D01*
X210475533Y-132430259D01*
X210856485Y-132430259D02*
X210904104Y-132382640D01*
X210999342Y-132335020D01*
X211237438Y-132335020D01*
X211332676Y-132382640D01*
X211380295Y-132430259D01*
X211427914Y-132525497D01*
X211427914Y-132620735D01*
X211380295Y-132763592D01*
X210808866Y-133335020D01*
X211427914Y-133335020D01*
X210572053Y-125020342D02*
X210524434Y-125067961D01*
X210381577Y-125115580D01*
X210286339Y-125115580D01*
X210143481Y-125067961D01*
X210048243Y-124972723D01*
X210000624Y-124877485D01*
X209953005Y-124687009D01*
X209953005Y-124544152D01*
X210000624Y-124353676D01*
X210048243Y-124258438D01*
X210143481Y-124163200D01*
X210286339Y-124115580D01*
X210381577Y-124115580D01*
X210524434Y-124163200D01*
X210572053Y-124210819D01*
X210905386Y-124115580D02*
X211524434Y-124115580D01*
X211191100Y-124496533D01*
X211333958Y-124496533D01*
X211429196Y-124544152D01*
X211476815Y-124591771D01*
X211524434Y-124687009D01*
X211524434Y-124925104D01*
X211476815Y-125020342D01*
X211429196Y-125067961D01*
X211333958Y-125115580D01*
X211048243Y-125115580D01*
X210953005Y-125067961D01*
X210905386Y-125020342D01*
X205359973Y-125685822D02*
X205312354Y-125733441D01*
X205169497Y-125781060D01*
X205074259Y-125781060D01*
X204931401Y-125733441D01*
X204836163Y-125638203D01*
X204788544Y-125542965D01*
X204740925Y-125352489D01*
X204740925Y-125209632D01*
X204788544Y-125019156D01*
X204836163Y-124923918D01*
X204931401Y-124828680D01*
X205074259Y-124781060D01*
X205169497Y-124781060D01*
X205312354Y-124828680D01*
X205359973Y-124876299D01*
X206217116Y-125114394D02*
X206217116Y-125781060D01*
X205979020Y-124733441D02*
X205740925Y-125447727D01*
X206359973Y-125447727D01*
X205248213Y-127484142D02*
X205200594Y-127531761D01*
X205057737Y-127579380D01*
X204962499Y-127579380D01*
X204819641Y-127531761D01*
X204724403Y-127436523D01*
X204676784Y-127341285D01*
X204629165Y-127150809D01*
X204629165Y-127007952D01*
X204676784Y-126817476D01*
X204724403Y-126722238D01*
X204819641Y-126627000D01*
X204962499Y-126579380D01*
X205057737Y-126579380D01*
X205200594Y-126627000D01*
X205248213Y-126674619D01*
X206152975Y-126579380D02*
X205676784Y-126579380D01*
X205629165Y-127055571D01*
X205676784Y-127007952D01*
X205772022Y-126960333D01*
X206010118Y-126960333D01*
X206105356Y-127007952D01*
X206152975Y-127055571D01*
X206200594Y-127150809D01*
X206200594Y-127388904D01*
X206152975Y-127484142D01*
X206105356Y-127531761D01*
X206010118Y-127579380D01*
X205772022Y-127579380D01*
X205676784Y-127531761D01*
X205629165Y-127484142D01*
X205959413Y-148718542D02*
X205911794Y-148766161D01*
X205768937Y-148813780D01*
X205673699Y-148813780D01*
X205530841Y-148766161D01*
X205435603Y-148670923D01*
X205387984Y-148575685D01*
X205340365Y-148385209D01*
X205340365Y-148242352D01*
X205387984Y-148051876D01*
X205435603Y-147956638D01*
X205530841Y-147861400D01*
X205673699Y-147813780D01*
X205768937Y-147813780D01*
X205911794Y-147861400D01*
X205959413Y-147909019D01*
X206816556Y-147813780D02*
X206626080Y-147813780D01*
X206530841Y-147861400D01*
X206483222Y-147909019D01*
X206387984Y-148051876D01*
X206340365Y-148242352D01*
X206340365Y-148623304D01*
X206387984Y-148718542D01*
X206435603Y-148766161D01*
X206530841Y-148813780D01*
X206721318Y-148813780D01*
X206816556Y-148766161D01*
X206864175Y-148718542D01*
X206911794Y-148623304D01*
X206911794Y-148385209D01*
X206864175Y-148289971D01*
X206816556Y-148242352D01*
X206721318Y-148194733D01*
X206530841Y-148194733D01*
X206435603Y-148242352D01*
X206387984Y-148289971D01*
X206340365Y-148385209D01*
X206289613Y-139701542D02*
X206241994Y-139749161D01*
X206099137Y-139796780D01*
X206003899Y-139796780D01*
X205861041Y-139749161D01*
X205765803Y-139653923D01*
X205718184Y-139558685D01*
X205670565Y-139368209D01*
X205670565Y-139225352D01*
X205718184Y-139034876D01*
X205765803Y-138939638D01*
X205861041Y-138844400D01*
X206003899Y-138796780D01*
X206099137Y-138796780D01*
X206241994Y-138844400D01*
X206289613Y-138892019D01*
X206622946Y-138796780D02*
X207289613Y-138796780D01*
X206861041Y-139796780D01*
X216500982Y-140957537D02*
X216548601Y-141005156D01*
X216596220Y-141148013D01*
X216596220Y-141243251D01*
X216548601Y-141386108D01*
X216453363Y-141481346D01*
X216358125Y-141528965D01*
X216167649Y-141576584D01*
X216024792Y-141576584D01*
X215834316Y-141528965D01*
X215739078Y-141481346D01*
X215643840Y-141386108D01*
X215596220Y-141243251D01*
X215596220Y-141148013D01*
X215643840Y-141005156D01*
X215691459Y-140957537D01*
X216596220Y-140005156D02*
X216596220Y-140576584D01*
X216596220Y-140290870D02*
X215596220Y-140290870D01*
X215739078Y-140386108D01*
X215834316Y-140481346D01*
X215881935Y-140576584D01*
X216596220Y-139052775D02*
X216596220Y-139624203D01*
X216596220Y-139338489D02*
X215596220Y-139338489D01*
X215739078Y-139433727D01*
X215834316Y-139528965D01*
X215881935Y-139624203D01*
X203912742Y-145930857D02*
X203960361Y-145978476D01*
X204007980Y-146121333D01*
X204007980Y-146216571D01*
X203960361Y-146359428D01*
X203865123Y-146454666D01*
X203769885Y-146502285D01*
X203579409Y-146549904D01*
X203436552Y-146549904D01*
X203246076Y-146502285D01*
X203150838Y-146454666D01*
X203055600Y-146359428D01*
X203007980Y-146216571D01*
X203007980Y-146121333D01*
X203055600Y-145978476D01*
X203103219Y-145930857D01*
X204007980Y-144978476D02*
X204007980Y-145549904D01*
X204007980Y-145264190D02*
X203007980Y-145264190D01*
X203150838Y-145359428D01*
X203246076Y-145454666D01*
X203293695Y-145549904D01*
X203103219Y-144597523D02*
X203055600Y-144549904D01*
X203007980Y-144454666D01*
X203007980Y-144216571D01*
X203055600Y-144121333D01*
X203103219Y-144073714D01*
X203198457Y-144026095D01*
X203293695Y-144026095D01*
X203436552Y-144073714D01*
X204007980Y-144645142D01*
X204007980Y-144026095D01*
X203887342Y-143009857D02*
X203934961Y-143057476D01*
X203982580Y-143200333D01*
X203982580Y-143295571D01*
X203934961Y-143438428D01*
X203839723Y-143533666D01*
X203744485Y-143581285D01*
X203554009Y-143628904D01*
X203411152Y-143628904D01*
X203220676Y-143581285D01*
X203125438Y-143533666D01*
X203030200Y-143438428D01*
X202982580Y-143295571D01*
X202982580Y-143200333D01*
X203030200Y-143057476D01*
X203077819Y-143009857D01*
X203982580Y-142057476D02*
X203982580Y-142628904D01*
X203982580Y-142343190D02*
X202982580Y-142343190D01*
X203125438Y-142438428D01*
X203220676Y-142533666D01*
X203268295Y-142628904D01*
X202982580Y-141724142D02*
X202982580Y-141105095D01*
X203363533Y-141438428D01*
X203363533Y-141295571D01*
X203411152Y-141200333D01*
X203458771Y-141152714D01*
X203554009Y-141105095D01*
X203792104Y-141105095D01*
X203887342Y-141152714D01*
X203934961Y-141200333D01*
X203982580Y-141295571D01*
X203982580Y-141581285D01*
X203934961Y-141676523D01*
X203887342Y-141724142D01*
X201880742Y-148033977D02*
X201928361Y-148081596D01*
X201975980Y-148224453D01*
X201975980Y-148319691D01*
X201928361Y-148462548D01*
X201833123Y-148557786D01*
X201737885Y-148605405D01*
X201547409Y-148653024D01*
X201404552Y-148653024D01*
X201214076Y-148605405D01*
X201118838Y-148557786D01*
X201023600Y-148462548D01*
X200975980Y-148319691D01*
X200975980Y-148224453D01*
X201023600Y-148081596D01*
X201071219Y-148033977D01*
X201975980Y-147081596D02*
X201975980Y-147653024D01*
X201975980Y-147367310D02*
X200975980Y-147367310D01*
X201118838Y-147462548D01*
X201214076Y-147557786D01*
X201261695Y-147653024D01*
X200975980Y-146748262D02*
X200975980Y-146081596D01*
X201975980Y-146510167D01*
X201840102Y-144813257D02*
X201887721Y-144860876D01*
X201935340Y-145003733D01*
X201935340Y-145098971D01*
X201887721Y-145241828D01*
X201792483Y-145337066D01*
X201697245Y-145384685D01*
X201506769Y-145432304D01*
X201363912Y-145432304D01*
X201173436Y-145384685D01*
X201078198Y-145337066D01*
X200982960Y-145241828D01*
X200935340Y-145098971D01*
X200935340Y-145003733D01*
X200982960Y-144860876D01*
X201030579Y-144813257D01*
X201935340Y-143860876D02*
X201935340Y-144432304D01*
X201935340Y-144146590D02*
X200935340Y-144146590D01*
X201078198Y-144241828D01*
X201173436Y-144337066D01*
X201221055Y-144432304D01*
X201363912Y-143289447D02*
X201316293Y-143384685D01*
X201268674Y-143432304D01*
X201173436Y-143479923D01*
X201125817Y-143479923D01*
X201030579Y-143432304D01*
X200982960Y-143384685D01*
X200935340Y-143289447D01*
X200935340Y-143098971D01*
X200982960Y-143003733D01*
X201030579Y-142956114D01*
X201125817Y-142908495D01*
X201173436Y-142908495D01*
X201268674Y-142956114D01*
X201316293Y-143003733D01*
X201363912Y-143098971D01*
X201363912Y-143289447D01*
X201411531Y-143384685D01*
X201459150Y-143432304D01*
X201554388Y-143479923D01*
X201744864Y-143479923D01*
X201840102Y-143432304D01*
X201887721Y-143384685D01*
X201935340Y-143289447D01*
X201935340Y-143098971D01*
X201887721Y-143003733D01*
X201840102Y-142956114D01*
X201744864Y-142908495D01*
X201554388Y-142908495D01*
X201459150Y-142956114D01*
X201411531Y-143003733D01*
X201363912Y-143098971D01*
X191904382Y-143648702D02*
X191856763Y-143696321D01*
X191713906Y-143743940D01*
X191618668Y-143743940D01*
X191475811Y-143696321D01*
X191380573Y-143601083D01*
X191332954Y-143505845D01*
X191285335Y-143315369D01*
X191285335Y-143172512D01*
X191332954Y-142982036D01*
X191380573Y-142886798D01*
X191475811Y-142791560D01*
X191618668Y-142743940D01*
X191713906Y-142743940D01*
X191856763Y-142791560D01*
X191904382Y-142839179D01*
X192856763Y-143743940D02*
X192285335Y-143743940D01*
X192571049Y-143743940D02*
X192571049Y-142743940D01*
X192475811Y-142886798D01*
X192380573Y-142982036D01*
X192285335Y-143029655D01*
X193332954Y-143743940D02*
X193523430Y-143743940D01*
X193618668Y-143696321D01*
X193666287Y-143648702D01*
X193761525Y-143505845D01*
X193809144Y-143315369D01*
X193809144Y-142934417D01*
X193761525Y-142839179D01*
X193713906Y-142791560D01*
X193618668Y-142743940D01*
X193428192Y-142743940D01*
X193332954Y-142791560D01*
X193285335Y-142839179D01*
X193237716Y-142934417D01*
X193237716Y-143172512D01*
X193285335Y-143267750D01*
X193332954Y-143315369D01*
X193428192Y-143362988D01*
X193618668Y-143362988D01*
X193713906Y-143315369D01*
X193761525Y-143267750D01*
X193809144Y-143172512D01*
X188992782Y-142471377D02*
X189040401Y-142518996D01*
X189088020Y-142661853D01*
X189088020Y-142757091D01*
X189040401Y-142899948D01*
X188945163Y-142995186D01*
X188849925Y-143042805D01*
X188659449Y-143090424D01*
X188516592Y-143090424D01*
X188326116Y-143042805D01*
X188230878Y-142995186D01*
X188135640Y-142899948D01*
X188088020Y-142757091D01*
X188088020Y-142661853D01*
X188135640Y-142518996D01*
X188183259Y-142471377D01*
X188183259Y-142090424D02*
X188135640Y-142042805D01*
X188088020Y-141947567D01*
X188088020Y-141709472D01*
X188135640Y-141614234D01*
X188183259Y-141566615D01*
X188278497Y-141518996D01*
X188373735Y-141518996D01*
X188516592Y-141566615D01*
X189088020Y-142138043D01*
X189088020Y-141518996D01*
X188088020Y-140899948D02*
X188088020Y-140804710D01*
X188135640Y-140709472D01*
X188183259Y-140661853D01*
X188278497Y-140614234D01*
X188468973Y-140566615D01*
X188707068Y-140566615D01*
X188897544Y-140614234D01*
X188992782Y-140661853D01*
X189040401Y-140709472D01*
X189088020Y-140804710D01*
X189088020Y-140899948D01*
X189040401Y-140995186D01*
X188992782Y-141042805D01*
X188897544Y-141090424D01*
X188707068Y-141138043D01*
X188468973Y-141138043D01*
X188278497Y-141090424D01*
X188183259Y-141042805D01*
X188135640Y-140995186D01*
X188088020Y-140899948D01*
X201850262Y-141907497D02*
X201897881Y-141955116D01*
X201945500Y-142097973D01*
X201945500Y-142193211D01*
X201897881Y-142336068D01*
X201802643Y-142431306D01*
X201707405Y-142478925D01*
X201516929Y-142526544D01*
X201374072Y-142526544D01*
X201183596Y-142478925D01*
X201088358Y-142431306D01*
X200993120Y-142336068D01*
X200945500Y-142193211D01*
X200945500Y-142097973D01*
X200993120Y-141955116D01*
X201040739Y-141907497D01*
X201040739Y-141526544D02*
X200993120Y-141478925D01*
X200945500Y-141383687D01*
X200945500Y-141145592D01*
X200993120Y-141050354D01*
X201040739Y-141002735D01*
X201135977Y-140955116D01*
X201231215Y-140955116D01*
X201374072Y-141002735D01*
X201945500Y-141574163D01*
X201945500Y-140955116D01*
X201945500Y-140002735D02*
X201945500Y-140574163D01*
X201945500Y-140288449D02*
X200945500Y-140288449D01*
X201088358Y-140383687D01*
X201183596Y-140478925D01*
X201231215Y-140574163D01*
X203176902Y-136851662D02*
X203129283Y-136899281D01*
X202986426Y-136946900D01*
X202891188Y-136946900D01*
X202748331Y-136899281D01*
X202653093Y-136804043D01*
X202605474Y-136708805D01*
X202557855Y-136518329D01*
X202557855Y-136375472D01*
X202605474Y-136184996D01*
X202653093Y-136089758D01*
X202748331Y-135994520D01*
X202891188Y-135946900D01*
X202986426Y-135946900D01*
X203129283Y-135994520D01*
X203176902Y-136042139D01*
X203557855Y-136042139D02*
X203605474Y-135994520D01*
X203700712Y-135946900D01*
X203938807Y-135946900D01*
X204034045Y-135994520D01*
X204081664Y-136042139D01*
X204129283Y-136137377D01*
X204129283Y-136232615D01*
X204081664Y-136375472D01*
X203510236Y-136946900D01*
X204129283Y-136946900D01*
X204510236Y-136042139D02*
X204557855Y-135994520D01*
X204653093Y-135946900D01*
X204891188Y-135946900D01*
X204986426Y-135994520D01*
X205034045Y-136042139D01*
X205081664Y-136137377D01*
X205081664Y-136232615D01*
X205034045Y-136375472D01*
X204462617Y-136946900D01*
X205081664Y-136946900D01*
X195490102Y-140474937D02*
X195537721Y-140522556D01*
X195585340Y-140665413D01*
X195585340Y-140760651D01*
X195537721Y-140903508D01*
X195442483Y-140998746D01*
X195347245Y-141046365D01*
X195156769Y-141093984D01*
X195013912Y-141093984D01*
X194823436Y-141046365D01*
X194728198Y-140998746D01*
X194632960Y-140903508D01*
X194585340Y-140760651D01*
X194585340Y-140665413D01*
X194632960Y-140522556D01*
X194680579Y-140474937D01*
X194680579Y-140093984D02*
X194632960Y-140046365D01*
X194585340Y-139951127D01*
X194585340Y-139713032D01*
X194632960Y-139617794D01*
X194680579Y-139570175D01*
X194775817Y-139522556D01*
X194871055Y-139522556D01*
X195013912Y-139570175D01*
X195585340Y-140141603D01*
X195585340Y-139522556D01*
X194585340Y-139189222D02*
X194585340Y-138570175D01*
X194966293Y-138903508D01*
X194966293Y-138760651D01*
X195013912Y-138665413D01*
X195061531Y-138617794D01*
X195156769Y-138570175D01*
X195394864Y-138570175D01*
X195490102Y-138617794D01*
X195537721Y-138665413D01*
X195585340Y-138760651D01*
X195585340Y-139046365D01*
X195537721Y-139141603D01*
X195490102Y-139189222D01*
X201525902Y-133082302D02*
X201478283Y-133129921D01*
X201335426Y-133177540D01*
X201240188Y-133177540D01*
X201097331Y-133129921D01*
X201002093Y-133034683D01*
X200954474Y-132939445D01*
X200906855Y-132748969D01*
X200906855Y-132606112D01*
X200954474Y-132415636D01*
X201002093Y-132320398D01*
X201097331Y-132225160D01*
X201240188Y-132177540D01*
X201335426Y-132177540D01*
X201478283Y-132225160D01*
X201525902Y-132272779D01*
X201906855Y-132272779D02*
X201954474Y-132225160D01*
X202049712Y-132177540D01*
X202287807Y-132177540D01*
X202383045Y-132225160D01*
X202430664Y-132272779D01*
X202478283Y-132368017D01*
X202478283Y-132463255D01*
X202430664Y-132606112D01*
X201859236Y-133177540D01*
X202478283Y-133177540D01*
X203335426Y-132510874D02*
X203335426Y-133177540D01*
X203097331Y-132129921D02*
X202859236Y-132844207D01*
X203478283Y-132844207D01*
X197522862Y-127407942D02*
X197475243Y-127455561D01*
X197332386Y-127503180D01*
X197237148Y-127503180D01*
X197094291Y-127455561D01*
X196999053Y-127360323D01*
X196951434Y-127265085D01*
X196903815Y-127074609D01*
X196903815Y-126931752D01*
X196951434Y-126741276D01*
X196999053Y-126646038D01*
X197094291Y-126550800D01*
X197237148Y-126503180D01*
X197332386Y-126503180D01*
X197475243Y-126550800D01*
X197522862Y-126598419D01*
X197903815Y-126598419D02*
X197951434Y-126550800D01*
X198046672Y-126503180D01*
X198284767Y-126503180D01*
X198380005Y-126550800D01*
X198427624Y-126598419D01*
X198475243Y-126693657D01*
X198475243Y-126788895D01*
X198427624Y-126931752D01*
X197856196Y-127503180D01*
X198475243Y-127503180D01*
X199380005Y-126503180D02*
X198903815Y-126503180D01*
X198856196Y-126979371D01*
X198903815Y-126931752D01*
X198999053Y-126884133D01*
X199237148Y-126884133D01*
X199332386Y-126931752D01*
X199380005Y-126979371D01*
X199427624Y-127074609D01*
X199427624Y-127312704D01*
X199380005Y-127407942D01*
X199332386Y-127455561D01*
X199237148Y-127503180D01*
X198999053Y-127503180D01*
X198903815Y-127455561D01*
X198856196Y-127407942D01*
X199157862Y-149700217D02*
X199205481Y-149747836D01*
X199253100Y-149890693D01*
X199253100Y-149985931D01*
X199205481Y-150128788D01*
X199110243Y-150224026D01*
X199015005Y-150271645D01*
X198824529Y-150319264D01*
X198681672Y-150319264D01*
X198491196Y-150271645D01*
X198395958Y-150224026D01*
X198300720Y-150128788D01*
X198253100Y-149985931D01*
X198253100Y-149890693D01*
X198300720Y-149747836D01*
X198348339Y-149700217D01*
X198348339Y-149319264D02*
X198300720Y-149271645D01*
X198253100Y-149176407D01*
X198253100Y-148938312D01*
X198300720Y-148843074D01*
X198348339Y-148795455D01*
X198443577Y-148747836D01*
X198538815Y-148747836D01*
X198681672Y-148795455D01*
X199253100Y-149366883D01*
X199253100Y-148747836D01*
X198253100Y-147890693D02*
X198253100Y-148081169D01*
X198300720Y-148176407D01*
X198348339Y-148224026D01*
X198491196Y-148319264D01*
X198681672Y-148366883D01*
X199062624Y-148366883D01*
X199157862Y-148319264D01*
X199205481Y-148271645D01*
X199253100Y-148176407D01*
X199253100Y-147985931D01*
X199205481Y-147890693D01*
X199157862Y-147843074D01*
X199062624Y-147795455D01*
X198824529Y-147795455D01*
X198729291Y-147843074D01*
X198681672Y-147890693D01*
X198634053Y-147985931D01*
X198634053Y-148176407D01*
X198681672Y-148271645D01*
X198729291Y-148319264D01*
X198824529Y-148366883D01*
X197049662Y-149679897D02*
X197097281Y-149727516D01*
X197144900Y-149870373D01*
X197144900Y-149965611D01*
X197097281Y-150108468D01*
X197002043Y-150203706D01*
X196906805Y-150251325D01*
X196716329Y-150298944D01*
X196573472Y-150298944D01*
X196382996Y-150251325D01*
X196287758Y-150203706D01*
X196192520Y-150108468D01*
X196144900Y-149965611D01*
X196144900Y-149870373D01*
X196192520Y-149727516D01*
X196240139Y-149679897D01*
X196240139Y-149298944D02*
X196192520Y-149251325D01*
X196144900Y-149156087D01*
X196144900Y-148917992D01*
X196192520Y-148822754D01*
X196240139Y-148775135D01*
X196335377Y-148727516D01*
X196430615Y-148727516D01*
X196573472Y-148775135D01*
X197144900Y-149346563D01*
X197144900Y-148727516D01*
X196144900Y-148394182D02*
X196144900Y-147727516D01*
X197144900Y-148156087D01*
X188249820Y-127306295D02*
X187249820Y-127306295D01*
X187249820Y-127068200D01*
X187297440Y-126925342D01*
X187392678Y-126830104D01*
X187487916Y-126782485D01*
X187678392Y-126734866D01*
X187821249Y-126734866D01*
X188011725Y-126782485D01*
X188106963Y-126830104D01*
X188202201Y-126925342D01*
X188249820Y-127068200D01*
X188249820Y-127306295D01*
X188249820Y-125782485D02*
X188249820Y-126353914D01*
X188249820Y-126068200D02*
X187249820Y-126068200D01*
X187392678Y-126163438D01*
X187487916Y-126258676D01*
X187535535Y-126353914D01*
X221002266Y-129839411D02*
X220668933Y-129839411D01*
X220668933Y-130363220D02*
X220668933Y-129363220D01*
X221145123Y-129363220D01*
X222049885Y-130363220D02*
X221478457Y-130363220D01*
X221764171Y-130363220D02*
X221764171Y-129363220D01*
X221668933Y-129506078D01*
X221573695Y-129601316D01*
X221478457Y-129648935D01*
X214751706Y-130601411D02*
X214418373Y-130601411D01*
X214418373Y-131125220D02*
X214418373Y-130125220D01*
X214894563Y-130125220D01*
X215608849Y-130601411D02*
X215751706Y-130649030D01*
X215799325Y-130696649D01*
X215846944Y-130791887D01*
X215846944Y-130934744D01*
X215799325Y-131029982D01*
X215751706Y-131077601D01*
X215656468Y-131125220D01*
X215275516Y-131125220D01*
X215275516Y-130125220D01*
X215608849Y-130125220D01*
X215704087Y-130172840D01*
X215751706Y-130220459D01*
X215799325Y-130315697D01*
X215799325Y-130410935D01*
X215751706Y-130506173D01*
X215704087Y-130553792D01*
X215608849Y-130601411D01*
X215275516Y-130601411D01*
X216799325Y-131125220D02*
X216227897Y-131125220D01*
X216513611Y-131125220D02*
X216513611Y-130125220D01*
X216418373Y-130268078D01*
X216323135Y-130363316D01*
X216227897Y-130410935D01*
X208747146Y-148218851D02*
X208413813Y-148218851D01*
X208413813Y-148742660D02*
X208413813Y-147742660D01*
X208890003Y-147742660D01*
X209604289Y-148218851D02*
X209747146Y-148266470D01*
X209794765Y-148314089D01*
X209842384Y-148409327D01*
X209842384Y-148552184D01*
X209794765Y-148647422D01*
X209747146Y-148695041D01*
X209651908Y-148742660D01*
X209270956Y-148742660D01*
X209270956Y-147742660D01*
X209604289Y-147742660D01*
X209699527Y-147790280D01*
X209747146Y-147837899D01*
X209794765Y-147933137D01*
X209794765Y-148028375D01*
X209747146Y-148123613D01*
X209699527Y-148171232D01*
X209604289Y-148218851D01*
X209270956Y-148218851D01*
X210223337Y-147837899D02*
X210270956Y-147790280D01*
X210366194Y-147742660D01*
X210604289Y-147742660D01*
X210699527Y-147790280D01*
X210747146Y-147837899D01*
X210794765Y-147933137D01*
X210794765Y-148028375D01*
X210747146Y-148171232D01*
X210175718Y-148742660D01*
X210794765Y-148742660D01*
X179915226Y-121712740D02*
X179915226Y-122427026D01*
X179867607Y-122569883D01*
X179772369Y-122665121D01*
X179629512Y-122712740D01*
X179534274Y-122712740D01*
X180343798Y-121807979D02*
X180391417Y-121760360D01*
X180486655Y-121712740D01*
X180724750Y-121712740D01*
X180819988Y-121760360D01*
X180867607Y-121807979D01*
X180915226Y-121903217D01*
X180915226Y-121998455D01*
X180867607Y-122141312D01*
X180296179Y-122712740D01*
X180915226Y-122712740D01*
X172854026Y-129292100D02*
X172854026Y-130006386D01*
X172806407Y-130149243D01*
X172711169Y-130244481D01*
X172568312Y-130292100D01*
X172473074Y-130292100D01*
X173234979Y-129292100D02*
X173854026Y-129292100D01*
X173520693Y-129673053D01*
X173663550Y-129673053D01*
X173758788Y-129720672D01*
X173806407Y-129768291D01*
X173854026Y-129863529D01*
X173854026Y-130101624D01*
X173806407Y-130196862D01*
X173758788Y-130244481D01*
X173663550Y-130292100D01*
X173377836Y-130292100D01*
X173282598Y-130244481D01*
X173234979Y-130196862D01*
X220920986Y-132589020D02*
X220920986Y-133303306D01*
X220873367Y-133446163D01*
X220778129Y-133541401D01*
X220635272Y-133589020D01*
X220540034Y-133589020D01*
X221825748Y-132922354D02*
X221825748Y-133589020D01*
X221587653Y-132541401D02*
X221349558Y-133255687D01*
X221968605Y-133255687D01*
X195601293Y-146456660D02*
X195125102Y-146456660D01*
X195125102Y-145456660D01*
X196458436Y-146456660D02*
X195887007Y-146456660D01*
X196172721Y-146456660D02*
X196172721Y-145456660D01*
X196077483Y-145599518D01*
X195982245Y-145694756D01*
X195887007Y-145742375D01*
X191744860Y-141979946D02*
X191744860Y-142456137D01*
X190744860Y-142456137D01*
X190840099Y-141694232D02*
X190792480Y-141646613D01*
X190744860Y-141551375D01*
X190744860Y-141313280D01*
X190792480Y-141218041D01*
X190840099Y-141170422D01*
X190935337Y-141122803D01*
X191030575Y-141122803D01*
X191173432Y-141170422D01*
X191744860Y-141741851D01*
X191744860Y-141122803D01*
X190474860Y-141995186D02*
X190474860Y-142471377D01*
X189474860Y-142471377D01*
X189474860Y-141757091D02*
X189474860Y-141138043D01*
X189855813Y-141471377D01*
X189855813Y-141328520D01*
X189903432Y-141233281D01*
X189951051Y-141185662D01*
X190046289Y-141138043D01*
X190284384Y-141138043D01*
X190379622Y-141185662D01*
X190427241Y-141233281D01*
X190474860Y-141328520D01*
X190474860Y-141614234D01*
X190427241Y-141709472D01*
X190379622Y-141757091D01*
X221296241Y-127928619D02*
X221201003Y-127881000D01*
X221105765Y-127785761D01*
X220962908Y-127642904D01*
X220867670Y-127595285D01*
X220772432Y-127595285D01*
X220820051Y-127833380D02*
X220724813Y-127785761D01*
X220629575Y-127690523D01*
X220581956Y-127500047D01*
X220581956Y-127166714D01*
X220629575Y-126976238D01*
X220724813Y-126881000D01*
X220820051Y-126833380D01*
X221010527Y-126833380D01*
X221105765Y-126881000D01*
X221201003Y-126976238D01*
X221248622Y-127166714D01*
X221248622Y-127500047D01*
X221201003Y-127690523D01*
X221105765Y-127785761D01*
X221010527Y-127833380D01*
X220820051Y-127833380D01*
X222201003Y-127833380D02*
X221629575Y-127833380D01*
X221915289Y-127833380D02*
X221915289Y-126833380D01*
X221820051Y-126976238D01*
X221724813Y-127071476D01*
X221629575Y-127119095D01*
X214844333Y-125191780D02*
X214511000Y-124715590D01*
X214272904Y-125191780D02*
X214272904Y-124191780D01*
X214653857Y-124191780D01*
X214749095Y-124239400D01*
X214796714Y-124287019D01*
X214844333Y-124382257D01*
X214844333Y-124525114D01*
X214796714Y-124620352D01*
X214749095Y-124667971D01*
X214653857Y-124715590D01*
X214272904Y-124715590D01*
X215796714Y-125191780D02*
X215225285Y-125191780D01*
X215511000Y-125191780D02*
X215511000Y-124191780D01*
X215415761Y-124334638D01*
X215320523Y-124429876D01*
X215225285Y-124477495D01*
X182515213Y-133248660D02*
X182181880Y-132772470D01*
X181943784Y-133248660D02*
X181943784Y-132248660D01*
X182324737Y-132248660D01*
X182419975Y-132296280D01*
X182467594Y-132343899D01*
X182515213Y-132439137D01*
X182515213Y-132581994D01*
X182467594Y-132677232D01*
X182419975Y-132724851D01*
X182324737Y-132772470D01*
X181943784Y-132772470D01*
X183372356Y-132581994D02*
X183372356Y-133248660D01*
X183134260Y-132201041D02*
X182896165Y-132915327D01*
X183515213Y-132915327D01*
X212964733Y-148813780D02*
X212631400Y-148337590D01*
X212393304Y-148813780D02*
X212393304Y-147813780D01*
X212774257Y-147813780D01*
X212869495Y-147861400D01*
X212917114Y-147909019D01*
X212964733Y-148004257D01*
X212964733Y-148147114D01*
X212917114Y-148242352D01*
X212869495Y-148289971D01*
X212774257Y-148337590D01*
X212393304Y-148337590D01*
X213536161Y-148242352D02*
X213440923Y-148194733D01*
X213393304Y-148147114D01*
X213345685Y-148051876D01*
X213345685Y-148004257D01*
X213393304Y-147909019D01*
X213440923Y-147861400D01*
X213536161Y-147813780D01*
X213726638Y-147813780D01*
X213821876Y-147861400D01*
X213869495Y-147909019D01*
X213917114Y-148004257D01*
X213917114Y-148051876D01*
X213869495Y-148147114D01*
X213821876Y-148194733D01*
X213726638Y-148242352D01*
X213536161Y-148242352D01*
X213440923Y-148289971D01*
X213393304Y-148337590D01*
X213345685Y-148432828D01*
X213345685Y-148623304D01*
X213393304Y-148718542D01*
X213440923Y-148766161D01*
X213536161Y-148813780D01*
X213726638Y-148813780D01*
X213821876Y-148766161D01*
X213869495Y-148718542D01*
X213917114Y-148623304D01*
X213917114Y-148432828D01*
X213869495Y-148337590D01*
X213821876Y-148289971D01*
X213726638Y-148242352D01*
X209415142Y-140540980D02*
X209081809Y-140064790D01*
X208843714Y-140540980D02*
X208843714Y-139540980D01*
X209224666Y-139540980D01*
X209319904Y-139588600D01*
X209367523Y-139636219D01*
X209415142Y-139731457D01*
X209415142Y-139874314D01*
X209367523Y-139969552D01*
X209319904Y-140017171D01*
X209224666Y-140064790D01*
X208843714Y-140064790D01*
X210367523Y-140540980D02*
X209796095Y-140540980D01*
X210081809Y-140540980D02*
X210081809Y-139540980D01*
X209986571Y-139683838D01*
X209891333Y-139779076D01*
X209796095Y-139826695D01*
X210986571Y-139540980D02*
X211081809Y-139540980D01*
X211177047Y-139588600D01*
X211224666Y-139636219D01*
X211272285Y-139731457D01*
X211319904Y-139921933D01*
X211319904Y-140160028D01*
X211272285Y-140350504D01*
X211224666Y-140445742D01*
X211177047Y-140493361D01*
X211081809Y-140540980D01*
X210986571Y-140540980D01*
X210891333Y-140493361D01*
X210843714Y-140445742D01*
X210796095Y-140350504D01*
X210748476Y-140160028D01*
X210748476Y-139921933D01*
X210796095Y-139731457D01*
X210843714Y-139636219D01*
X210891333Y-139588600D01*
X210986571Y-139540980D01*
X188876702Y-136967220D02*
X188543369Y-136491030D01*
X188305274Y-136967220D02*
X188305274Y-135967220D01*
X188686226Y-135967220D01*
X188781464Y-136014840D01*
X188829083Y-136062459D01*
X188876702Y-136157697D01*
X188876702Y-136300554D01*
X188829083Y-136395792D01*
X188781464Y-136443411D01*
X188686226Y-136491030D01*
X188305274Y-136491030D01*
X189829083Y-136967220D02*
X189257655Y-136967220D01*
X189543369Y-136967220D02*
X189543369Y-135967220D01*
X189448131Y-136110078D01*
X189352893Y-136205316D01*
X189257655Y-136252935D01*
X190781464Y-136967220D02*
X190210036Y-136967220D01*
X190495750Y-136967220D02*
X190495750Y-135967220D01*
X190400512Y-136110078D01*
X190305274Y-136205316D01*
X190210036Y-136252935D01*
X188483500Y-132321537D02*
X188007310Y-132654870D01*
X188483500Y-132892965D02*
X187483500Y-132892965D01*
X187483500Y-132512013D01*
X187531120Y-132416775D01*
X187578739Y-132369156D01*
X187673977Y-132321537D01*
X187816834Y-132321537D01*
X187912072Y-132369156D01*
X187959691Y-132416775D01*
X188007310Y-132512013D01*
X188007310Y-132892965D01*
X188483500Y-131369156D02*
X188483500Y-131940584D01*
X188483500Y-131654870D02*
X187483500Y-131654870D01*
X187626358Y-131750108D01*
X187721596Y-131845346D01*
X187769215Y-131940584D01*
X187578739Y-130988203D02*
X187531120Y-130940584D01*
X187483500Y-130845346D01*
X187483500Y-130607251D01*
X187531120Y-130512013D01*
X187578739Y-130464394D01*
X187673977Y-130416775D01*
X187769215Y-130416775D01*
X187912072Y-130464394D01*
X188483500Y-131035822D01*
X188483500Y-130416775D01*
X180591935Y-141245340D02*
X181163363Y-141245340D01*
X180877649Y-142245340D02*
X180877649Y-141245340D01*
X181496697Y-142245340D02*
X181496697Y-141245340D01*
X181877649Y-141245340D01*
X181972887Y-141292960D01*
X182020506Y-141340579D01*
X182068125Y-141435817D01*
X182068125Y-141578674D01*
X182020506Y-141673912D01*
X181972887Y-141721531D01*
X181877649Y-141769150D01*
X181496697Y-141769150D01*
X183020506Y-142245340D02*
X182449078Y-142245340D01*
X182734792Y-142245340D02*
X182734792Y-141245340D01*
X182639554Y-141388198D01*
X182544316Y-141483436D01*
X182449078Y-141531055D01*
X185224895Y-134427980D02*
X185796323Y-134427980D01*
X185510609Y-135427980D02*
X185510609Y-134427980D01*
X186129657Y-135427980D02*
X186129657Y-134427980D01*
X186510609Y-134427980D01*
X186605847Y-134475600D01*
X186653466Y-134523219D01*
X186701085Y-134618457D01*
X186701085Y-134761314D01*
X186653466Y-134856552D01*
X186605847Y-134904171D01*
X186510609Y-134951790D01*
X186129657Y-134951790D01*
X187082038Y-134523219D02*
X187129657Y-134475600D01*
X187224895Y-134427980D01*
X187462990Y-134427980D01*
X187558228Y-134475600D01*
X187605847Y-134523219D01*
X187653466Y-134618457D01*
X187653466Y-134713695D01*
X187605847Y-134856552D01*
X187034419Y-135427980D01*
X187653466Y-135427980D01*
X214236775Y-135672580D02*
X214808203Y-135672580D01*
X214522489Y-136672580D02*
X214522489Y-135672580D01*
X215141537Y-136672580D02*
X215141537Y-135672580D01*
X215522489Y-135672580D01*
X215617727Y-135720200D01*
X215665346Y-135767819D01*
X215712965Y-135863057D01*
X215712965Y-136005914D01*
X215665346Y-136101152D01*
X215617727Y-136148771D01*
X215522489Y-136196390D01*
X215141537Y-136196390D01*
X216046299Y-135672580D02*
X216665346Y-135672580D01*
X216332013Y-136053533D01*
X216474870Y-136053533D01*
X216570108Y-136101152D01*
X216617727Y-136148771D01*
X216665346Y-136244009D01*
X216665346Y-136482104D01*
X216617727Y-136577342D01*
X216570108Y-136624961D01*
X216474870Y-136672580D01*
X216189156Y-136672580D01*
X216093918Y-136624961D01*
X216046299Y-136577342D01*
X210032695Y-122698260D02*
X210032695Y-123507784D01*
X210080314Y-123603022D01*
X210127933Y-123650641D01*
X210223171Y-123698260D01*
X210413647Y-123698260D01*
X210508885Y-123650641D01*
X210556504Y-123603022D01*
X210604123Y-123507784D01*
X210604123Y-122698260D01*
X211604123Y-123698260D02*
X211032695Y-123698260D01*
X211318409Y-123698260D02*
X211318409Y-122698260D01*
X211223171Y-122841118D01*
X211127933Y-122936356D01*
X211032695Y-122983975D01*
X178038855Y-130892300D02*
X178038855Y-131701824D01*
X178086474Y-131797062D01*
X178134093Y-131844681D01*
X178229331Y-131892300D01*
X178419807Y-131892300D01*
X178515045Y-131844681D01*
X178562664Y-131797062D01*
X178610283Y-131701824D01*
X178610283Y-130892300D01*
X178991236Y-130892300D02*
X179610283Y-130892300D01*
X179276950Y-131273253D01*
X179419807Y-131273253D01*
X179515045Y-131320872D01*
X179562664Y-131368491D01*
X179610283Y-131463729D01*
X179610283Y-131701824D01*
X179562664Y-131797062D01*
X179515045Y-131844681D01*
X179419807Y-131892300D01*
X179134093Y-131892300D01*
X179038855Y-131844681D01*
X178991236Y-131797062D01*
X211236655Y-144293340D02*
X211236655Y-145102864D01*
X211284274Y-145198102D01*
X211331893Y-145245721D01*
X211427131Y-145293340D01*
X211617607Y-145293340D01*
X211712845Y-145245721D01*
X211760464Y-145198102D01*
X211808083Y-145102864D01*
X211808083Y-144293340D01*
X212712845Y-144626674D02*
X212712845Y-145293340D01*
X212474750Y-144245721D02*
X212236655Y-144960007D01*
X212855702Y-144960007D01*
X212303455Y-134270500D02*
X212303455Y-135080024D01*
X212351074Y-135175262D01*
X212398693Y-135222881D01*
X212493931Y-135270500D01*
X212684407Y-135270500D01*
X212779645Y-135222881D01*
X212827264Y-135175262D01*
X212874883Y-135080024D01*
X212874883Y-134270500D01*
X213779645Y-134270500D02*
X213589169Y-134270500D01*
X213493931Y-134318120D01*
X213446312Y-134365739D01*
X213351074Y-134508596D01*
X213303455Y-134699072D01*
X213303455Y-135080024D01*
X213351074Y-135175262D01*
X213398693Y-135222881D01*
X213493931Y-135270500D01*
X213684407Y-135270500D01*
X213779645Y-135222881D01*
X213827264Y-135175262D01*
X213874883Y-135080024D01*
X213874883Y-134841929D01*
X213827264Y-134746691D01*
X213779645Y-134699072D01*
X213684407Y-134651453D01*
X213493931Y-134651453D01*
X213398693Y-134699072D01*
X213351074Y-134746691D01*
X213303455Y-134841929D01*
X202876209Y-138497630D02*
X202876209Y-138973820D01*
X202542876Y-137973820D02*
X202876209Y-138497630D01*
X203209542Y-137973820D01*
X204066685Y-138973820D02*
X203495257Y-138973820D01*
X203780971Y-138973820D02*
X203780971Y-137973820D01*
X203685733Y-138116678D01*
X203590495Y-138211916D01*
X203495257Y-138259535D01*
X193469022Y-129353582D02*
X193421403Y-129401201D01*
X193278546Y-129448820D01*
X193183308Y-129448820D01*
X193040451Y-129401201D01*
X192945213Y-129305963D01*
X192897594Y-129210725D01*
X192849975Y-129020249D01*
X192849975Y-128877392D01*
X192897594Y-128686916D01*
X192945213Y-128591678D01*
X193040451Y-128496440D01*
X193183308Y-128448820D01*
X193278546Y-128448820D01*
X193421403Y-128496440D01*
X193469022Y-128544059D01*
X193849975Y-128544059D02*
X193897594Y-128496440D01*
X193992832Y-128448820D01*
X194230927Y-128448820D01*
X194326165Y-128496440D01*
X194373784Y-128544059D01*
X194421403Y-128639297D01*
X194421403Y-128734535D01*
X194373784Y-128877392D01*
X193802356Y-129448820D01*
X194421403Y-129448820D01*
X194992832Y-128877392D02*
X194897594Y-128829773D01*
X194849975Y-128782154D01*
X194802356Y-128686916D01*
X194802356Y-128639297D01*
X194849975Y-128544059D01*
X194897594Y-128496440D01*
X194992832Y-128448820D01*
X195183308Y-128448820D01*
X195278546Y-128496440D01*
X195326165Y-128544059D01*
X195373784Y-128639297D01*
X195373784Y-128686916D01*
X195326165Y-128782154D01*
X195278546Y-128829773D01*
X195183308Y-128877392D01*
X194992832Y-128877392D01*
X194897594Y-128925011D01*
X194849975Y-128972630D01*
X194802356Y-129067868D01*
X194802356Y-129258344D01*
X194849975Y-129353582D01*
X194897594Y-129401201D01*
X194992832Y-129448820D01*
X195183308Y-129448820D01*
X195278546Y-129401201D01*
X195326165Y-129353582D01*
X195373784Y-129258344D01*
X195373784Y-129067868D01*
X195326165Y-128972630D01*
X195278546Y-128925011D01*
X195183308Y-128877392D01*
M02*
