G04 #@! TF.GenerationSoftware,KiCad,Pcbnew,5.1.4-3.fc30*
G04 #@! TF.CreationDate,2019-11-13T22:00:14+01:00*
G04 #@! TF.ProjectId,dpf_ressure_dumper,6470665f-7265-4737-9375-72655f64756d,rev?*
G04 #@! TF.SameCoordinates,Original*
G04 #@! TF.FileFunction,Legend,Bot*
G04 #@! TF.FilePolarity,Positive*
%FSLAX46Y46*%
G04 Gerber Fmt 4.6, Leading zero omitted, Abs format (unit mm)*
G04 Created by KiCad (PCBNEW 5.1.4-3.fc30) date 2019-11-13 22:00:14*
%MOMM*%
%LPD*%
G04 APERTURE LIST*
%ADD10C,0.120000*%
%ADD11C,0.160000*%
%ADD12C,0.150000*%
G04 APERTURE END LIST*
D10*
X185499280Y-136443939D02*
X185499280Y-136118381D01*
X186519280Y-136443939D02*
X186519280Y-136118381D01*
X175642200Y-129112778D02*
X175642200Y-128595622D01*
X177062200Y-129112778D02*
X177062200Y-128595622D01*
X177747200Y-128889979D02*
X177747200Y-128564421D01*
X178767200Y-128889979D02*
X178767200Y-128564421D01*
X174957200Y-128513621D02*
X174957200Y-128839179D01*
X173937200Y-128513621D02*
X173937200Y-128839179D01*
X176712378Y-142596800D02*
X176195222Y-142596800D01*
X176712378Y-144016800D02*
X176195222Y-144016800D01*
X179192422Y-130481000D02*
X179709578Y-130481000D01*
X179192422Y-131901000D02*
X179709578Y-131901000D01*
X179254333Y-132586000D02*
X179596867Y-132586000D01*
X179254333Y-133606000D02*
X179596867Y-133606000D01*
X185595800Y-127666933D02*
X185595800Y-128009467D01*
X186615800Y-127666933D02*
X186615800Y-128009467D01*
X184071800Y-127666933D02*
X184071800Y-128009467D01*
X185091800Y-127666933D02*
X185091800Y-128009467D01*
X188139800Y-127548421D02*
X188139800Y-127873979D01*
X187119800Y-127548421D02*
X187119800Y-127873979D01*
D11*
X188775000Y-138188000D02*
X203401000Y-138188000D01*
X203401000Y-138188000D02*
X203401000Y-123498000D01*
X188775000Y-123498000D02*
X188775000Y-138188000D01*
X188775000Y-123498000D02*
X203401000Y-123498000D01*
X190520000Y-123498000D02*
X190520000Y-123811000D01*
X190520000Y-123811000D02*
X199326000Y-123811000D01*
X199326000Y-123811000D02*
X199500000Y-123498000D01*
D10*
X205052200Y-143809600D02*
X203592200Y-143809600D01*
X205052200Y-146969600D02*
X202892200Y-146969600D01*
X205052200Y-146969600D02*
X205052200Y-146039600D01*
X205052200Y-143809600D02*
X205052200Y-144739600D01*
X205052200Y-140253600D02*
X205052200Y-141183600D01*
X205052200Y-143413600D02*
X205052200Y-142483600D01*
X205052200Y-143413600D02*
X202892200Y-143413600D01*
X205052200Y-140253600D02*
X203592200Y-140253600D01*
X178661600Y-140827979D02*
X178661600Y-140502421D01*
X179681600Y-140827979D02*
X179681600Y-140502421D01*
X177061400Y-140502421D02*
X177061400Y-140827979D01*
X178081400Y-140502421D02*
X178081400Y-140827979D01*
X200788200Y-145131022D02*
X200788200Y-145648178D01*
X202208200Y-145131022D02*
X202208200Y-145648178D01*
X200788200Y-141575022D02*
X200788200Y-142092178D01*
X202208200Y-141575022D02*
X202208200Y-142092178D01*
X206376200Y-145648178D02*
X206376200Y-145131022D01*
X207796200Y-145648178D02*
X207796200Y-145131022D01*
X206376200Y-141575022D02*
X206376200Y-142092178D01*
X207796200Y-141575022D02*
X207796200Y-142092178D01*
X176037600Y-137882200D02*
X176037600Y-136082200D01*
X179257600Y-136082200D02*
X179257600Y-138532200D01*
D12*
X176423011Y-124342946D02*
X176423011Y-124009613D01*
X176946820Y-124009613D02*
X175946820Y-124009613D01*
X175946820Y-124485803D01*
X176423011Y-125200089D02*
X176470630Y-125342946D01*
X176518249Y-125390565D01*
X176613487Y-125438184D01*
X176756344Y-125438184D01*
X176851582Y-125390565D01*
X176899201Y-125342946D01*
X176946820Y-125247708D01*
X176946820Y-124866756D01*
X175946820Y-124866756D01*
X175946820Y-125200089D01*
X175994440Y-125295327D01*
X176042059Y-125342946D01*
X176137297Y-125390565D01*
X176232535Y-125390565D01*
X176327773Y-125342946D01*
X176375392Y-125295327D01*
X176423011Y-125200089D01*
X176423011Y-124866756D01*
X175946820Y-125771518D02*
X175946820Y-126390565D01*
X176327773Y-126057232D01*
X176327773Y-126200089D01*
X176375392Y-126295327D01*
X176423011Y-126342946D01*
X176518249Y-126390565D01*
X176756344Y-126390565D01*
X176851582Y-126342946D01*
X176899201Y-126295327D01*
X176946820Y-126200089D01*
X176946820Y-125914375D01*
X176899201Y-125819137D01*
X176851582Y-125771518D01*
X178710862Y-124614702D02*
X178758481Y-124567083D01*
X178806100Y-124424226D01*
X178806100Y-124328988D01*
X178758481Y-124186131D01*
X178663243Y-124090893D01*
X178568005Y-124043274D01*
X178377529Y-123995655D01*
X178234672Y-123995655D01*
X178044196Y-124043274D01*
X177948958Y-124090893D01*
X177853720Y-124186131D01*
X177806100Y-124328988D01*
X177806100Y-124424226D01*
X177853720Y-124567083D01*
X177901339Y-124614702D01*
X177806100Y-124948036D02*
X177806100Y-125567083D01*
X178187053Y-125233750D01*
X178187053Y-125376607D01*
X178234672Y-125471845D01*
X178282291Y-125519464D01*
X178377529Y-125567083D01*
X178615624Y-125567083D01*
X178710862Y-125519464D01*
X178758481Y-125471845D01*
X178806100Y-125376607D01*
X178806100Y-125090893D01*
X178758481Y-124995655D01*
X178710862Y-124948036D01*
X177806100Y-126186131D02*
X177806100Y-126281369D01*
X177853720Y-126376607D01*
X177901339Y-126424226D01*
X177996577Y-126471845D01*
X178187053Y-126519464D01*
X178425148Y-126519464D01*
X178615624Y-126471845D01*
X178710862Y-126424226D01*
X178758481Y-126376607D01*
X178806100Y-126281369D01*
X178806100Y-126186131D01*
X178758481Y-126090893D01*
X178710862Y-126043274D01*
X178615624Y-125995655D01*
X178425148Y-125948036D01*
X178187053Y-125948036D01*
X177996577Y-125995655D01*
X177901339Y-126043274D01*
X177853720Y-126090893D01*
X177806100Y-126186131D01*
X173374342Y-128033542D02*
X173421961Y-127985923D01*
X173469580Y-127843066D01*
X173469580Y-127747828D01*
X173421961Y-127604971D01*
X173326723Y-127509733D01*
X173231485Y-127462114D01*
X173041009Y-127414495D01*
X172898152Y-127414495D01*
X172707676Y-127462114D01*
X172612438Y-127509733D01*
X172517200Y-127604971D01*
X172469580Y-127747828D01*
X172469580Y-127843066D01*
X172517200Y-127985923D01*
X172564819Y-128033542D01*
X172564819Y-128414495D02*
X172517200Y-128462114D01*
X172469580Y-128557352D01*
X172469580Y-128795447D01*
X172517200Y-128890685D01*
X172564819Y-128938304D01*
X172660057Y-128985923D01*
X172755295Y-128985923D01*
X172898152Y-128938304D01*
X173469580Y-128366876D01*
X173469580Y-128985923D01*
X173469580Y-129462114D02*
X173469580Y-129652590D01*
X173421961Y-129747828D01*
X173374342Y-129795447D01*
X173231485Y-129890685D01*
X173041009Y-129938304D01*
X172660057Y-129938304D01*
X172564819Y-129890685D01*
X172517200Y-129843066D01*
X172469580Y-129747828D01*
X172469580Y-129557352D01*
X172517200Y-129462114D01*
X172564819Y-129414495D01*
X172660057Y-129366876D01*
X172898152Y-129366876D01*
X172993390Y-129414495D01*
X173041009Y-129462114D01*
X173088628Y-129557352D01*
X173088628Y-129747828D01*
X173041009Y-129843066D01*
X172993390Y-129890685D01*
X172898152Y-129938304D01*
X173851866Y-143719822D02*
X173899485Y-143767441D01*
X174042342Y-143815060D01*
X174137580Y-143815060D01*
X174280438Y-143767441D01*
X174375676Y-143672203D01*
X174423295Y-143576965D01*
X174470914Y-143386489D01*
X174470914Y-143243632D01*
X174423295Y-143053156D01*
X174375676Y-142957918D01*
X174280438Y-142862680D01*
X174137580Y-142815060D01*
X174042342Y-142815060D01*
X173899485Y-142862680D01*
X173851866Y-142910299D01*
X173280438Y-143243632D02*
X173375676Y-143196013D01*
X173423295Y-143148394D01*
X173470914Y-143053156D01*
X173470914Y-143005537D01*
X173423295Y-142910299D01*
X173375676Y-142862680D01*
X173280438Y-142815060D01*
X173089961Y-142815060D01*
X172994723Y-142862680D01*
X172947104Y-142910299D01*
X172899485Y-143005537D01*
X172899485Y-143053156D01*
X172947104Y-143148394D01*
X172994723Y-143196013D01*
X173089961Y-143243632D01*
X173280438Y-143243632D01*
X173375676Y-143291251D01*
X173423295Y-143338870D01*
X173470914Y-143434108D01*
X173470914Y-143624584D01*
X173423295Y-143719822D01*
X173375676Y-143767441D01*
X173280438Y-143815060D01*
X173089961Y-143815060D01*
X172994723Y-143767441D01*
X172947104Y-143719822D01*
X172899485Y-143624584D01*
X172899485Y-143434108D01*
X172947104Y-143338870D01*
X172994723Y-143291251D01*
X173089961Y-143243632D01*
X182411666Y-131517662D02*
X182459285Y-131565281D01*
X182602142Y-131612900D01*
X182697380Y-131612900D01*
X182840238Y-131565281D01*
X182935476Y-131470043D01*
X182983095Y-131374805D01*
X183030714Y-131184329D01*
X183030714Y-131041472D01*
X182983095Y-130850996D01*
X182935476Y-130755758D01*
X182840238Y-130660520D01*
X182697380Y-130612900D01*
X182602142Y-130612900D01*
X182459285Y-130660520D01*
X182411666Y-130708139D01*
X181935476Y-131612900D02*
X181745000Y-131612900D01*
X181649761Y-131565281D01*
X181602142Y-131517662D01*
X181506904Y-131374805D01*
X181459285Y-131184329D01*
X181459285Y-130803377D01*
X181506904Y-130708139D01*
X181554523Y-130660520D01*
X181649761Y-130612900D01*
X181840238Y-130612900D01*
X181935476Y-130660520D01*
X181983095Y-130708139D01*
X182030714Y-130803377D01*
X182030714Y-131041472D01*
X181983095Y-131136710D01*
X181935476Y-131184329D01*
X181840238Y-131231948D01*
X181649761Y-131231948D01*
X181554523Y-131184329D01*
X181506904Y-131136710D01*
X181459285Y-131041472D01*
X183309497Y-133468382D02*
X183357116Y-133516001D01*
X183499973Y-133563620D01*
X183595211Y-133563620D01*
X183738068Y-133516001D01*
X183833306Y-133420763D01*
X183880925Y-133325525D01*
X183928544Y-133135049D01*
X183928544Y-132992192D01*
X183880925Y-132801716D01*
X183833306Y-132706478D01*
X183738068Y-132611240D01*
X183595211Y-132563620D01*
X183499973Y-132563620D01*
X183357116Y-132611240D01*
X183309497Y-132658859D01*
X182357116Y-133563620D02*
X182928544Y-133563620D01*
X182642830Y-133563620D02*
X182642830Y-132563620D01*
X182738068Y-132706478D01*
X182833306Y-132801716D01*
X182928544Y-132849335D01*
X181738068Y-132563620D02*
X181642830Y-132563620D01*
X181547592Y-132611240D01*
X181499973Y-132658859D01*
X181452354Y-132754097D01*
X181404735Y-132944573D01*
X181404735Y-133182668D01*
X181452354Y-133373144D01*
X181499973Y-133468382D01*
X181547592Y-133516001D01*
X181642830Y-133563620D01*
X181738068Y-133563620D01*
X181833306Y-133516001D01*
X181880925Y-133468382D01*
X181928544Y-133373144D01*
X181976163Y-133182668D01*
X181976163Y-132944573D01*
X181928544Y-132754097D01*
X181880925Y-132658859D01*
X181833306Y-132611240D01*
X181738068Y-132563620D01*
X186462942Y-130370342D02*
X186510561Y-130322723D01*
X186558180Y-130179866D01*
X186558180Y-130084628D01*
X186510561Y-129941771D01*
X186415323Y-129846533D01*
X186320085Y-129798914D01*
X186129609Y-129751295D01*
X185986752Y-129751295D01*
X185796276Y-129798914D01*
X185701038Y-129846533D01*
X185605800Y-129941771D01*
X185558180Y-130084628D01*
X185558180Y-130179866D01*
X185605800Y-130322723D01*
X185653419Y-130370342D01*
X186558180Y-131322723D02*
X186558180Y-130751295D01*
X186558180Y-131037009D02*
X185558180Y-131037009D01*
X185701038Y-130941771D01*
X185796276Y-130846533D01*
X185843895Y-130751295D01*
X185891514Y-132179866D02*
X186558180Y-132179866D01*
X185510561Y-131941771D02*
X186224847Y-131703676D01*
X186224847Y-132322723D01*
X184938942Y-130370342D02*
X184986561Y-130322723D01*
X185034180Y-130179866D01*
X185034180Y-130084628D01*
X184986561Y-129941771D01*
X184891323Y-129846533D01*
X184796085Y-129798914D01*
X184605609Y-129751295D01*
X184462752Y-129751295D01*
X184272276Y-129798914D01*
X184177038Y-129846533D01*
X184081800Y-129941771D01*
X184034180Y-130084628D01*
X184034180Y-130179866D01*
X184081800Y-130322723D01*
X184129419Y-130370342D01*
X185034180Y-131322723D02*
X185034180Y-130751295D01*
X185034180Y-131037009D02*
X184034180Y-131037009D01*
X184177038Y-130941771D01*
X184272276Y-130846533D01*
X184319895Y-130751295D01*
X184034180Y-132227485D02*
X184034180Y-131751295D01*
X184510371Y-131703676D01*
X184462752Y-131751295D01*
X184415133Y-131846533D01*
X184415133Y-132084628D01*
X184462752Y-132179866D01*
X184510371Y-132227485D01*
X184605609Y-132275104D01*
X184843704Y-132275104D01*
X184938942Y-132227485D01*
X184986561Y-132179866D01*
X185034180Y-132084628D01*
X185034180Y-131846533D01*
X184986561Y-131751295D01*
X184938942Y-131703676D01*
X188113942Y-130370342D02*
X188161561Y-130322723D01*
X188209180Y-130179866D01*
X188209180Y-130084628D01*
X188161561Y-129941771D01*
X188066323Y-129846533D01*
X187971085Y-129798914D01*
X187780609Y-129751295D01*
X187637752Y-129751295D01*
X187447276Y-129798914D01*
X187352038Y-129846533D01*
X187256800Y-129941771D01*
X187209180Y-130084628D01*
X187209180Y-130179866D01*
X187256800Y-130322723D01*
X187304419Y-130370342D01*
X188209180Y-131322723D02*
X188209180Y-130751295D01*
X188209180Y-131037009D02*
X187209180Y-131037009D01*
X187352038Y-130941771D01*
X187447276Y-130846533D01*
X187494895Y-130751295D01*
X187209180Y-132179866D02*
X187209180Y-131989390D01*
X187256800Y-131894152D01*
X187304419Y-131846533D01*
X187447276Y-131751295D01*
X187637752Y-131703676D01*
X188018704Y-131703676D01*
X188113942Y-131751295D01*
X188161561Y-131798914D01*
X188209180Y-131894152D01*
X188209180Y-132084628D01*
X188161561Y-132179866D01*
X188113942Y-132227485D01*
X188018704Y-132275104D01*
X187780609Y-132275104D01*
X187685371Y-132227485D01*
X187637752Y-132179866D01*
X187590133Y-132084628D01*
X187590133Y-131894152D01*
X187637752Y-131798914D01*
X187685371Y-131751295D01*
X187780609Y-131703676D01*
X191102573Y-138634220D02*
X191102573Y-139348506D01*
X191150192Y-139491363D01*
X191245430Y-139586601D01*
X191388287Y-139634220D01*
X191483525Y-139634220D01*
X190102573Y-139634220D02*
X190674001Y-139634220D01*
X190388287Y-139634220D02*
X190388287Y-138634220D01*
X190483525Y-138777078D01*
X190578763Y-138872316D01*
X190674001Y-138919935D01*
X204133438Y-148477219D02*
X204228676Y-148429600D01*
X204323914Y-148334361D01*
X204466771Y-148191504D01*
X204562009Y-148143885D01*
X204657247Y-148143885D01*
X204609628Y-148381980D02*
X204704866Y-148334361D01*
X204800104Y-148239123D01*
X204847723Y-148048647D01*
X204847723Y-147715314D01*
X204800104Y-147524838D01*
X204704866Y-147429600D01*
X204609628Y-147381980D01*
X204419152Y-147381980D01*
X204323914Y-147429600D01*
X204228676Y-147524838D01*
X204181057Y-147715314D01*
X204181057Y-148048647D01*
X204228676Y-148239123D01*
X204323914Y-148334361D01*
X204419152Y-148381980D01*
X204609628Y-148381980D01*
X203800104Y-147477219D02*
X203752485Y-147429600D01*
X203657247Y-147381980D01*
X203419152Y-147381980D01*
X203323914Y-147429600D01*
X203276295Y-147477219D01*
X203228676Y-147572457D01*
X203228676Y-147667695D01*
X203276295Y-147810552D01*
X203847723Y-148381980D01*
X203228676Y-148381980D01*
X204158838Y-139861539D02*
X204254076Y-139813920D01*
X204349314Y-139718681D01*
X204492171Y-139575824D01*
X204587409Y-139528205D01*
X204682647Y-139528205D01*
X204635028Y-139766300D02*
X204730266Y-139718681D01*
X204825504Y-139623443D01*
X204873123Y-139432967D01*
X204873123Y-139099634D01*
X204825504Y-138909158D01*
X204730266Y-138813920D01*
X204635028Y-138766300D01*
X204444552Y-138766300D01*
X204349314Y-138813920D01*
X204254076Y-138909158D01*
X204206457Y-139099634D01*
X204206457Y-139432967D01*
X204254076Y-139623443D01*
X204349314Y-139718681D01*
X204444552Y-139766300D01*
X204635028Y-139766300D01*
X203873123Y-138766300D02*
X203254076Y-138766300D01*
X203587409Y-139147253D01*
X203444552Y-139147253D01*
X203349314Y-139194872D01*
X203301695Y-139242491D01*
X203254076Y-139337729D01*
X203254076Y-139575824D01*
X203301695Y-139671062D01*
X203349314Y-139718681D01*
X203444552Y-139766300D01*
X203730266Y-139766300D01*
X203825504Y-139718681D01*
X203873123Y-139671062D01*
X181371500Y-140305493D02*
X180895310Y-139972160D01*
X181371500Y-139734064D02*
X180371500Y-139734064D01*
X180371500Y-140115017D01*
X180419120Y-140210255D01*
X180466739Y-140257874D01*
X180561977Y-140305493D01*
X180704834Y-140305493D01*
X180800072Y-140257874D01*
X180847691Y-140210255D01*
X180895310Y-140115017D01*
X180895310Y-139734064D01*
X180466739Y-140686445D02*
X180419120Y-140734064D01*
X180371500Y-140829302D01*
X180371500Y-141067398D01*
X180419120Y-141162636D01*
X180466739Y-141210255D01*
X180561977Y-141257874D01*
X180657215Y-141257874D01*
X180800072Y-141210255D01*
X181371500Y-140638826D01*
X181371500Y-141257874D01*
X175509180Y-140381693D02*
X175032990Y-140048360D01*
X175509180Y-139810264D02*
X174509180Y-139810264D01*
X174509180Y-140191217D01*
X174556800Y-140286455D01*
X174604419Y-140334074D01*
X174699657Y-140381693D01*
X174842514Y-140381693D01*
X174937752Y-140334074D01*
X174985371Y-140286455D01*
X175032990Y-140191217D01*
X175032990Y-139810264D01*
X174509180Y-140715026D02*
X174509180Y-141334074D01*
X174890133Y-141000740D01*
X174890133Y-141143598D01*
X174937752Y-141238836D01*
X174985371Y-141286455D01*
X175080609Y-141334074D01*
X175318704Y-141334074D01*
X175413942Y-141286455D01*
X175461561Y-141238836D01*
X175509180Y-141143598D01*
X175509180Y-140857883D01*
X175461561Y-140762645D01*
X175413942Y-140715026D01*
X200299580Y-145476933D02*
X199823390Y-145143600D01*
X200299580Y-144905504D02*
X199299580Y-144905504D01*
X199299580Y-145286457D01*
X199347200Y-145381695D01*
X199394819Y-145429314D01*
X199490057Y-145476933D01*
X199632914Y-145476933D01*
X199728152Y-145429314D01*
X199775771Y-145381695D01*
X199823390Y-145286457D01*
X199823390Y-144905504D01*
X199299580Y-146381695D02*
X199299580Y-145905504D01*
X199775771Y-145857885D01*
X199728152Y-145905504D01*
X199680533Y-146000742D01*
X199680533Y-146238838D01*
X199728152Y-146334076D01*
X199775771Y-146381695D01*
X199871009Y-146429314D01*
X200109104Y-146429314D01*
X200204342Y-146381695D01*
X200251961Y-146334076D01*
X200299580Y-146238838D01*
X200299580Y-146000742D01*
X200251961Y-145905504D01*
X200204342Y-145857885D01*
X200299580Y-141920933D02*
X199823390Y-141587600D01*
X200299580Y-141349504D02*
X199299580Y-141349504D01*
X199299580Y-141730457D01*
X199347200Y-141825695D01*
X199394819Y-141873314D01*
X199490057Y-141920933D01*
X199632914Y-141920933D01*
X199728152Y-141873314D01*
X199775771Y-141825695D01*
X199823390Y-141730457D01*
X199823390Y-141349504D01*
X199299580Y-142778076D02*
X199299580Y-142587600D01*
X199347200Y-142492361D01*
X199394819Y-142444742D01*
X199537676Y-142349504D01*
X199728152Y-142301885D01*
X200109104Y-142301885D01*
X200204342Y-142349504D01*
X200251961Y-142397123D01*
X200299580Y-142492361D01*
X200299580Y-142682838D01*
X200251961Y-142778076D01*
X200204342Y-142825695D01*
X200109104Y-142873314D01*
X199871009Y-142873314D01*
X199775771Y-142825695D01*
X199728152Y-142778076D01*
X199680533Y-142682838D01*
X199680533Y-142492361D01*
X199728152Y-142397123D01*
X199775771Y-142349504D01*
X199871009Y-142301885D01*
X209468980Y-146447213D02*
X208992790Y-146113880D01*
X209468980Y-145875784D02*
X208468980Y-145875784D01*
X208468980Y-146256737D01*
X208516600Y-146351975D01*
X208564219Y-146399594D01*
X208659457Y-146447213D01*
X208802314Y-146447213D01*
X208897552Y-146399594D01*
X208945171Y-146351975D01*
X208992790Y-146256737D01*
X208992790Y-145875784D01*
X208468980Y-146780546D02*
X208468980Y-147447213D01*
X209468980Y-147018641D01*
X209316580Y-141793933D02*
X208840390Y-141460600D01*
X209316580Y-141222504D02*
X208316580Y-141222504D01*
X208316580Y-141603457D01*
X208364200Y-141698695D01*
X208411819Y-141746314D01*
X208507057Y-141793933D01*
X208649914Y-141793933D01*
X208745152Y-141746314D01*
X208792771Y-141698695D01*
X208840390Y-141603457D01*
X208840390Y-141222504D01*
X209316580Y-142270123D02*
X209316580Y-142460600D01*
X209268961Y-142555838D01*
X209221342Y-142603457D01*
X209078485Y-142698695D01*
X208888009Y-142746314D01*
X208507057Y-142746314D01*
X208411819Y-142698695D01*
X208364200Y-142651076D01*
X208316580Y-142555838D01*
X208316580Y-142365361D01*
X208364200Y-142270123D01*
X208411819Y-142222504D01*
X208507057Y-142174885D01*
X208745152Y-142174885D01*
X208840390Y-142222504D01*
X208888009Y-142270123D01*
X208935628Y-142365361D01*
X208935628Y-142555838D01*
X208888009Y-142651076D01*
X208840390Y-142698695D01*
X208745152Y-142746314D01*
X175513904Y-136302500D02*
X175513904Y-137112024D01*
X175466285Y-137207262D01*
X175418666Y-137254881D01*
X175323428Y-137302500D01*
X175132952Y-137302500D01*
X175037714Y-137254881D01*
X174990095Y-137207262D01*
X174942476Y-137112024D01*
X174942476Y-136302500D01*
X174513904Y-136397739D02*
X174466285Y-136350120D01*
X174371047Y-136302500D01*
X174132952Y-136302500D01*
X174037714Y-136350120D01*
X173990095Y-136397739D01*
X173942476Y-136492977D01*
X173942476Y-136588215D01*
X173990095Y-136731072D01*
X174561523Y-137302500D01*
X173942476Y-137302500D01*
M02*
