G04 #@! TF.GenerationSoftware,KiCad,Pcbnew,5.1.4-3.fc30*
G04 #@! TF.CreationDate,2019-11-13T22:00:14+01:00*
G04 #@! TF.ProjectId,dpf_ressure_dumper,6470665f-7265-4737-9375-72655f64756d,rev?*
G04 #@! TF.SameCoordinates,Original*
G04 #@! TF.FileFunction,Soldermask,Top*
G04 #@! TF.FilePolarity,Negative*
%FSLAX46Y46*%
G04 Gerber Fmt 4.6, Leading zero omitted, Abs format (unit mm)*
G04 Created by KiCad (PCBNEW 5.1.4-3.fc30) date 2019-11-13 22:00:14*
%MOMM*%
%LPD*%
G04 APERTURE LIST*
%ADD10C,0.100000*%
G04 APERTURE END LIST*
D10*
G36*
X220187114Y-146466423D02*
G01*
X220460527Y-146520808D01*
X220760808Y-146645189D01*
X221031054Y-146825761D01*
X221260879Y-147055586D01*
X221441451Y-147325832D01*
X221565832Y-147626113D01*
X221629240Y-147944889D01*
X221629240Y-148269911D01*
X221565832Y-148588687D01*
X221441451Y-148888968D01*
X221260879Y-149159214D01*
X221031054Y-149389039D01*
X220760808Y-149569611D01*
X220460527Y-149693992D01*
X220187114Y-149748377D01*
X220141752Y-149757400D01*
X219816728Y-149757400D01*
X219771366Y-149748377D01*
X219497953Y-149693992D01*
X219197672Y-149569611D01*
X218927426Y-149389039D01*
X218697601Y-149159214D01*
X218517029Y-148888968D01*
X218392648Y-148588687D01*
X218329240Y-148269911D01*
X218329240Y-147944889D01*
X218392648Y-147626113D01*
X218517029Y-147325832D01*
X218697601Y-147055586D01*
X218927426Y-146825761D01*
X219197672Y-146645189D01*
X219497953Y-146520808D01*
X219771366Y-146466423D01*
X219816728Y-146457400D01*
X220141752Y-146457400D01*
X220187114Y-146466423D01*
X220187114Y-146466423D01*
G37*
G36*
X173125994Y-146466423D02*
G01*
X173399407Y-146520808D01*
X173699688Y-146645189D01*
X173969934Y-146825761D01*
X174199759Y-147055586D01*
X174380331Y-147325832D01*
X174504712Y-147626113D01*
X174568120Y-147944889D01*
X174568120Y-148269911D01*
X174504712Y-148588687D01*
X174380331Y-148888968D01*
X174199759Y-149159214D01*
X173969934Y-149389039D01*
X173699688Y-149569611D01*
X173399407Y-149693992D01*
X173125994Y-149748377D01*
X173080632Y-149757400D01*
X172755608Y-149757400D01*
X172710246Y-149748377D01*
X172436833Y-149693992D01*
X172136552Y-149569611D01*
X171866306Y-149389039D01*
X171636481Y-149159214D01*
X171455909Y-148888968D01*
X171331528Y-148588687D01*
X171268120Y-148269911D01*
X171268120Y-147944889D01*
X171331528Y-147626113D01*
X171455909Y-147325832D01*
X171636481Y-147055586D01*
X171866306Y-146825761D01*
X172136552Y-146645189D01*
X172436833Y-146520808D01*
X172710246Y-146466423D01*
X172755608Y-146457400D01*
X173080632Y-146457400D01*
X173125994Y-146466423D01*
X173125994Y-146466423D01*
G37*
G36*
X184807800Y-149022700D02*
G01*
X183205800Y-149022700D01*
X183205800Y-147420700D01*
X184807800Y-147420700D01*
X184807800Y-149022700D01*
X184807800Y-149022700D01*
G37*
G36*
X192307800Y-149022700D02*
G01*
X190705800Y-149022700D01*
X190705800Y-147420700D01*
X192307800Y-147420700D01*
X192307800Y-149022700D01*
X192307800Y-149022700D01*
G37*
G36*
X212565868Y-145709965D02*
G01*
X212604538Y-145721696D01*
X212640177Y-145740746D01*
X212671417Y-145766383D01*
X212697054Y-145797623D01*
X212716104Y-145833262D01*
X212727835Y-145871932D01*
X212732400Y-145918288D01*
X212732400Y-146994512D01*
X212727835Y-147040868D01*
X212716104Y-147079538D01*
X212697054Y-147115177D01*
X212671417Y-147146417D01*
X212640177Y-147172054D01*
X212604538Y-147191104D01*
X212565868Y-147202835D01*
X212519512Y-147207400D01*
X211868288Y-147207400D01*
X211821932Y-147202835D01*
X211783262Y-147191104D01*
X211747623Y-147172054D01*
X211716383Y-147146417D01*
X211690746Y-147115177D01*
X211671696Y-147079538D01*
X211659965Y-147040868D01*
X211655400Y-146994512D01*
X211655400Y-145918288D01*
X211659965Y-145871932D01*
X211671696Y-145833262D01*
X211690746Y-145797623D01*
X211716383Y-145766383D01*
X211747623Y-145740746D01*
X211783262Y-145721696D01*
X211821932Y-145709965D01*
X211868288Y-145705400D01*
X212519512Y-145705400D01*
X212565868Y-145709965D01*
X212565868Y-145709965D01*
G37*
G36*
X214440868Y-145709965D02*
G01*
X214479538Y-145721696D01*
X214515177Y-145740746D01*
X214546417Y-145766383D01*
X214572054Y-145797623D01*
X214591104Y-145833262D01*
X214602835Y-145871932D01*
X214607400Y-145918288D01*
X214607400Y-146994512D01*
X214602835Y-147040868D01*
X214591104Y-147079538D01*
X214572054Y-147115177D01*
X214546417Y-147146417D01*
X214515177Y-147172054D01*
X214479538Y-147191104D01*
X214440868Y-147202835D01*
X214394512Y-147207400D01*
X213743288Y-147207400D01*
X213696932Y-147202835D01*
X213658262Y-147191104D01*
X213622623Y-147172054D01*
X213591383Y-147146417D01*
X213565746Y-147115177D01*
X213546696Y-147079538D01*
X213534965Y-147040868D01*
X213530400Y-146994512D01*
X213530400Y-145918288D01*
X213534965Y-145871932D01*
X213546696Y-145833262D01*
X213565746Y-145797623D01*
X213591383Y-145766383D01*
X213622623Y-145740746D01*
X213658262Y-145721696D01*
X213696932Y-145709965D01*
X213743288Y-145705400D01*
X214394512Y-145705400D01*
X214440868Y-145709965D01*
X214440868Y-145709965D01*
G37*
G36*
X210884868Y-145684565D02*
G01*
X210923538Y-145696296D01*
X210959177Y-145715346D01*
X210990417Y-145740983D01*
X211016054Y-145772223D01*
X211035104Y-145807862D01*
X211046835Y-145846532D01*
X211051400Y-145892888D01*
X211051400Y-146969112D01*
X211046835Y-147015468D01*
X211035104Y-147054138D01*
X211016054Y-147089777D01*
X210990417Y-147121017D01*
X210959177Y-147146654D01*
X210923538Y-147165704D01*
X210884868Y-147177435D01*
X210838512Y-147182000D01*
X210187288Y-147182000D01*
X210140932Y-147177435D01*
X210102262Y-147165704D01*
X210066623Y-147146654D01*
X210035383Y-147121017D01*
X210009746Y-147089777D01*
X209990696Y-147054138D01*
X209978965Y-147015468D01*
X209974400Y-146969112D01*
X209974400Y-145892888D01*
X209978965Y-145846532D01*
X209990696Y-145807862D01*
X210009746Y-145772223D01*
X210035383Y-145740983D01*
X210066623Y-145715346D01*
X210102262Y-145696296D01*
X210140932Y-145684565D01*
X210187288Y-145680000D01*
X210838512Y-145680000D01*
X210884868Y-145684565D01*
X210884868Y-145684565D01*
G37*
G36*
X209009868Y-145684565D02*
G01*
X209048538Y-145696296D01*
X209084177Y-145715346D01*
X209115417Y-145740983D01*
X209141054Y-145772223D01*
X209160104Y-145807862D01*
X209171835Y-145846532D01*
X209176400Y-145892888D01*
X209176400Y-146969112D01*
X209171835Y-147015468D01*
X209160104Y-147054138D01*
X209141054Y-147089777D01*
X209115417Y-147121017D01*
X209084177Y-147146654D01*
X209048538Y-147165704D01*
X209009868Y-147177435D01*
X208963512Y-147182000D01*
X208312288Y-147182000D01*
X208265932Y-147177435D01*
X208227262Y-147165704D01*
X208191623Y-147146654D01*
X208160383Y-147121017D01*
X208134746Y-147089777D01*
X208115696Y-147054138D01*
X208103965Y-147015468D01*
X208099400Y-146969112D01*
X208099400Y-145892888D01*
X208103965Y-145846532D01*
X208115696Y-145807862D01*
X208134746Y-145772223D01*
X208160383Y-145740983D01*
X208191623Y-145715346D01*
X208227262Y-145696296D01*
X208265932Y-145684565D01*
X208312288Y-145680000D01*
X208963512Y-145680000D01*
X209009868Y-145684565D01*
X209009868Y-145684565D01*
G37*
G36*
X205802591Y-145731285D02*
G01*
X205836569Y-145741593D01*
X205867890Y-145758334D01*
X205895339Y-145780861D01*
X205917866Y-145808310D01*
X205934607Y-145839631D01*
X205944915Y-145873609D01*
X205949000Y-145915090D01*
X205949000Y-146591310D01*
X205944915Y-146632791D01*
X205934607Y-146666769D01*
X205917866Y-146698090D01*
X205895339Y-146725539D01*
X205867890Y-146748066D01*
X205836569Y-146764807D01*
X205802591Y-146775115D01*
X205761110Y-146779200D01*
X205159890Y-146779200D01*
X205118409Y-146775115D01*
X205084431Y-146764807D01*
X205053110Y-146748066D01*
X205025661Y-146725539D01*
X205003134Y-146698090D01*
X204986393Y-146666769D01*
X204976085Y-146632791D01*
X204972000Y-146591310D01*
X204972000Y-145915090D01*
X204976085Y-145873609D01*
X204986393Y-145839631D01*
X205003134Y-145808310D01*
X205025661Y-145780861D01*
X205053110Y-145758334D01*
X205084431Y-145741593D01*
X205118409Y-145731285D01*
X205159890Y-145727200D01*
X205761110Y-145727200D01*
X205802591Y-145731285D01*
X205802591Y-145731285D01*
G37*
G36*
X207377591Y-145731285D02*
G01*
X207411569Y-145741593D01*
X207442890Y-145758334D01*
X207470339Y-145780861D01*
X207492866Y-145808310D01*
X207509607Y-145839631D01*
X207519915Y-145873609D01*
X207524000Y-145915090D01*
X207524000Y-146591310D01*
X207519915Y-146632791D01*
X207509607Y-146666769D01*
X207492866Y-146698090D01*
X207470339Y-146725539D01*
X207442890Y-146748066D01*
X207411569Y-146764807D01*
X207377591Y-146775115D01*
X207336110Y-146779200D01*
X206734890Y-146779200D01*
X206693409Y-146775115D01*
X206659431Y-146764807D01*
X206628110Y-146748066D01*
X206600661Y-146725539D01*
X206578134Y-146698090D01*
X206561393Y-146666769D01*
X206551085Y-146632791D01*
X206547000Y-146591310D01*
X206547000Y-145915090D01*
X206551085Y-145873609D01*
X206561393Y-145839631D01*
X206578134Y-145808310D01*
X206600661Y-145780861D01*
X206628110Y-145758334D01*
X206659431Y-145741593D01*
X206693409Y-145731285D01*
X206734890Y-145727200D01*
X207336110Y-145727200D01*
X207377591Y-145731285D01*
X207377591Y-145731285D01*
G37*
G36*
X198563591Y-144994685D02*
G01*
X198597569Y-145004993D01*
X198628890Y-145021734D01*
X198656339Y-145044261D01*
X198678866Y-145071710D01*
X198695607Y-145103031D01*
X198705915Y-145137009D01*
X198710000Y-145178490D01*
X198710000Y-145854710D01*
X198705915Y-145896191D01*
X198695607Y-145930169D01*
X198678866Y-145961490D01*
X198656339Y-145988939D01*
X198628890Y-146011466D01*
X198597569Y-146028207D01*
X198563591Y-146038515D01*
X198522110Y-146042600D01*
X197920890Y-146042600D01*
X197879409Y-146038515D01*
X197845431Y-146028207D01*
X197814110Y-146011466D01*
X197786661Y-145988939D01*
X197764134Y-145961490D01*
X197747393Y-145930169D01*
X197737085Y-145896191D01*
X197733000Y-145854710D01*
X197733000Y-145178490D01*
X197737085Y-145137009D01*
X197747393Y-145103031D01*
X197764134Y-145071710D01*
X197786661Y-145044261D01*
X197814110Y-145021734D01*
X197845431Y-145004993D01*
X197879409Y-144994685D01*
X197920890Y-144990600D01*
X198522110Y-144990600D01*
X198563591Y-144994685D01*
X198563591Y-144994685D01*
G37*
G36*
X200138591Y-144994685D02*
G01*
X200172569Y-145004993D01*
X200203890Y-145021734D01*
X200231339Y-145044261D01*
X200253866Y-145071710D01*
X200270607Y-145103031D01*
X200280915Y-145137009D01*
X200285000Y-145178490D01*
X200285000Y-145854710D01*
X200280915Y-145896191D01*
X200270607Y-145930169D01*
X200253866Y-145961490D01*
X200231339Y-145988939D01*
X200203890Y-146011466D01*
X200172569Y-146028207D01*
X200138591Y-146038515D01*
X200097110Y-146042600D01*
X199495890Y-146042600D01*
X199454409Y-146038515D01*
X199420431Y-146028207D01*
X199389110Y-146011466D01*
X199361661Y-145988939D01*
X199339134Y-145961490D01*
X199322393Y-145930169D01*
X199312085Y-145896191D01*
X199308000Y-145854710D01*
X199308000Y-145178490D01*
X199312085Y-145137009D01*
X199322393Y-145103031D01*
X199339134Y-145071710D01*
X199361661Y-145044261D01*
X199389110Y-145021734D01*
X199420431Y-145004993D01*
X199454409Y-144994685D01*
X199495890Y-144990600D01*
X200097110Y-144990600D01*
X200138591Y-144994685D01*
X200138591Y-144994685D01*
G37*
G36*
X197157338Y-144845516D02*
G01*
X197177957Y-144851771D01*
X197196953Y-144861924D01*
X197213608Y-144875592D01*
X197227276Y-144892247D01*
X197237429Y-144911243D01*
X197243684Y-144931862D01*
X197246400Y-144959440D01*
X197246400Y-145418160D01*
X197243684Y-145445738D01*
X197237429Y-145466357D01*
X197227276Y-145485353D01*
X197213608Y-145502008D01*
X197196953Y-145515676D01*
X197177957Y-145525829D01*
X197157338Y-145532084D01*
X197129760Y-145534800D01*
X196621040Y-145534800D01*
X196593462Y-145532084D01*
X196572843Y-145525829D01*
X196553847Y-145515676D01*
X196537192Y-145502008D01*
X196523524Y-145485353D01*
X196513371Y-145466357D01*
X196507116Y-145445738D01*
X196504400Y-145418160D01*
X196504400Y-144959440D01*
X196507116Y-144931862D01*
X196513371Y-144911243D01*
X196523524Y-144892247D01*
X196537192Y-144875592D01*
X196553847Y-144861924D01*
X196572843Y-144851771D01*
X196593462Y-144845516D01*
X196621040Y-144842800D01*
X197129760Y-144842800D01*
X197157338Y-144845516D01*
X197157338Y-144845516D01*
G37*
G36*
X207352191Y-144004085D02*
G01*
X207386169Y-144014393D01*
X207417490Y-144031134D01*
X207444939Y-144053661D01*
X207467466Y-144081110D01*
X207484207Y-144112431D01*
X207494515Y-144146409D01*
X207498600Y-144187890D01*
X207498600Y-144864110D01*
X207494515Y-144905591D01*
X207484207Y-144939569D01*
X207467466Y-144970890D01*
X207444939Y-144998339D01*
X207417490Y-145020866D01*
X207386169Y-145037607D01*
X207352191Y-145047915D01*
X207310710Y-145052000D01*
X206709490Y-145052000D01*
X206668009Y-145047915D01*
X206634031Y-145037607D01*
X206602710Y-145020866D01*
X206575261Y-144998339D01*
X206552734Y-144970890D01*
X206535993Y-144939569D01*
X206525685Y-144905591D01*
X206521600Y-144864110D01*
X206521600Y-144187890D01*
X206525685Y-144146409D01*
X206535993Y-144112431D01*
X206552734Y-144081110D01*
X206575261Y-144053661D01*
X206602710Y-144031134D01*
X206634031Y-144014393D01*
X206668009Y-144004085D01*
X206709490Y-144000000D01*
X207310710Y-144000000D01*
X207352191Y-144004085D01*
X207352191Y-144004085D01*
G37*
G36*
X205777191Y-144004085D02*
G01*
X205811169Y-144014393D01*
X205842490Y-144031134D01*
X205869939Y-144053661D01*
X205892466Y-144081110D01*
X205909207Y-144112431D01*
X205919515Y-144146409D01*
X205923600Y-144187890D01*
X205923600Y-144864110D01*
X205919515Y-144905591D01*
X205909207Y-144939569D01*
X205892466Y-144970890D01*
X205869939Y-144998339D01*
X205842490Y-145020866D01*
X205811169Y-145037607D01*
X205777191Y-145047915D01*
X205735710Y-145052000D01*
X205134490Y-145052000D01*
X205093009Y-145047915D01*
X205059031Y-145037607D01*
X205027710Y-145020866D01*
X205000261Y-144998339D01*
X204977734Y-144970890D01*
X204960993Y-144939569D01*
X204950685Y-144905591D01*
X204946600Y-144864110D01*
X204946600Y-144187890D01*
X204950685Y-144146409D01*
X204960993Y-144112431D01*
X204977734Y-144081110D01*
X205000261Y-144053661D01*
X205027710Y-144031134D01*
X205059031Y-144014393D01*
X205093009Y-144004085D01*
X205134490Y-144000000D01*
X205735710Y-144000000D01*
X205777191Y-144004085D01*
X205777191Y-144004085D01*
G37*
G36*
X214232600Y-144936400D02*
G01*
X213230600Y-144936400D01*
X213230600Y-144034400D01*
X214232600Y-144034400D01*
X214232600Y-144936400D01*
X214232600Y-144936400D01*
G37*
G36*
X197157338Y-143875516D02*
G01*
X197177957Y-143881771D01*
X197196953Y-143891924D01*
X197213608Y-143905592D01*
X197227276Y-143922247D01*
X197237429Y-143941243D01*
X197243684Y-143961862D01*
X197246400Y-143989440D01*
X197246400Y-144448160D01*
X197243684Y-144475738D01*
X197237429Y-144496357D01*
X197227276Y-144515353D01*
X197213608Y-144532008D01*
X197196953Y-144545676D01*
X197177957Y-144555829D01*
X197157338Y-144562084D01*
X197129760Y-144564800D01*
X196621040Y-144564800D01*
X196593462Y-144562084D01*
X196572843Y-144555829D01*
X196553847Y-144545676D01*
X196537192Y-144532008D01*
X196523524Y-144515353D01*
X196513371Y-144496357D01*
X196507116Y-144475738D01*
X196504400Y-144448160D01*
X196504400Y-143989440D01*
X196507116Y-143961862D01*
X196513371Y-143941243D01*
X196523524Y-143922247D01*
X196537192Y-143905592D01*
X196553847Y-143891924D01*
X196572843Y-143881771D01*
X196593462Y-143875516D01*
X196621040Y-143872800D01*
X197129760Y-143872800D01*
X197157338Y-143875516D01*
X197157338Y-143875516D01*
G37*
G36*
X200163991Y-143369085D02*
G01*
X200197969Y-143379393D01*
X200229290Y-143396134D01*
X200256739Y-143418661D01*
X200279266Y-143446110D01*
X200296007Y-143477431D01*
X200306315Y-143511409D01*
X200310400Y-143552890D01*
X200310400Y-144229110D01*
X200306315Y-144270591D01*
X200296007Y-144304569D01*
X200279266Y-144335890D01*
X200256739Y-144363339D01*
X200229290Y-144385866D01*
X200197969Y-144402607D01*
X200163991Y-144412915D01*
X200122510Y-144417000D01*
X199521290Y-144417000D01*
X199479809Y-144412915D01*
X199445831Y-144402607D01*
X199414510Y-144385866D01*
X199387061Y-144363339D01*
X199364534Y-144335890D01*
X199347793Y-144304569D01*
X199337485Y-144270591D01*
X199333400Y-144229110D01*
X199333400Y-143552890D01*
X199337485Y-143511409D01*
X199347793Y-143477431D01*
X199364534Y-143446110D01*
X199387061Y-143418661D01*
X199414510Y-143396134D01*
X199445831Y-143379393D01*
X199479809Y-143369085D01*
X199521290Y-143365000D01*
X200122510Y-143365000D01*
X200163991Y-143369085D01*
X200163991Y-143369085D01*
G37*
G36*
X198588991Y-143369085D02*
G01*
X198622969Y-143379393D01*
X198654290Y-143396134D01*
X198681739Y-143418661D01*
X198704266Y-143446110D01*
X198721007Y-143477431D01*
X198731315Y-143511409D01*
X198735400Y-143552890D01*
X198735400Y-144229110D01*
X198731315Y-144270591D01*
X198721007Y-144304569D01*
X198704266Y-144335890D01*
X198681739Y-144363339D01*
X198654290Y-144385866D01*
X198622969Y-144402607D01*
X198588991Y-144412915D01*
X198547510Y-144417000D01*
X197946290Y-144417000D01*
X197904809Y-144412915D01*
X197870831Y-144402607D01*
X197839510Y-144385866D01*
X197812061Y-144363339D01*
X197789534Y-144335890D01*
X197772793Y-144304569D01*
X197762485Y-144270591D01*
X197758400Y-144229110D01*
X197758400Y-143552890D01*
X197762485Y-143511409D01*
X197772793Y-143477431D01*
X197789534Y-143446110D01*
X197812061Y-143418661D01*
X197839510Y-143396134D01*
X197870831Y-143379393D01*
X197904809Y-143369085D01*
X197946290Y-143365000D01*
X198547510Y-143365000D01*
X198588991Y-143369085D01*
X198588991Y-143369085D01*
G37*
G36*
X195963538Y-143372316D02*
G01*
X195984157Y-143378571D01*
X196003153Y-143388724D01*
X196019808Y-143402392D01*
X196033476Y-143419047D01*
X196043629Y-143438043D01*
X196049884Y-143458662D01*
X196052600Y-143486240D01*
X196052600Y-143944960D01*
X196049884Y-143972538D01*
X196043629Y-143993157D01*
X196033476Y-144012153D01*
X196019808Y-144028808D01*
X196003153Y-144042476D01*
X195984157Y-144052629D01*
X195963538Y-144058884D01*
X195935960Y-144061600D01*
X195427240Y-144061600D01*
X195399662Y-144058884D01*
X195379043Y-144052629D01*
X195360047Y-144042476D01*
X195343392Y-144028808D01*
X195329724Y-144012153D01*
X195319571Y-143993157D01*
X195313316Y-143972538D01*
X195310600Y-143944960D01*
X195310600Y-143486240D01*
X195313316Y-143458662D01*
X195319571Y-143438043D01*
X195329724Y-143419047D01*
X195343392Y-143402392D01*
X195360047Y-143388724D01*
X195379043Y-143378571D01*
X195399662Y-143372316D01*
X195427240Y-143369600D01*
X195935960Y-143369600D01*
X195963538Y-143372316D01*
X195963538Y-143372316D01*
G37*
G36*
X216232600Y-143986400D02*
G01*
X215230600Y-143986400D01*
X215230600Y-143084400D01*
X216232600Y-143084400D01*
X216232600Y-143986400D01*
X216232600Y-143986400D01*
G37*
G36*
X211662800Y-143566000D02*
G01*
X210500800Y-143566000D01*
X210500800Y-140914000D01*
X211662800Y-140914000D01*
X211662800Y-143566000D01*
X211662800Y-143566000D01*
G37*
G36*
X209462800Y-143566000D02*
G01*
X208300800Y-143566000D01*
X208300800Y-140914000D01*
X209462800Y-140914000D01*
X209462800Y-143566000D01*
X209462800Y-143566000D01*
G37*
G36*
X205609699Y-142353445D02*
G01*
X205647195Y-142364820D01*
X205681754Y-142383292D01*
X205712047Y-142408153D01*
X205736908Y-142438446D01*
X205755380Y-142473005D01*
X205766755Y-142510501D01*
X205771200Y-142555638D01*
X205771200Y-143194362D01*
X205766755Y-143239499D01*
X205755380Y-143276995D01*
X205736908Y-143311554D01*
X205712047Y-143341847D01*
X205681754Y-143366708D01*
X205647195Y-143385180D01*
X205609699Y-143396555D01*
X205564562Y-143401000D01*
X204825838Y-143401000D01*
X204780701Y-143396555D01*
X204743205Y-143385180D01*
X204708646Y-143366708D01*
X204678353Y-143341847D01*
X204653492Y-143311554D01*
X204635020Y-143276995D01*
X204623645Y-143239499D01*
X204619200Y-143194362D01*
X204619200Y-142555638D01*
X204623645Y-142510501D01*
X204635020Y-142473005D01*
X204653492Y-142438446D01*
X204678353Y-142408153D01*
X204708646Y-142383292D01*
X204743205Y-142364820D01*
X204780701Y-142353445D01*
X204825838Y-142349000D01*
X205564562Y-142349000D01*
X205609699Y-142353445D01*
X205609699Y-142353445D01*
G37*
G36*
X207359699Y-142353445D02*
G01*
X207397195Y-142364820D01*
X207431754Y-142383292D01*
X207462047Y-142408153D01*
X207486908Y-142438446D01*
X207505380Y-142473005D01*
X207516755Y-142510501D01*
X207521200Y-142555638D01*
X207521200Y-143194362D01*
X207516755Y-143239499D01*
X207505380Y-143276995D01*
X207486908Y-143311554D01*
X207462047Y-143341847D01*
X207431754Y-143366708D01*
X207397195Y-143385180D01*
X207359699Y-143396555D01*
X207314562Y-143401000D01*
X206575838Y-143401000D01*
X206530701Y-143396555D01*
X206493205Y-143385180D01*
X206458646Y-143366708D01*
X206428353Y-143341847D01*
X206403492Y-143311554D01*
X206385020Y-143276995D01*
X206373645Y-143239499D01*
X206369200Y-143194362D01*
X206369200Y-142555638D01*
X206373645Y-142510501D01*
X206385020Y-142473005D01*
X206403492Y-142438446D01*
X206428353Y-142408153D01*
X206458646Y-142383292D01*
X206493205Y-142364820D01*
X206530701Y-142353445D01*
X206575838Y-142349000D01*
X207314562Y-142349000D01*
X207359699Y-142353445D01*
X207359699Y-142353445D01*
G37*
G36*
X194922138Y-142686516D02*
G01*
X194942757Y-142692771D01*
X194961753Y-142702924D01*
X194978408Y-142716592D01*
X194992076Y-142733247D01*
X195002229Y-142752243D01*
X195008484Y-142772862D01*
X195011200Y-142800440D01*
X195011200Y-143259160D01*
X195008484Y-143286738D01*
X195002229Y-143307357D01*
X194992076Y-143326353D01*
X194978408Y-143343008D01*
X194961753Y-143356676D01*
X194942757Y-143366829D01*
X194922138Y-143373084D01*
X194894560Y-143375800D01*
X194385840Y-143375800D01*
X194358262Y-143373084D01*
X194337643Y-143366829D01*
X194318647Y-143356676D01*
X194301992Y-143343008D01*
X194288324Y-143326353D01*
X194278171Y-143307357D01*
X194271916Y-143286738D01*
X194269200Y-143259160D01*
X194269200Y-142800440D01*
X194271916Y-142772862D01*
X194278171Y-142752243D01*
X194288324Y-142733247D01*
X194301992Y-142716592D01*
X194318647Y-142702924D01*
X194337643Y-142692771D01*
X194358262Y-142686516D01*
X194385840Y-142683800D01*
X194894560Y-142683800D01*
X194922138Y-142686516D01*
X194922138Y-142686516D01*
G37*
G36*
X195963538Y-142402316D02*
G01*
X195984157Y-142408571D01*
X196003153Y-142418724D01*
X196019808Y-142432392D01*
X196033476Y-142449047D01*
X196043629Y-142468043D01*
X196049884Y-142488662D01*
X196052600Y-142516240D01*
X196052600Y-142974960D01*
X196049884Y-143002538D01*
X196043629Y-143023157D01*
X196033476Y-143042153D01*
X196019808Y-143058808D01*
X196003153Y-143072476D01*
X195984157Y-143082629D01*
X195963538Y-143088884D01*
X195935960Y-143091600D01*
X195427240Y-143091600D01*
X195399662Y-143088884D01*
X195379043Y-143082629D01*
X195360047Y-143072476D01*
X195343392Y-143058808D01*
X195329724Y-143042153D01*
X195319571Y-143023157D01*
X195313316Y-143002538D01*
X195310600Y-142974960D01*
X195310600Y-142516240D01*
X195313316Y-142488662D01*
X195319571Y-142468043D01*
X195329724Y-142449047D01*
X195343392Y-142432392D01*
X195360047Y-142418724D01*
X195379043Y-142408571D01*
X195399662Y-142402316D01*
X195427240Y-142399600D01*
X195935960Y-142399600D01*
X195963538Y-142402316D01*
X195963538Y-142402316D01*
G37*
G36*
X214232600Y-143036400D02*
G01*
X213230600Y-143036400D01*
X213230600Y-142134400D01*
X214232600Y-142134400D01*
X214232600Y-143036400D01*
X214232600Y-143036400D01*
G37*
G36*
X219781067Y-140934139D02*
G01*
X219859227Y-140941837D01*
X220029066Y-140993357D01*
X220185591Y-141077022D01*
X220211651Y-141098409D01*
X220322786Y-141189614D01*
X220391349Y-141273160D01*
X220435378Y-141326809D01*
X220519043Y-141483334D01*
X220570563Y-141653173D01*
X220587959Y-141829800D01*
X220570563Y-142006427D01*
X220519043Y-142176266D01*
X220435378Y-142332791D01*
X220406048Y-142368529D01*
X220322786Y-142469986D01*
X220238875Y-142538849D01*
X220185591Y-142582578D01*
X220029066Y-142666243D01*
X219859227Y-142717763D01*
X219793043Y-142724281D01*
X219726860Y-142730800D01*
X219388340Y-142730800D01*
X219322157Y-142724281D01*
X219255973Y-142717763D01*
X219086134Y-142666243D01*
X218929609Y-142582578D01*
X218876325Y-142538849D01*
X218792414Y-142469986D01*
X218709152Y-142368529D01*
X218679822Y-142332791D01*
X218596157Y-142176266D01*
X218544637Y-142006427D01*
X218527241Y-141829800D01*
X218544637Y-141653173D01*
X218596157Y-141483334D01*
X218679822Y-141326809D01*
X218723851Y-141273160D01*
X218792414Y-141189614D01*
X218903549Y-141098409D01*
X218929609Y-141077022D01*
X219086134Y-140993357D01*
X219255973Y-140941837D01*
X219334133Y-140934139D01*
X219388340Y-140928800D01*
X219726860Y-140928800D01*
X219781067Y-140934139D01*
X219781067Y-140934139D01*
G37*
G36*
X194922138Y-141716516D02*
G01*
X194942757Y-141722771D01*
X194961753Y-141732924D01*
X194978408Y-141746592D01*
X194992076Y-141763247D01*
X195002229Y-141782243D01*
X195008484Y-141802862D01*
X195011200Y-141830440D01*
X195011200Y-142289160D01*
X195008484Y-142316738D01*
X195002229Y-142337357D01*
X194992076Y-142356353D01*
X194978408Y-142373008D01*
X194961753Y-142386676D01*
X194942757Y-142396829D01*
X194922138Y-142403084D01*
X194894560Y-142405800D01*
X194385840Y-142405800D01*
X194358262Y-142403084D01*
X194337643Y-142396829D01*
X194318647Y-142386676D01*
X194301992Y-142373008D01*
X194288324Y-142356353D01*
X194278171Y-142337357D01*
X194271916Y-142316738D01*
X194269200Y-142289160D01*
X194269200Y-141830440D01*
X194271916Y-141802862D01*
X194278171Y-141782243D01*
X194288324Y-141763247D01*
X194301992Y-141746592D01*
X194318647Y-141732924D01*
X194337643Y-141722771D01*
X194358262Y-141716516D01*
X194385840Y-141713800D01*
X194894560Y-141713800D01*
X194922138Y-141716516D01*
X194922138Y-141716516D01*
G37*
G36*
X193880738Y-141695916D02*
G01*
X193901357Y-141702171D01*
X193920353Y-141712324D01*
X193937008Y-141725992D01*
X193950676Y-141742647D01*
X193960829Y-141761643D01*
X193967084Y-141782262D01*
X193969800Y-141809840D01*
X193969800Y-142268560D01*
X193967084Y-142296138D01*
X193960829Y-142316757D01*
X193950676Y-142335753D01*
X193937008Y-142352408D01*
X193920353Y-142366076D01*
X193901357Y-142376229D01*
X193880738Y-142382484D01*
X193853160Y-142385200D01*
X193344440Y-142385200D01*
X193316862Y-142382484D01*
X193296243Y-142376229D01*
X193277247Y-142366076D01*
X193260592Y-142352408D01*
X193246924Y-142335753D01*
X193236771Y-142316757D01*
X193230516Y-142296138D01*
X193227800Y-142268560D01*
X193227800Y-141809840D01*
X193230516Y-141782262D01*
X193236771Y-141761643D01*
X193246924Y-141742647D01*
X193260592Y-141725992D01*
X193277247Y-141712324D01*
X193296243Y-141702171D01*
X193316862Y-141695916D01*
X193344440Y-141693200D01*
X193853160Y-141693200D01*
X193880738Y-141695916D01*
X193880738Y-141695916D01*
G37*
G36*
X192839338Y-141670516D02*
G01*
X192859957Y-141676771D01*
X192878953Y-141686924D01*
X192895608Y-141700592D01*
X192909276Y-141717247D01*
X192919429Y-141736243D01*
X192925684Y-141756862D01*
X192928400Y-141784440D01*
X192928400Y-142243160D01*
X192925684Y-142270738D01*
X192919429Y-142291357D01*
X192909276Y-142310353D01*
X192895608Y-142327008D01*
X192878953Y-142340676D01*
X192859957Y-142350829D01*
X192839338Y-142357084D01*
X192811760Y-142359800D01*
X192303040Y-142359800D01*
X192275462Y-142357084D01*
X192254843Y-142350829D01*
X192235847Y-142340676D01*
X192219192Y-142327008D01*
X192205524Y-142310353D01*
X192195371Y-142291357D01*
X192189116Y-142270738D01*
X192186400Y-142243160D01*
X192186400Y-141784440D01*
X192189116Y-141756862D01*
X192195371Y-141736243D01*
X192205524Y-141717247D01*
X192219192Y-141700592D01*
X192235847Y-141686924D01*
X192254843Y-141676771D01*
X192275462Y-141670516D01*
X192303040Y-141667800D01*
X192811760Y-141667800D01*
X192839338Y-141670516D01*
X192839338Y-141670516D01*
G37*
G36*
X200281538Y-141314916D02*
G01*
X200302157Y-141321171D01*
X200321153Y-141331324D01*
X200337808Y-141344992D01*
X200351476Y-141361647D01*
X200361629Y-141380643D01*
X200367884Y-141401262D01*
X200370600Y-141428840D01*
X200370600Y-141887560D01*
X200367884Y-141915138D01*
X200361629Y-141935757D01*
X200351476Y-141954753D01*
X200337808Y-141971408D01*
X200321153Y-141985076D01*
X200302157Y-141995229D01*
X200281538Y-142001484D01*
X200253960Y-142004200D01*
X199745240Y-142004200D01*
X199717662Y-142001484D01*
X199697043Y-141995229D01*
X199678047Y-141985076D01*
X199661392Y-141971408D01*
X199647724Y-141954753D01*
X199637571Y-141935757D01*
X199631316Y-141915138D01*
X199628600Y-141887560D01*
X199628600Y-141428840D01*
X199631316Y-141401262D01*
X199637571Y-141380643D01*
X199647724Y-141361647D01*
X199661392Y-141344992D01*
X199678047Y-141331324D01*
X199697043Y-141321171D01*
X199717662Y-141314916D01*
X199745240Y-141312200D01*
X200253960Y-141312200D01*
X200281538Y-141314916D01*
X200281538Y-141314916D01*
G37*
G36*
X187519871Y-140956085D02*
G01*
X187553849Y-140966393D01*
X187585170Y-140983134D01*
X187612619Y-141005661D01*
X187635146Y-141033110D01*
X187651887Y-141064431D01*
X187662195Y-141098409D01*
X187666280Y-141139890D01*
X187666280Y-141816110D01*
X187662195Y-141857591D01*
X187651887Y-141891569D01*
X187635146Y-141922890D01*
X187612619Y-141950339D01*
X187585170Y-141972866D01*
X187553849Y-141989607D01*
X187519871Y-141999915D01*
X187478390Y-142004000D01*
X186877170Y-142004000D01*
X186835689Y-141999915D01*
X186801711Y-141989607D01*
X186770390Y-141972866D01*
X186742941Y-141950339D01*
X186720414Y-141922890D01*
X186703673Y-141891569D01*
X186693365Y-141857591D01*
X186689280Y-141816110D01*
X186689280Y-141139890D01*
X186693365Y-141098409D01*
X186703673Y-141064431D01*
X186720414Y-141033110D01*
X186742941Y-141005661D01*
X186770390Y-140983134D01*
X186801711Y-140966393D01*
X186835689Y-140956085D01*
X186877170Y-140952000D01*
X187478390Y-140952000D01*
X187519871Y-140956085D01*
X187519871Y-140956085D01*
G37*
G36*
X185944871Y-140956085D02*
G01*
X185978849Y-140966393D01*
X186010170Y-140983134D01*
X186037619Y-141005661D01*
X186060146Y-141033110D01*
X186076887Y-141064431D01*
X186087195Y-141098409D01*
X186091280Y-141139890D01*
X186091280Y-141816110D01*
X186087195Y-141857591D01*
X186076887Y-141891569D01*
X186060146Y-141922890D01*
X186037619Y-141950339D01*
X186010170Y-141972866D01*
X185978849Y-141989607D01*
X185944871Y-141999915D01*
X185903390Y-142004000D01*
X185302170Y-142004000D01*
X185260689Y-141999915D01*
X185226711Y-141989607D01*
X185195390Y-141972866D01*
X185167941Y-141950339D01*
X185145414Y-141922890D01*
X185128673Y-141891569D01*
X185118365Y-141857591D01*
X185114280Y-141816110D01*
X185114280Y-141139890D01*
X185118365Y-141098409D01*
X185128673Y-141064431D01*
X185145414Y-141033110D01*
X185167941Y-141005661D01*
X185195390Y-140983134D01*
X185226711Y-140966393D01*
X185260689Y-140956085D01*
X185302170Y-140952000D01*
X185903390Y-140952000D01*
X185944871Y-140956085D01*
X185944871Y-140956085D01*
G37*
G36*
X197254991Y-140866685D02*
G01*
X197288969Y-140876993D01*
X197320290Y-140893734D01*
X197347739Y-140916261D01*
X197370266Y-140943710D01*
X197387007Y-140975031D01*
X197397315Y-141009009D01*
X197401400Y-141050490D01*
X197401400Y-141651710D01*
X197397315Y-141693191D01*
X197387007Y-141727169D01*
X197370266Y-141758490D01*
X197347739Y-141785939D01*
X197320290Y-141808466D01*
X197288969Y-141825207D01*
X197254991Y-141835515D01*
X197213510Y-141839600D01*
X196537290Y-141839600D01*
X196495809Y-141835515D01*
X196461831Y-141825207D01*
X196430510Y-141808466D01*
X196403061Y-141785939D01*
X196380534Y-141758490D01*
X196363793Y-141727169D01*
X196353485Y-141693191D01*
X196349400Y-141651710D01*
X196349400Y-141050490D01*
X196353485Y-141009009D01*
X196363793Y-140975031D01*
X196380534Y-140943710D01*
X196403061Y-140916261D01*
X196430510Y-140893734D01*
X196461831Y-140876993D01*
X196495809Y-140866685D01*
X196537290Y-140862600D01*
X197213510Y-140862600D01*
X197254991Y-140866685D01*
X197254991Y-140866685D01*
G37*
G36*
X198778991Y-140866685D02*
G01*
X198812969Y-140876993D01*
X198844290Y-140893734D01*
X198871739Y-140916261D01*
X198894266Y-140943710D01*
X198911007Y-140975031D01*
X198921315Y-141009009D01*
X198925400Y-141050490D01*
X198925400Y-141651710D01*
X198921315Y-141693191D01*
X198911007Y-141727169D01*
X198894266Y-141758490D01*
X198871739Y-141785939D01*
X198844290Y-141808466D01*
X198812969Y-141825207D01*
X198778991Y-141835515D01*
X198737510Y-141839600D01*
X198061290Y-141839600D01*
X198019809Y-141835515D01*
X197985831Y-141825207D01*
X197954510Y-141808466D01*
X197927061Y-141785939D01*
X197904534Y-141758490D01*
X197887793Y-141727169D01*
X197877485Y-141693191D01*
X197873400Y-141651710D01*
X197873400Y-141050490D01*
X197877485Y-141009009D01*
X197887793Y-140975031D01*
X197904534Y-140943710D01*
X197927061Y-140916261D01*
X197954510Y-140893734D01*
X197985831Y-140876993D01*
X198019809Y-140866685D01*
X198061290Y-140862600D01*
X198737510Y-140862600D01*
X198778991Y-140866685D01*
X198778991Y-140866685D01*
G37*
G36*
X205802591Y-140651285D02*
G01*
X205836569Y-140661593D01*
X205867890Y-140678334D01*
X205895339Y-140700861D01*
X205917866Y-140728310D01*
X205934607Y-140759631D01*
X205944915Y-140793609D01*
X205949000Y-140835090D01*
X205949000Y-141511310D01*
X205944915Y-141552791D01*
X205934607Y-141586769D01*
X205917866Y-141618090D01*
X205895339Y-141645539D01*
X205867890Y-141668066D01*
X205836569Y-141684807D01*
X205802591Y-141695115D01*
X205761110Y-141699200D01*
X205159890Y-141699200D01*
X205118409Y-141695115D01*
X205084431Y-141684807D01*
X205053110Y-141668066D01*
X205025661Y-141645539D01*
X205003134Y-141618090D01*
X204986393Y-141586769D01*
X204976085Y-141552791D01*
X204972000Y-141511310D01*
X204972000Y-140835090D01*
X204976085Y-140793609D01*
X204986393Y-140759631D01*
X205003134Y-140728310D01*
X205025661Y-140700861D01*
X205053110Y-140678334D01*
X205084431Y-140661593D01*
X205118409Y-140651285D01*
X205159890Y-140647200D01*
X205761110Y-140647200D01*
X205802591Y-140651285D01*
X205802591Y-140651285D01*
G37*
G36*
X207377591Y-140651285D02*
G01*
X207411569Y-140661593D01*
X207442890Y-140678334D01*
X207470339Y-140700861D01*
X207492866Y-140728310D01*
X207509607Y-140759631D01*
X207519915Y-140793609D01*
X207524000Y-140835090D01*
X207524000Y-141511310D01*
X207519915Y-141552791D01*
X207509607Y-141586769D01*
X207492866Y-141618090D01*
X207470339Y-141645539D01*
X207442890Y-141668066D01*
X207411569Y-141684807D01*
X207377591Y-141695115D01*
X207336110Y-141699200D01*
X206734890Y-141699200D01*
X206693409Y-141695115D01*
X206659431Y-141684807D01*
X206628110Y-141668066D01*
X206600661Y-141645539D01*
X206578134Y-141618090D01*
X206561393Y-141586769D01*
X206551085Y-141552791D01*
X206547000Y-141511310D01*
X206547000Y-140835090D01*
X206551085Y-140793609D01*
X206561393Y-140759631D01*
X206578134Y-140728310D01*
X206600661Y-140700861D01*
X206628110Y-140678334D01*
X206659431Y-140661593D01*
X206693409Y-140651285D01*
X206734890Y-140647200D01*
X207336110Y-140647200D01*
X207377591Y-140651285D01*
X207377591Y-140651285D01*
G37*
G36*
X214686138Y-140754116D02*
G01*
X214706757Y-140760371D01*
X214725753Y-140770524D01*
X214742408Y-140784192D01*
X214756076Y-140800847D01*
X214766229Y-140819843D01*
X214772484Y-140840462D01*
X214775200Y-140868040D01*
X214775200Y-141376756D01*
X214772484Y-141404338D01*
X214766229Y-141424957D01*
X214756076Y-141443953D01*
X214742408Y-141460608D01*
X214725753Y-141474276D01*
X214706757Y-141484429D01*
X214686138Y-141490684D01*
X214658560Y-141493400D01*
X214199840Y-141493400D01*
X214172262Y-141490684D01*
X214151643Y-141484429D01*
X214132647Y-141474276D01*
X214115992Y-141460608D01*
X214102324Y-141443953D01*
X214092171Y-141424957D01*
X214085916Y-141404338D01*
X214083200Y-141376756D01*
X214083200Y-140868040D01*
X214085916Y-140840462D01*
X214092171Y-140819843D01*
X214102324Y-140800847D01*
X214115992Y-140784192D01*
X214132647Y-140770524D01*
X214151643Y-140760371D01*
X214172262Y-140754116D01*
X214199840Y-140751400D01*
X214658560Y-140751400D01*
X214686138Y-140754116D01*
X214686138Y-140754116D01*
G37*
G36*
X213716138Y-140754116D02*
G01*
X213736757Y-140760371D01*
X213755753Y-140770524D01*
X213772408Y-140784192D01*
X213786076Y-140800847D01*
X213796229Y-140819843D01*
X213802484Y-140840462D01*
X213805200Y-140868040D01*
X213805200Y-141376756D01*
X213802484Y-141404338D01*
X213796229Y-141424957D01*
X213786076Y-141443953D01*
X213772408Y-141460608D01*
X213755753Y-141474276D01*
X213736757Y-141484429D01*
X213716138Y-141490684D01*
X213688560Y-141493400D01*
X213229840Y-141493400D01*
X213202262Y-141490684D01*
X213181643Y-141484429D01*
X213162647Y-141474276D01*
X213145992Y-141460608D01*
X213132324Y-141443953D01*
X213122171Y-141424957D01*
X213115916Y-141404338D01*
X213113200Y-141376756D01*
X213113200Y-140868040D01*
X213115916Y-140840462D01*
X213122171Y-140819843D01*
X213132324Y-140800847D01*
X213145992Y-140784192D01*
X213162647Y-140770524D01*
X213181643Y-140760371D01*
X213202262Y-140754116D01*
X213229840Y-140751400D01*
X213688560Y-140751400D01*
X213716138Y-140754116D01*
X213716138Y-140754116D01*
G37*
G36*
X193880738Y-140725916D02*
G01*
X193901357Y-140732171D01*
X193920353Y-140742324D01*
X193937008Y-140755992D01*
X193950676Y-140772647D01*
X193960829Y-140791643D01*
X193967084Y-140812262D01*
X193969800Y-140839840D01*
X193969800Y-141298560D01*
X193967084Y-141326138D01*
X193960829Y-141346757D01*
X193950676Y-141365753D01*
X193937008Y-141382408D01*
X193920353Y-141396076D01*
X193901357Y-141406229D01*
X193880738Y-141412484D01*
X193853160Y-141415200D01*
X193344440Y-141415200D01*
X193316862Y-141412484D01*
X193296243Y-141406229D01*
X193277247Y-141396076D01*
X193260592Y-141382408D01*
X193246924Y-141365753D01*
X193236771Y-141346757D01*
X193230516Y-141326138D01*
X193227800Y-141298560D01*
X193227800Y-140839840D01*
X193230516Y-140812262D01*
X193236771Y-140791643D01*
X193246924Y-140772647D01*
X193260592Y-140755992D01*
X193277247Y-140742324D01*
X193296243Y-140732171D01*
X193316862Y-140725916D01*
X193344440Y-140723200D01*
X193853160Y-140723200D01*
X193880738Y-140725916D01*
X193880738Y-140725916D01*
G37*
G36*
X192839338Y-140700516D02*
G01*
X192859957Y-140706771D01*
X192878953Y-140716924D01*
X192895608Y-140730592D01*
X192909276Y-140747247D01*
X192919429Y-140766243D01*
X192925684Y-140786862D01*
X192928400Y-140814440D01*
X192928400Y-141273160D01*
X192925684Y-141300738D01*
X192919429Y-141321357D01*
X192909276Y-141340353D01*
X192895608Y-141357008D01*
X192878953Y-141370676D01*
X192859957Y-141380829D01*
X192839338Y-141387084D01*
X192811760Y-141389800D01*
X192303040Y-141389800D01*
X192275462Y-141387084D01*
X192254843Y-141380829D01*
X192235847Y-141370676D01*
X192219192Y-141357008D01*
X192205524Y-141340353D01*
X192195371Y-141321357D01*
X192189116Y-141300738D01*
X192186400Y-141273160D01*
X192186400Y-140814440D01*
X192189116Y-140786862D01*
X192195371Y-140766243D01*
X192205524Y-140747247D01*
X192219192Y-140730592D01*
X192235847Y-140716924D01*
X192254843Y-140706771D01*
X192275462Y-140700516D01*
X192303040Y-140697800D01*
X192811760Y-140697800D01*
X192839338Y-140700516D01*
X192839338Y-140700516D01*
G37*
G36*
X200281538Y-140344916D02*
G01*
X200302157Y-140351171D01*
X200321153Y-140361324D01*
X200337808Y-140374992D01*
X200351476Y-140391647D01*
X200361629Y-140410643D01*
X200367884Y-140431262D01*
X200370600Y-140458840D01*
X200370600Y-140917560D01*
X200367884Y-140945138D01*
X200361629Y-140965757D01*
X200351476Y-140984753D01*
X200337808Y-141001408D01*
X200321153Y-141015076D01*
X200302157Y-141025229D01*
X200281538Y-141031484D01*
X200253960Y-141034200D01*
X199745240Y-141034200D01*
X199717662Y-141031484D01*
X199697043Y-141025229D01*
X199678047Y-141015076D01*
X199661392Y-141001408D01*
X199647724Y-140984753D01*
X199637571Y-140965757D01*
X199631316Y-140945138D01*
X199628600Y-140917560D01*
X199628600Y-140458840D01*
X199631316Y-140431262D01*
X199637571Y-140410643D01*
X199647724Y-140391647D01*
X199661392Y-140374992D01*
X199678047Y-140361324D01*
X199697043Y-140351171D01*
X199717662Y-140344916D01*
X199745240Y-140342200D01*
X200253960Y-140342200D01*
X200281538Y-140344916D01*
X200281538Y-140344916D01*
G37*
G36*
X198778991Y-139291685D02*
G01*
X198812969Y-139301993D01*
X198844290Y-139318734D01*
X198871739Y-139341261D01*
X198894266Y-139368710D01*
X198911007Y-139400031D01*
X198921315Y-139434009D01*
X198925400Y-139475490D01*
X198925400Y-140076710D01*
X198921315Y-140118191D01*
X198911007Y-140152169D01*
X198894266Y-140183490D01*
X198871739Y-140210939D01*
X198844290Y-140233466D01*
X198812969Y-140250207D01*
X198778991Y-140260515D01*
X198737510Y-140264600D01*
X198061290Y-140264600D01*
X198019809Y-140260515D01*
X197985831Y-140250207D01*
X197954510Y-140233466D01*
X197927061Y-140210939D01*
X197904534Y-140183490D01*
X197887793Y-140152169D01*
X197877485Y-140118191D01*
X197873400Y-140076710D01*
X197873400Y-139475490D01*
X197877485Y-139434009D01*
X197887793Y-139400031D01*
X197904534Y-139368710D01*
X197927061Y-139341261D01*
X197954510Y-139318734D01*
X197985831Y-139301993D01*
X198019809Y-139291685D01*
X198061290Y-139287600D01*
X198737510Y-139287600D01*
X198778991Y-139291685D01*
X198778991Y-139291685D01*
G37*
G36*
X197254991Y-139291685D02*
G01*
X197288969Y-139301993D01*
X197320290Y-139318734D01*
X197347739Y-139341261D01*
X197370266Y-139368710D01*
X197387007Y-139400031D01*
X197397315Y-139434009D01*
X197401400Y-139475490D01*
X197401400Y-140076710D01*
X197397315Y-140118191D01*
X197387007Y-140152169D01*
X197370266Y-140183490D01*
X197347739Y-140210939D01*
X197320290Y-140233466D01*
X197288969Y-140250207D01*
X197254991Y-140260515D01*
X197213510Y-140264600D01*
X196537290Y-140264600D01*
X196495809Y-140260515D01*
X196461831Y-140250207D01*
X196430510Y-140233466D01*
X196403061Y-140210939D01*
X196380534Y-140183490D01*
X196363793Y-140152169D01*
X196353485Y-140118191D01*
X196349400Y-140076710D01*
X196349400Y-139475490D01*
X196353485Y-139434009D01*
X196363793Y-139400031D01*
X196380534Y-139368710D01*
X196403061Y-139341261D01*
X196430510Y-139318734D01*
X196461831Y-139301993D01*
X196495809Y-139291685D01*
X196537290Y-139287600D01*
X197213510Y-139287600D01*
X197254991Y-139291685D01*
X197254991Y-139291685D01*
G37*
G36*
X219793043Y-138435319D02*
G01*
X219859227Y-138441837D01*
X220029066Y-138493357D01*
X220185591Y-138577022D01*
X220221329Y-138606352D01*
X220322786Y-138689614D01*
X220406048Y-138791071D01*
X220435378Y-138826809D01*
X220435379Y-138826811D01*
X220504540Y-138956200D01*
X220519043Y-138983334D01*
X220570563Y-139153173D01*
X220587959Y-139329800D01*
X220570563Y-139506427D01*
X220519043Y-139676266D01*
X220435378Y-139832791D01*
X220406048Y-139868529D01*
X220322786Y-139969986D01*
X220227080Y-140048529D01*
X220185591Y-140082578D01*
X220029066Y-140166243D01*
X219859227Y-140217763D01*
X219801627Y-140223436D01*
X219726860Y-140230800D01*
X219388340Y-140230800D01*
X219313573Y-140223436D01*
X219255973Y-140217763D01*
X219086134Y-140166243D01*
X218929609Y-140082578D01*
X218888120Y-140048529D01*
X218792414Y-139969986D01*
X218709152Y-139868529D01*
X218679822Y-139832791D01*
X218596157Y-139676266D01*
X218544637Y-139506427D01*
X218527241Y-139329800D01*
X218544637Y-139153173D01*
X218596157Y-138983334D01*
X218610661Y-138956200D01*
X218679821Y-138826811D01*
X218679822Y-138826809D01*
X218709152Y-138791071D01*
X218792414Y-138689614D01*
X218893871Y-138606352D01*
X218929609Y-138577022D01*
X219086134Y-138493357D01*
X219255973Y-138441837D01*
X219322157Y-138435319D01*
X219388340Y-138428800D01*
X219726860Y-138428800D01*
X219793043Y-138435319D01*
X219793043Y-138435319D01*
G37*
G36*
X185929631Y-139147605D02*
G01*
X185963609Y-139157913D01*
X185994930Y-139174654D01*
X186022379Y-139197181D01*
X186044906Y-139224630D01*
X186061647Y-139255951D01*
X186071955Y-139289929D01*
X186076040Y-139331410D01*
X186076040Y-140007630D01*
X186071955Y-140049111D01*
X186061647Y-140083089D01*
X186044906Y-140114410D01*
X186022379Y-140141859D01*
X185994930Y-140164386D01*
X185963609Y-140181127D01*
X185929631Y-140191435D01*
X185888150Y-140195520D01*
X185286930Y-140195520D01*
X185245449Y-140191435D01*
X185211471Y-140181127D01*
X185180150Y-140164386D01*
X185152701Y-140141859D01*
X185130174Y-140114410D01*
X185113433Y-140083089D01*
X185103125Y-140049111D01*
X185099040Y-140007630D01*
X185099040Y-139331410D01*
X185103125Y-139289929D01*
X185113433Y-139255951D01*
X185130174Y-139224630D01*
X185152701Y-139197181D01*
X185180150Y-139174654D01*
X185211471Y-139157913D01*
X185245449Y-139147605D01*
X185286930Y-139143520D01*
X185888150Y-139143520D01*
X185929631Y-139147605D01*
X185929631Y-139147605D01*
G37*
G36*
X187504631Y-139147605D02*
G01*
X187538609Y-139157913D01*
X187569930Y-139174654D01*
X187597379Y-139197181D01*
X187619906Y-139224630D01*
X187636647Y-139255951D01*
X187646955Y-139289929D01*
X187651040Y-139331410D01*
X187651040Y-140007630D01*
X187646955Y-140049111D01*
X187636647Y-140083089D01*
X187619906Y-140114410D01*
X187597379Y-140141859D01*
X187569930Y-140164386D01*
X187538609Y-140181127D01*
X187504631Y-140191435D01*
X187463150Y-140195520D01*
X186861930Y-140195520D01*
X186820449Y-140191435D01*
X186786471Y-140181127D01*
X186755150Y-140164386D01*
X186727701Y-140141859D01*
X186705174Y-140114410D01*
X186688433Y-140083089D01*
X186678125Y-140049111D01*
X186674040Y-140007630D01*
X186674040Y-139331410D01*
X186678125Y-139289929D01*
X186688433Y-139255951D01*
X186705174Y-139224630D01*
X186727701Y-139197181D01*
X186755150Y-139174654D01*
X186786471Y-139157913D01*
X186820449Y-139147605D01*
X186861930Y-139143520D01*
X187463150Y-139143520D01*
X187504631Y-139147605D01*
X187504631Y-139147605D01*
G37*
G36*
X181789564Y-138054389D02*
G01*
X181980833Y-138133615D01*
X181980835Y-138133616D01*
X182152973Y-138248635D01*
X182299365Y-138395027D01*
X182405481Y-138553840D01*
X182414385Y-138567167D01*
X182493611Y-138758436D01*
X182534000Y-138961484D01*
X182534000Y-139168516D01*
X182493611Y-139371564D01*
X182415567Y-139559979D01*
X182414384Y-139562835D01*
X182299365Y-139734973D01*
X182152973Y-139881365D01*
X181980835Y-139996384D01*
X181980834Y-139996385D01*
X181980833Y-139996385D01*
X181789564Y-140075611D01*
X181586516Y-140116000D01*
X181379484Y-140116000D01*
X181176436Y-140075611D01*
X180985167Y-139996385D01*
X180985166Y-139996385D01*
X180985165Y-139996384D01*
X180813027Y-139881365D01*
X180666635Y-139734973D01*
X180551616Y-139562835D01*
X180550433Y-139559979D01*
X180472389Y-139371564D01*
X180432000Y-139168516D01*
X180432000Y-138961484D01*
X180472389Y-138758436D01*
X180551615Y-138567167D01*
X180560520Y-138553840D01*
X180666635Y-138395027D01*
X180813027Y-138248635D01*
X180985165Y-138133616D01*
X180985167Y-138133615D01*
X181176436Y-138054389D01*
X181379484Y-138014000D01*
X181586516Y-138014000D01*
X181789564Y-138054389D01*
X181789564Y-138054389D01*
G37*
G36*
X194175378Y-139409916D02*
G01*
X194195997Y-139416171D01*
X194214993Y-139426324D01*
X194231648Y-139439992D01*
X194245316Y-139456647D01*
X194255469Y-139475643D01*
X194261724Y-139496262D01*
X194264440Y-139523840D01*
X194264440Y-139982560D01*
X194261724Y-140010138D01*
X194255469Y-140030757D01*
X194245316Y-140049753D01*
X194231648Y-140066408D01*
X194214993Y-140080076D01*
X194195997Y-140090229D01*
X194175378Y-140096484D01*
X194147800Y-140099200D01*
X193639080Y-140099200D01*
X193611502Y-140096484D01*
X193590883Y-140090229D01*
X193571887Y-140080076D01*
X193555232Y-140066408D01*
X193541564Y-140049753D01*
X193531411Y-140030757D01*
X193525156Y-140010138D01*
X193522440Y-139982560D01*
X193522440Y-139523840D01*
X193525156Y-139496262D01*
X193531411Y-139475643D01*
X193541564Y-139456647D01*
X193555232Y-139439992D01*
X193571887Y-139426324D01*
X193590883Y-139416171D01*
X193611502Y-139409916D01*
X193639080Y-139407200D01*
X194147800Y-139407200D01*
X194175378Y-139409916D01*
X194175378Y-139409916D01*
G37*
G36*
X173765283Y-137912427D02*
G01*
X173834427Y-137919237D01*
X174004266Y-137970757D01*
X174160791Y-138054422D01*
X174196529Y-138083752D01*
X174297986Y-138167014D01*
X174381248Y-138268471D01*
X174410578Y-138304209D01*
X174424765Y-138330750D01*
X174483116Y-138439916D01*
X174494243Y-138460734D01*
X174545763Y-138630573D01*
X174563159Y-138807200D01*
X174545763Y-138983827D01*
X174494243Y-139153666D01*
X174494242Y-139153668D01*
X174485402Y-139170207D01*
X174410578Y-139310191D01*
X174385079Y-139341261D01*
X174297986Y-139447386D01*
X174217077Y-139513785D01*
X174160791Y-139559978D01*
X174004266Y-139643643D01*
X173834427Y-139695163D01*
X173768243Y-139701681D01*
X173702060Y-139708200D01*
X173363540Y-139708200D01*
X173297357Y-139701681D01*
X173231173Y-139695163D01*
X173061334Y-139643643D01*
X172904809Y-139559978D01*
X172848523Y-139513785D01*
X172767614Y-139447386D01*
X172680521Y-139341261D01*
X172655022Y-139310191D01*
X172580198Y-139170207D01*
X172571358Y-139153668D01*
X172571357Y-139153666D01*
X172519837Y-138983827D01*
X172502441Y-138807200D01*
X172519837Y-138630573D01*
X172571357Y-138460734D01*
X172582485Y-138439916D01*
X172640835Y-138330750D01*
X172655022Y-138304209D01*
X172684352Y-138268471D01*
X172767614Y-138167014D01*
X172869071Y-138083752D01*
X172904809Y-138054422D01*
X173061334Y-137970757D01*
X173231173Y-137919237D01*
X173300317Y-137912427D01*
X173363540Y-137906200D01*
X173702060Y-137906200D01*
X173765283Y-137912427D01*
X173765283Y-137912427D01*
G37*
G36*
X200587600Y-139705200D02*
G01*
X199685600Y-139705200D01*
X199685600Y-138703200D01*
X200587600Y-138703200D01*
X200587600Y-139705200D01*
X200587600Y-139705200D01*
G37*
G36*
X201837600Y-139705200D02*
G01*
X200935600Y-139705200D01*
X200935600Y-138703200D01*
X201837600Y-138703200D01*
X201837600Y-139705200D01*
X201837600Y-139705200D01*
G37*
G36*
X214123764Y-137571789D02*
G01*
X214315033Y-137651015D01*
X214315035Y-137651016D01*
X214487173Y-137766035D01*
X214633565Y-137912427D01*
X214728422Y-138054390D01*
X214748585Y-138084567D01*
X214827811Y-138275836D01*
X214868200Y-138478884D01*
X214868200Y-138685916D01*
X214827811Y-138888964D01*
X214785981Y-138989951D01*
X214748584Y-139080235D01*
X214633565Y-139252373D01*
X214487173Y-139398765D01*
X214315035Y-139513784D01*
X214315034Y-139513785D01*
X214315033Y-139513785D01*
X214123764Y-139593011D01*
X213920716Y-139633400D01*
X213713684Y-139633400D01*
X213510636Y-139593011D01*
X213319367Y-139513785D01*
X213319366Y-139513785D01*
X213319365Y-139513784D01*
X213147227Y-139398765D01*
X213000835Y-139252373D01*
X212885816Y-139080235D01*
X212848419Y-138989951D01*
X212806589Y-138888964D01*
X212766200Y-138685916D01*
X212766200Y-138478884D01*
X212806589Y-138275836D01*
X212885815Y-138084567D01*
X212905979Y-138054390D01*
X213000835Y-137912427D01*
X213147227Y-137766035D01*
X213319365Y-137651016D01*
X213319367Y-137651015D01*
X213510636Y-137571789D01*
X213713684Y-137531400D01*
X213920716Y-137531400D01*
X214123764Y-137571789D01*
X214123764Y-137571789D01*
G37*
G36*
X209612591Y-138136685D02*
G01*
X209646569Y-138146993D01*
X209677890Y-138163734D01*
X209705339Y-138186261D01*
X209727866Y-138213710D01*
X209744607Y-138245031D01*
X209754915Y-138279009D01*
X209759000Y-138320490D01*
X209759000Y-138996710D01*
X209754915Y-139038191D01*
X209744607Y-139072169D01*
X209727866Y-139103490D01*
X209705339Y-139130939D01*
X209677890Y-139153466D01*
X209646569Y-139170207D01*
X209612591Y-139180515D01*
X209571110Y-139184600D01*
X208969890Y-139184600D01*
X208928409Y-139180515D01*
X208894431Y-139170207D01*
X208863110Y-139153466D01*
X208835661Y-139130939D01*
X208813134Y-139103490D01*
X208796393Y-139072169D01*
X208786085Y-139038191D01*
X208782000Y-138996710D01*
X208782000Y-138320490D01*
X208786085Y-138279009D01*
X208796393Y-138245031D01*
X208813134Y-138213710D01*
X208835661Y-138186261D01*
X208863110Y-138163734D01*
X208894431Y-138146993D01*
X208928409Y-138136685D01*
X208969890Y-138132600D01*
X209571110Y-138132600D01*
X209612591Y-138136685D01*
X209612591Y-138136685D01*
G37*
G36*
X211187591Y-138136685D02*
G01*
X211221569Y-138146993D01*
X211252890Y-138163734D01*
X211280339Y-138186261D01*
X211302866Y-138213710D01*
X211319607Y-138245031D01*
X211329915Y-138279009D01*
X211334000Y-138320490D01*
X211334000Y-138996710D01*
X211329915Y-139038191D01*
X211319607Y-139072169D01*
X211302866Y-139103490D01*
X211280339Y-139130939D01*
X211252890Y-139153466D01*
X211221569Y-139170207D01*
X211187591Y-139180515D01*
X211146110Y-139184600D01*
X210544890Y-139184600D01*
X210503409Y-139180515D01*
X210469431Y-139170207D01*
X210438110Y-139153466D01*
X210410661Y-139130939D01*
X210388134Y-139103490D01*
X210371393Y-139072169D01*
X210361085Y-139038191D01*
X210357000Y-138996710D01*
X210357000Y-138320490D01*
X210361085Y-138279009D01*
X210371393Y-138245031D01*
X210388134Y-138213710D01*
X210410661Y-138186261D01*
X210438110Y-138163734D01*
X210469431Y-138146993D01*
X210503409Y-138136685D01*
X210544890Y-138132600D01*
X211146110Y-138132600D01*
X211187591Y-138136685D01*
X211187591Y-138136685D01*
G37*
G36*
X194175378Y-138439916D02*
G01*
X194195997Y-138446171D01*
X194214993Y-138456324D01*
X194231648Y-138469992D01*
X194245316Y-138486647D01*
X194255469Y-138505643D01*
X194261724Y-138526262D01*
X194264440Y-138553840D01*
X194264440Y-139012560D01*
X194261724Y-139040138D01*
X194255469Y-139060757D01*
X194245316Y-139079753D01*
X194231648Y-139096408D01*
X194214993Y-139110076D01*
X194195997Y-139120229D01*
X194175378Y-139126484D01*
X194147800Y-139129200D01*
X193639080Y-139129200D01*
X193611502Y-139126484D01*
X193590883Y-139120229D01*
X193571887Y-139110076D01*
X193555232Y-139096408D01*
X193541564Y-139079753D01*
X193531411Y-139060757D01*
X193525156Y-139040138D01*
X193522440Y-139012560D01*
X193522440Y-138553840D01*
X193525156Y-138526262D01*
X193531411Y-138505643D01*
X193541564Y-138486647D01*
X193555232Y-138469992D01*
X193571887Y-138456324D01*
X193590883Y-138446171D01*
X193611502Y-138439916D01*
X193639080Y-138437200D01*
X194147800Y-138437200D01*
X194175378Y-138439916D01*
X194175378Y-138439916D01*
G37*
G36*
X190689791Y-137527085D02*
G01*
X190723769Y-137537393D01*
X190755090Y-137554134D01*
X190782539Y-137576661D01*
X190805066Y-137604110D01*
X190821807Y-137635431D01*
X190832115Y-137669409D01*
X190836200Y-137710890D01*
X190836200Y-138387110D01*
X190832115Y-138428591D01*
X190821807Y-138462569D01*
X190805066Y-138493890D01*
X190782539Y-138521339D01*
X190755090Y-138543866D01*
X190723769Y-138560607D01*
X190689791Y-138570915D01*
X190648310Y-138575000D01*
X190047090Y-138575000D01*
X190005609Y-138570915D01*
X189971631Y-138560607D01*
X189940310Y-138543866D01*
X189912861Y-138521339D01*
X189890334Y-138493890D01*
X189873593Y-138462569D01*
X189863285Y-138428591D01*
X189859200Y-138387110D01*
X189859200Y-137710890D01*
X189863285Y-137669409D01*
X189873593Y-137635431D01*
X189890334Y-137604110D01*
X189912861Y-137576661D01*
X189940310Y-137554134D01*
X189971631Y-137537393D01*
X190005609Y-137527085D01*
X190047090Y-137523000D01*
X190648310Y-137523000D01*
X190689791Y-137527085D01*
X190689791Y-137527085D01*
G37*
G36*
X189114791Y-137527085D02*
G01*
X189148769Y-137537393D01*
X189180090Y-137554134D01*
X189207539Y-137576661D01*
X189230066Y-137604110D01*
X189246807Y-137635431D01*
X189257115Y-137669409D01*
X189261200Y-137710890D01*
X189261200Y-138387110D01*
X189257115Y-138428591D01*
X189246807Y-138462569D01*
X189230066Y-138493890D01*
X189207539Y-138521339D01*
X189180090Y-138543866D01*
X189148769Y-138560607D01*
X189114791Y-138570915D01*
X189073310Y-138575000D01*
X188472090Y-138575000D01*
X188430609Y-138570915D01*
X188396631Y-138560607D01*
X188365310Y-138543866D01*
X188337861Y-138521339D01*
X188315334Y-138493890D01*
X188298593Y-138462569D01*
X188288285Y-138428591D01*
X188284200Y-138387110D01*
X188284200Y-137710890D01*
X188288285Y-137669409D01*
X188298593Y-137635431D01*
X188315334Y-137604110D01*
X188337861Y-137576661D01*
X188365310Y-137554134D01*
X188396631Y-137537393D01*
X188430609Y-137527085D01*
X188472090Y-137523000D01*
X189073310Y-137523000D01*
X189114791Y-137527085D01*
X189114791Y-137527085D01*
G37*
G36*
X201837600Y-138055200D02*
G01*
X200935600Y-138055200D01*
X200935600Y-137053200D01*
X201837600Y-137053200D01*
X201837600Y-138055200D01*
X201837600Y-138055200D01*
G37*
G36*
X200587600Y-138055200D02*
G01*
X199685600Y-138055200D01*
X199685600Y-137053200D01*
X200587600Y-137053200D01*
X200587600Y-138055200D01*
X200587600Y-138055200D01*
G37*
G36*
X192758416Y-136992843D02*
G01*
X192762556Y-136994099D01*
X192781716Y-137002035D01*
X192805750Y-137006815D01*
X192830254Y-137006815D01*
X192854287Y-137002034D01*
X192873445Y-136994099D01*
X192877584Y-136992843D01*
X192886143Y-136992000D01*
X193149857Y-136992000D01*
X193158416Y-136992843D01*
X193162556Y-136994099D01*
X193181716Y-137002035D01*
X193205750Y-137006815D01*
X193230254Y-137006815D01*
X193254287Y-137002034D01*
X193273445Y-136994099D01*
X193277584Y-136992843D01*
X193286143Y-136992000D01*
X193549857Y-136992000D01*
X193558416Y-136992843D01*
X193562556Y-136994099D01*
X193581716Y-137002035D01*
X193605750Y-137006815D01*
X193630254Y-137006815D01*
X193654287Y-137002034D01*
X193673445Y-136994099D01*
X193677584Y-136992843D01*
X193686143Y-136992000D01*
X193949857Y-136992000D01*
X193958416Y-136992843D01*
X193962556Y-136994099D01*
X193981716Y-137002035D01*
X194005750Y-137006815D01*
X194030254Y-137006815D01*
X194054287Y-137002034D01*
X194073445Y-136994099D01*
X194077584Y-136992843D01*
X194086143Y-136992000D01*
X194349857Y-136992000D01*
X194358416Y-136992843D01*
X194362556Y-136994099D01*
X194381716Y-137002035D01*
X194405750Y-137006815D01*
X194430254Y-137006815D01*
X194454287Y-137002034D01*
X194473445Y-136994099D01*
X194477584Y-136992843D01*
X194486143Y-136992000D01*
X194749857Y-136992000D01*
X194758416Y-136992843D01*
X194762556Y-136994099D01*
X194781716Y-137002035D01*
X194805750Y-137006815D01*
X194830254Y-137006815D01*
X194854287Y-137002034D01*
X194873445Y-136994099D01*
X194877584Y-136992843D01*
X194886143Y-136992000D01*
X195149857Y-136992000D01*
X195158416Y-136992843D01*
X195162556Y-136994099D01*
X195181716Y-137002035D01*
X195205750Y-137006815D01*
X195230254Y-137006815D01*
X195254287Y-137002034D01*
X195273445Y-136994099D01*
X195277584Y-136992843D01*
X195286143Y-136992000D01*
X195549857Y-136992000D01*
X195558416Y-136992843D01*
X195562556Y-136994099D01*
X195581716Y-137002035D01*
X195605750Y-137006815D01*
X195630254Y-137006815D01*
X195654287Y-137002034D01*
X195673445Y-136994099D01*
X195677584Y-136992843D01*
X195686143Y-136992000D01*
X195949857Y-136992000D01*
X195958416Y-136992843D01*
X195962556Y-136994099D01*
X195981716Y-137002035D01*
X196005750Y-137006815D01*
X196030254Y-137006815D01*
X196054287Y-137002034D01*
X196073445Y-136994099D01*
X196077584Y-136992843D01*
X196086143Y-136992000D01*
X196349857Y-136992000D01*
X196358416Y-136992843D01*
X196362556Y-136994099D01*
X196381716Y-137002035D01*
X196405750Y-137006815D01*
X196430254Y-137006815D01*
X196454287Y-137002034D01*
X196473445Y-136994099D01*
X196477584Y-136992843D01*
X196486143Y-136992000D01*
X196749857Y-136992000D01*
X196758416Y-136992843D01*
X196762556Y-136994099D01*
X196781716Y-137002035D01*
X196805750Y-137006815D01*
X196830254Y-137006815D01*
X196854287Y-137002034D01*
X196873445Y-136994099D01*
X196877584Y-136992843D01*
X196886143Y-136992000D01*
X197149857Y-136992000D01*
X197158416Y-136992843D01*
X197163476Y-136994378D01*
X197166100Y-136994900D01*
X197166622Y-136997524D01*
X197168157Y-137002584D01*
X197169000Y-137011143D01*
X197169000Y-137874857D01*
X197168157Y-137883416D01*
X197167450Y-137885745D01*
X197166305Y-137887887D01*
X197164765Y-137889765D01*
X197162887Y-137891305D01*
X197160745Y-137892450D01*
X197158416Y-137893157D01*
X197149857Y-137894000D01*
X196886143Y-137894000D01*
X196877584Y-137893157D01*
X196873444Y-137891901D01*
X196854284Y-137883965D01*
X196830250Y-137879185D01*
X196805746Y-137879185D01*
X196781713Y-137883966D01*
X196762555Y-137891901D01*
X196758416Y-137893157D01*
X196749857Y-137894000D01*
X196486143Y-137894000D01*
X196477584Y-137893157D01*
X196473444Y-137891901D01*
X196454284Y-137883965D01*
X196430250Y-137879185D01*
X196405746Y-137879185D01*
X196381713Y-137883966D01*
X196362555Y-137891901D01*
X196358416Y-137893157D01*
X196349857Y-137894000D01*
X196086143Y-137894000D01*
X196077584Y-137893157D01*
X196073444Y-137891901D01*
X196054284Y-137883965D01*
X196030250Y-137879185D01*
X196005746Y-137879185D01*
X195981713Y-137883966D01*
X195962555Y-137891901D01*
X195958416Y-137893157D01*
X195949857Y-137894000D01*
X195686143Y-137894000D01*
X195677584Y-137893157D01*
X195673444Y-137891901D01*
X195654284Y-137883965D01*
X195630250Y-137879185D01*
X195605746Y-137879185D01*
X195581713Y-137883966D01*
X195562555Y-137891901D01*
X195558416Y-137893157D01*
X195549857Y-137894000D01*
X195286143Y-137894000D01*
X195277584Y-137893157D01*
X195273444Y-137891901D01*
X195254284Y-137883965D01*
X195230250Y-137879185D01*
X195205746Y-137879185D01*
X195181713Y-137883966D01*
X195162555Y-137891901D01*
X195158416Y-137893157D01*
X195149857Y-137894000D01*
X194886143Y-137894000D01*
X194877584Y-137893157D01*
X194873444Y-137891901D01*
X194854284Y-137883965D01*
X194830250Y-137879185D01*
X194805746Y-137879185D01*
X194781713Y-137883966D01*
X194762555Y-137891901D01*
X194758416Y-137893157D01*
X194749857Y-137894000D01*
X194486143Y-137894000D01*
X194477584Y-137893157D01*
X194473444Y-137891901D01*
X194454284Y-137883965D01*
X194430250Y-137879185D01*
X194405746Y-137879185D01*
X194381713Y-137883966D01*
X194362555Y-137891901D01*
X194358416Y-137893157D01*
X194349857Y-137894000D01*
X194086143Y-137894000D01*
X194077584Y-137893157D01*
X194073444Y-137891901D01*
X194054284Y-137883965D01*
X194030250Y-137879185D01*
X194005746Y-137879185D01*
X193981713Y-137883966D01*
X193962555Y-137891901D01*
X193958416Y-137893157D01*
X193949857Y-137894000D01*
X193686143Y-137894000D01*
X193677584Y-137893157D01*
X193673444Y-137891901D01*
X193654284Y-137883965D01*
X193630250Y-137879185D01*
X193605746Y-137879185D01*
X193581713Y-137883966D01*
X193562555Y-137891901D01*
X193558416Y-137893157D01*
X193549857Y-137894000D01*
X193286143Y-137894000D01*
X193277584Y-137893157D01*
X193273444Y-137891901D01*
X193254284Y-137883965D01*
X193230250Y-137879185D01*
X193205746Y-137879185D01*
X193181713Y-137883966D01*
X193162555Y-137891901D01*
X193158416Y-137893157D01*
X193149857Y-137894000D01*
X192886143Y-137894000D01*
X192877584Y-137893157D01*
X192873444Y-137891901D01*
X192854284Y-137883965D01*
X192830250Y-137879185D01*
X192805746Y-137879185D01*
X192781713Y-137883966D01*
X192762555Y-137891901D01*
X192758416Y-137893157D01*
X192749857Y-137894000D01*
X192486143Y-137894000D01*
X192477584Y-137893157D01*
X192475255Y-137892450D01*
X192473113Y-137891305D01*
X192471235Y-137889765D01*
X192469695Y-137887887D01*
X192468550Y-137885745D01*
X192467843Y-137883416D01*
X192467000Y-137874857D01*
X192467000Y-137011143D01*
X192467843Y-137002584D01*
X192469378Y-136997524D01*
X192469900Y-136994900D01*
X192472524Y-136994378D01*
X192477584Y-136992843D01*
X192486143Y-136992000D01*
X192749857Y-136992000D01*
X192758416Y-136992843D01*
X192758416Y-136992843D01*
G37*
G36*
X220441200Y-135932789D02*
G01*
X220474252Y-135942815D01*
X220504703Y-135959092D01*
X220531399Y-135981001D01*
X220553308Y-136007697D01*
X220569585Y-136038148D01*
X220579611Y-136071200D01*
X220583600Y-136111703D01*
X220583600Y-137547897D01*
X220579611Y-137588400D01*
X220569585Y-137621452D01*
X220553308Y-137651903D01*
X220531399Y-137678599D01*
X220504703Y-137700508D01*
X220474252Y-137716785D01*
X220441200Y-137726811D01*
X220400697Y-137730800D01*
X218714503Y-137730800D01*
X218674000Y-137726811D01*
X218640948Y-137716785D01*
X218610497Y-137700508D01*
X218583801Y-137678599D01*
X218561892Y-137651903D01*
X218545615Y-137621452D01*
X218535589Y-137588400D01*
X218531600Y-137547897D01*
X218531600Y-136111703D01*
X218535589Y-136071200D01*
X218545615Y-136038148D01*
X218561892Y-136007697D01*
X218583801Y-135981001D01*
X218610497Y-135959092D01*
X218640948Y-135942815D01*
X218674000Y-135932789D01*
X218714503Y-135928800D01*
X220400697Y-135928800D01*
X220441200Y-135932789D01*
X220441200Y-135932789D01*
G37*
G36*
X173768242Y-135412718D02*
G01*
X173834427Y-135419237D01*
X174004266Y-135470757D01*
X174160791Y-135554422D01*
X174177945Y-135568500D01*
X174297986Y-135667014D01*
X174377672Y-135764113D01*
X174410578Y-135804209D01*
X174494243Y-135960734D01*
X174545763Y-136130573D01*
X174563159Y-136307200D01*
X174545763Y-136483827D01*
X174494243Y-136653666D01*
X174410578Y-136810191D01*
X174384022Y-136842549D01*
X174297986Y-136947386D01*
X174196529Y-137030648D01*
X174160791Y-137059978D01*
X174004266Y-137143643D01*
X173834427Y-137195163D01*
X173768243Y-137201681D01*
X173702060Y-137208200D01*
X173363540Y-137208200D01*
X173297357Y-137201681D01*
X173231173Y-137195163D01*
X173061334Y-137143643D01*
X172904809Y-137059978D01*
X172869071Y-137030648D01*
X172767614Y-136947386D01*
X172681578Y-136842549D01*
X172655022Y-136810191D01*
X172571357Y-136653666D01*
X172519837Y-136483827D01*
X172502441Y-136307200D01*
X172519837Y-136130573D01*
X172571357Y-135960734D01*
X172655022Y-135804209D01*
X172687928Y-135764113D01*
X172767614Y-135667014D01*
X172887655Y-135568500D01*
X172904809Y-135554422D01*
X173061334Y-135470757D01*
X173231173Y-135419237D01*
X173297358Y-135412718D01*
X173363540Y-135406200D01*
X173702060Y-135406200D01*
X173768242Y-135412718D01*
X173768242Y-135412718D01*
G37*
G36*
X209615200Y-137190600D02*
G01*
X208453200Y-137190600D01*
X208453200Y-134538600D01*
X209615200Y-134538600D01*
X209615200Y-137190600D01*
X209615200Y-137190600D01*
G37*
G36*
X211815200Y-137190600D02*
G01*
X210653200Y-137190600D01*
X210653200Y-134538600D01*
X211815200Y-134538600D01*
X211815200Y-137190600D01*
X211815200Y-137190600D01*
G37*
G36*
X183872364Y-134853989D02*
G01*
X184063633Y-134933215D01*
X184063635Y-134933216D01*
X184235773Y-135048235D01*
X184382165Y-135194627D01*
X184487709Y-135352584D01*
X184497185Y-135366767D01*
X184576411Y-135558036D01*
X184616800Y-135761084D01*
X184616800Y-135968116D01*
X184576411Y-136171164D01*
X184508762Y-136334484D01*
X184497184Y-136362435D01*
X184382165Y-136534573D01*
X184235773Y-136680965D01*
X184063635Y-136795984D01*
X184063634Y-136795985D01*
X184063633Y-136795985D01*
X183872364Y-136875211D01*
X183669316Y-136915600D01*
X183462284Y-136915600D01*
X183259236Y-136875211D01*
X183067967Y-136795985D01*
X183067966Y-136795985D01*
X183067965Y-136795984D01*
X182895827Y-136680965D01*
X182749435Y-136534573D01*
X182634416Y-136362435D01*
X182622838Y-136334484D01*
X182555189Y-136171164D01*
X182514800Y-135968116D01*
X182514800Y-135761084D01*
X182555189Y-135558036D01*
X182634415Y-135366767D01*
X182643892Y-135352584D01*
X182749435Y-135194627D01*
X182895827Y-135048235D01*
X183067965Y-134933216D01*
X183067967Y-134933215D01*
X183259236Y-134853989D01*
X183462284Y-134813600D01*
X183669316Y-134813600D01*
X183872364Y-134853989D01*
X183872364Y-134853989D01*
G37*
G36*
X198208416Y-132142843D02*
G01*
X198210745Y-132143550D01*
X198212887Y-132144695D01*
X198214765Y-132146235D01*
X198216305Y-132148113D01*
X198217450Y-132150255D01*
X198218157Y-132152584D01*
X198219000Y-132161143D01*
X198219000Y-132424857D01*
X198218157Y-132433416D01*
X198216901Y-132437556D01*
X198208965Y-132456716D01*
X198204185Y-132480750D01*
X198204185Y-132505254D01*
X198208966Y-132529287D01*
X198216901Y-132548445D01*
X198218157Y-132552584D01*
X198219000Y-132561143D01*
X198219000Y-132824857D01*
X198218157Y-132833416D01*
X198216901Y-132837556D01*
X198208965Y-132856716D01*
X198204185Y-132880750D01*
X198204185Y-132905254D01*
X198208966Y-132929287D01*
X198216901Y-132948445D01*
X198218157Y-132952584D01*
X198219000Y-132961143D01*
X198219000Y-133224857D01*
X198218157Y-133233416D01*
X198216901Y-133237556D01*
X198208965Y-133256716D01*
X198204185Y-133280750D01*
X198204185Y-133305254D01*
X198208966Y-133329287D01*
X198216901Y-133348445D01*
X198218157Y-133352584D01*
X198219000Y-133361143D01*
X198219000Y-133624857D01*
X198218157Y-133633416D01*
X198216901Y-133637556D01*
X198208965Y-133656716D01*
X198204185Y-133680750D01*
X198204185Y-133705254D01*
X198208966Y-133729287D01*
X198216901Y-133748445D01*
X198218157Y-133752584D01*
X198219000Y-133761143D01*
X198219000Y-134024857D01*
X198218157Y-134033416D01*
X198216901Y-134037556D01*
X198208965Y-134056716D01*
X198204185Y-134080750D01*
X198204185Y-134105254D01*
X198208966Y-134129287D01*
X198216901Y-134148445D01*
X198218157Y-134152584D01*
X198219000Y-134161143D01*
X198219000Y-134424857D01*
X198218157Y-134433416D01*
X198216901Y-134437556D01*
X198208965Y-134456716D01*
X198204185Y-134480750D01*
X198204185Y-134505254D01*
X198208966Y-134529287D01*
X198216901Y-134548445D01*
X198218157Y-134552584D01*
X198219000Y-134561143D01*
X198219000Y-134824857D01*
X198218157Y-134833416D01*
X198216901Y-134837556D01*
X198208965Y-134856716D01*
X198204185Y-134880750D01*
X198204185Y-134905254D01*
X198208966Y-134929287D01*
X198216901Y-134948445D01*
X198218157Y-134952584D01*
X198219000Y-134961143D01*
X198219000Y-135224857D01*
X198218157Y-135233416D01*
X198216901Y-135237556D01*
X198208965Y-135256716D01*
X198204185Y-135280750D01*
X198204185Y-135305254D01*
X198208966Y-135329287D01*
X198216901Y-135348445D01*
X198218157Y-135352584D01*
X198219000Y-135361143D01*
X198219000Y-135624857D01*
X198218157Y-135633416D01*
X198216901Y-135637556D01*
X198208965Y-135656716D01*
X198204185Y-135680750D01*
X198204185Y-135705254D01*
X198208966Y-135729287D01*
X198216901Y-135748445D01*
X198218157Y-135752584D01*
X198219000Y-135761143D01*
X198219000Y-136024857D01*
X198218157Y-136033416D01*
X198216901Y-136037556D01*
X198208965Y-136056716D01*
X198204185Y-136080750D01*
X198204185Y-136105254D01*
X198208966Y-136129287D01*
X198216901Y-136148445D01*
X198218157Y-136152584D01*
X198219000Y-136161143D01*
X198219000Y-136424857D01*
X198218157Y-136433416D01*
X198216901Y-136437556D01*
X198208965Y-136456716D01*
X198204185Y-136480750D01*
X198204185Y-136505254D01*
X198208966Y-136529287D01*
X198216901Y-136548445D01*
X198218157Y-136552584D01*
X198219000Y-136561143D01*
X198219000Y-136824857D01*
X198218157Y-136833416D01*
X198217450Y-136835745D01*
X198216305Y-136837887D01*
X198214765Y-136839765D01*
X198212887Y-136841305D01*
X198210745Y-136842450D01*
X198208416Y-136843157D01*
X198199857Y-136844000D01*
X197336143Y-136844000D01*
X197327584Y-136843157D01*
X197322524Y-136841622D01*
X197319900Y-136841100D01*
X197319378Y-136838476D01*
X197317843Y-136833416D01*
X197317000Y-136824857D01*
X197317000Y-136561143D01*
X197317843Y-136552584D01*
X197319099Y-136548444D01*
X197327035Y-136529284D01*
X197331815Y-136505250D01*
X197331815Y-136480746D01*
X197327034Y-136456713D01*
X197319099Y-136437555D01*
X197317843Y-136433416D01*
X197317000Y-136424857D01*
X197317000Y-136161143D01*
X197317843Y-136152584D01*
X197319099Y-136148444D01*
X197327035Y-136129284D01*
X197331815Y-136105250D01*
X197331815Y-136080746D01*
X197327034Y-136056713D01*
X197319099Y-136037555D01*
X197317843Y-136033416D01*
X197317000Y-136024857D01*
X197317000Y-135761143D01*
X197317843Y-135752584D01*
X197319099Y-135748444D01*
X197327035Y-135729284D01*
X197331815Y-135705250D01*
X197331815Y-135680746D01*
X197327034Y-135656713D01*
X197319099Y-135637555D01*
X197317843Y-135633416D01*
X197317000Y-135624857D01*
X197317000Y-135361143D01*
X197317843Y-135352584D01*
X197319099Y-135348444D01*
X197327035Y-135329284D01*
X197331815Y-135305250D01*
X197331815Y-135280746D01*
X197327034Y-135256713D01*
X197319099Y-135237555D01*
X197317843Y-135233416D01*
X197317000Y-135224857D01*
X197317000Y-134961143D01*
X197317843Y-134952584D01*
X197319099Y-134948444D01*
X197327035Y-134929284D01*
X197331815Y-134905250D01*
X197331815Y-134880746D01*
X197327034Y-134856713D01*
X197319099Y-134837555D01*
X197317843Y-134833416D01*
X197317000Y-134824857D01*
X197317000Y-134561143D01*
X197317843Y-134552584D01*
X197319099Y-134548444D01*
X197327035Y-134529284D01*
X197331815Y-134505250D01*
X197331815Y-134480746D01*
X197327034Y-134456713D01*
X197319099Y-134437555D01*
X197317843Y-134433416D01*
X197317000Y-134424857D01*
X197317000Y-134161143D01*
X197317843Y-134152584D01*
X197319099Y-134148444D01*
X197327035Y-134129284D01*
X197331815Y-134105250D01*
X197331815Y-134080746D01*
X197327034Y-134056713D01*
X197319099Y-134037555D01*
X197317843Y-134033416D01*
X197317000Y-134024857D01*
X197317000Y-133761143D01*
X197317843Y-133752584D01*
X197319099Y-133748444D01*
X197327035Y-133729284D01*
X197331815Y-133705250D01*
X197331815Y-133680746D01*
X197327034Y-133656713D01*
X197319099Y-133637555D01*
X197317843Y-133633416D01*
X197317000Y-133624857D01*
X197317000Y-133361143D01*
X197317843Y-133352584D01*
X197319099Y-133348444D01*
X197327035Y-133329284D01*
X197331815Y-133305250D01*
X197331815Y-133280746D01*
X197327034Y-133256713D01*
X197319099Y-133237555D01*
X197317843Y-133233416D01*
X197317000Y-133224857D01*
X197317000Y-132961143D01*
X197317843Y-132952584D01*
X197319099Y-132948444D01*
X197327035Y-132929284D01*
X197331815Y-132905250D01*
X197331815Y-132880746D01*
X197327034Y-132856713D01*
X197319099Y-132837555D01*
X197317843Y-132833416D01*
X197317000Y-132824857D01*
X197317000Y-132561143D01*
X197317843Y-132552584D01*
X197319099Y-132548444D01*
X197327035Y-132529284D01*
X197331815Y-132505250D01*
X197331815Y-132480746D01*
X197327034Y-132456713D01*
X197319099Y-132437555D01*
X197317843Y-132433416D01*
X197317000Y-132424857D01*
X197317000Y-132161143D01*
X197317843Y-132152584D01*
X197319378Y-132147524D01*
X197319900Y-132144900D01*
X197322524Y-132144378D01*
X197327584Y-132142843D01*
X197336143Y-132142000D01*
X198199857Y-132142000D01*
X198208416Y-132142843D01*
X198208416Y-132142843D01*
G37*
G36*
X192308416Y-132142843D02*
G01*
X192313476Y-132144378D01*
X192316100Y-132144900D01*
X192316622Y-132147524D01*
X192318157Y-132152584D01*
X192319000Y-132161143D01*
X192319000Y-132424857D01*
X192318157Y-132433416D01*
X192316901Y-132437556D01*
X192308965Y-132456716D01*
X192304185Y-132480750D01*
X192304185Y-132505254D01*
X192308966Y-132529287D01*
X192316901Y-132548445D01*
X192318157Y-132552584D01*
X192319000Y-132561143D01*
X192319000Y-132824857D01*
X192318157Y-132833416D01*
X192316901Y-132837556D01*
X192308965Y-132856716D01*
X192304185Y-132880750D01*
X192304185Y-132905254D01*
X192308966Y-132929287D01*
X192316901Y-132948445D01*
X192318157Y-132952584D01*
X192319000Y-132961143D01*
X192319000Y-133224857D01*
X192318157Y-133233416D01*
X192316901Y-133237556D01*
X192308965Y-133256716D01*
X192304185Y-133280750D01*
X192304185Y-133305254D01*
X192308966Y-133329287D01*
X192316901Y-133348445D01*
X192318157Y-133352584D01*
X192319000Y-133361143D01*
X192319000Y-133624857D01*
X192318157Y-133633416D01*
X192316901Y-133637556D01*
X192308965Y-133656716D01*
X192304185Y-133680750D01*
X192304185Y-133705254D01*
X192308966Y-133729287D01*
X192316901Y-133748445D01*
X192318157Y-133752584D01*
X192319000Y-133761143D01*
X192319000Y-134024857D01*
X192318157Y-134033416D01*
X192316901Y-134037556D01*
X192308965Y-134056716D01*
X192304185Y-134080750D01*
X192304185Y-134105254D01*
X192308966Y-134129287D01*
X192316901Y-134148445D01*
X192318157Y-134152584D01*
X192319000Y-134161143D01*
X192319000Y-134424857D01*
X192318157Y-134433416D01*
X192316901Y-134437556D01*
X192308965Y-134456716D01*
X192304185Y-134480750D01*
X192304185Y-134505254D01*
X192308966Y-134529287D01*
X192316901Y-134548445D01*
X192318157Y-134552584D01*
X192319000Y-134561143D01*
X192319000Y-134824857D01*
X192318157Y-134833416D01*
X192316901Y-134837556D01*
X192308965Y-134856716D01*
X192304185Y-134880750D01*
X192304185Y-134905254D01*
X192308966Y-134929287D01*
X192316901Y-134948445D01*
X192318157Y-134952584D01*
X192319000Y-134961143D01*
X192319000Y-135224857D01*
X192318157Y-135233416D01*
X192316901Y-135237556D01*
X192308965Y-135256716D01*
X192304185Y-135280750D01*
X192304185Y-135305254D01*
X192308966Y-135329287D01*
X192316901Y-135348445D01*
X192318157Y-135352584D01*
X192319000Y-135361143D01*
X192319000Y-135624857D01*
X192318157Y-135633416D01*
X192316901Y-135637556D01*
X192308965Y-135656716D01*
X192304185Y-135680750D01*
X192304185Y-135705254D01*
X192308966Y-135729287D01*
X192316901Y-135748445D01*
X192318157Y-135752584D01*
X192319000Y-135761143D01*
X192319000Y-136024857D01*
X192318157Y-136033416D01*
X192316901Y-136037556D01*
X192308965Y-136056716D01*
X192304185Y-136080750D01*
X192304185Y-136105254D01*
X192308966Y-136129287D01*
X192316901Y-136148445D01*
X192318157Y-136152584D01*
X192319000Y-136161143D01*
X192319000Y-136424857D01*
X192318157Y-136433416D01*
X192316901Y-136437556D01*
X192308965Y-136456716D01*
X192304185Y-136480750D01*
X192304185Y-136505254D01*
X192308966Y-136529287D01*
X192316901Y-136548445D01*
X192318157Y-136552584D01*
X192319000Y-136561143D01*
X192319000Y-136824857D01*
X192318157Y-136833416D01*
X192316622Y-136838476D01*
X192316100Y-136841100D01*
X192313476Y-136841622D01*
X192308416Y-136843157D01*
X192299857Y-136844000D01*
X191436143Y-136844000D01*
X191427584Y-136843157D01*
X191425255Y-136842450D01*
X191423113Y-136841305D01*
X191421235Y-136839765D01*
X191419695Y-136837887D01*
X191418550Y-136835745D01*
X191417843Y-136833416D01*
X191417000Y-136824857D01*
X191417000Y-136561143D01*
X191417843Y-136552584D01*
X191419099Y-136548444D01*
X191427035Y-136529284D01*
X191431815Y-136505250D01*
X191431815Y-136480746D01*
X191427034Y-136456713D01*
X191419099Y-136437555D01*
X191417843Y-136433416D01*
X191417000Y-136424857D01*
X191417000Y-136161143D01*
X191417843Y-136152584D01*
X191419099Y-136148444D01*
X191427035Y-136129284D01*
X191431815Y-136105250D01*
X191431815Y-136080746D01*
X191427034Y-136056713D01*
X191419099Y-136037555D01*
X191417843Y-136033416D01*
X191417000Y-136024857D01*
X191417000Y-135761143D01*
X191417843Y-135752584D01*
X191419099Y-135748444D01*
X191427035Y-135729284D01*
X191431815Y-135705250D01*
X191431815Y-135680746D01*
X191427034Y-135656713D01*
X191419099Y-135637555D01*
X191417843Y-135633416D01*
X191417000Y-135624857D01*
X191417000Y-135361143D01*
X191417843Y-135352584D01*
X191419099Y-135348444D01*
X191427035Y-135329284D01*
X191431815Y-135305250D01*
X191431815Y-135280746D01*
X191427034Y-135256713D01*
X191419099Y-135237555D01*
X191417843Y-135233416D01*
X191417000Y-135224857D01*
X191417000Y-134961143D01*
X191417843Y-134952584D01*
X191419099Y-134948444D01*
X191427035Y-134929284D01*
X191431815Y-134905250D01*
X191431815Y-134880746D01*
X191427034Y-134856713D01*
X191419099Y-134837555D01*
X191417843Y-134833416D01*
X191417000Y-134824857D01*
X191417000Y-134561143D01*
X191417843Y-134552584D01*
X191419099Y-134548444D01*
X191427035Y-134529284D01*
X191431815Y-134505250D01*
X191431815Y-134480746D01*
X191427034Y-134456713D01*
X191419099Y-134437555D01*
X191417843Y-134433416D01*
X191417000Y-134424857D01*
X191417000Y-134161143D01*
X191417843Y-134152584D01*
X191419099Y-134148444D01*
X191427035Y-134129284D01*
X191431815Y-134105250D01*
X191431815Y-134080746D01*
X191427034Y-134056713D01*
X191419099Y-134037555D01*
X191417843Y-134033416D01*
X191417000Y-134024857D01*
X191417000Y-133761143D01*
X191417843Y-133752584D01*
X191419099Y-133748444D01*
X191427035Y-133729284D01*
X191431815Y-133705250D01*
X191431815Y-133680746D01*
X191427034Y-133656713D01*
X191419099Y-133637555D01*
X191417843Y-133633416D01*
X191417000Y-133624857D01*
X191417000Y-133361143D01*
X191417843Y-133352584D01*
X191419099Y-133348444D01*
X191427035Y-133329284D01*
X191431815Y-133305250D01*
X191431815Y-133280746D01*
X191427034Y-133256713D01*
X191419099Y-133237555D01*
X191417843Y-133233416D01*
X191417000Y-133224857D01*
X191417000Y-132961143D01*
X191417843Y-132952584D01*
X191419099Y-132948444D01*
X191427035Y-132929284D01*
X191431815Y-132905250D01*
X191431815Y-132880746D01*
X191427034Y-132856713D01*
X191419099Y-132837555D01*
X191417843Y-132833416D01*
X191417000Y-132824857D01*
X191417000Y-132561143D01*
X191417843Y-132552584D01*
X191419099Y-132548444D01*
X191427035Y-132529284D01*
X191431815Y-132505250D01*
X191431815Y-132480746D01*
X191427034Y-132456713D01*
X191419099Y-132437555D01*
X191417843Y-132433416D01*
X191417000Y-132424857D01*
X191417000Y-132161143D01*
X191417843Y-132152584D01*
X191418550Y-132150255D01*
X191419695Y-132148113D01*
X191421235Y-132146235D01*
X191423113Y-132144695D01*
X191425255Y-132143550D01*
X191427584Y-132142843D01*
X191436143Y-132142000D01*
X192299857Y-132142000D01*
X192308416Y-132142843D01*
X192308416Y-132142843D01*
G37*
G36*
X196879850Y-132295912D02*
G01*
X196912143Y-132305708D01*
X196941897Y-132321612D01*
X196967982Y-132343018D01*
X196989388Y-132369103D01*
X197005292Y-132398857D01*
X197015088Y-132431150D01*
X197019000Y-132470869D01*
X197019000Y-136515131D01*
X197015088Y-136554850D01*
X197005292Y-136587143D01*
X196989388Y-136616897D01*
X196967982Y-136642982D01*
X196941897Y-136664388D01*
X196912143Y-136680292D01*
X196879850Y-136690088D01*
X196840131Y-136694000D01*
X192795869Y-136694000D01*
X192756150Y-136690088D01*
X192723857Y-136680292D01*
X192694103Y-136664388D01*
X192668018Y-136642982D01*
X192646612Y-136616897D01*
X192630708Y-136587143D01*
X192620912Y-136554850D01*
X192617000Y-136515131D01*
X192617000Y-132470869D01*
X192620912Y-132431150D01*
X192630708Y-132398857D01*
X192646612Y-132369103D01*
X192668018Y-132343018D01*
X192694103Y-132321612D01*
X192723857Y-132305708D01*
X192756150Y-132295912D01*
X192795869Y-132292000D01*
X196840131Y-132292000D01*
X196879850Y-132295912D01*
X196879850Y-132295912D01*
G37*
G36*
X201376538Y-135597916D02*
G01*
X201397157Y-135604171D01*
X201416153Y-135614324D01*
X201432808Y-135627992D01*
X201446476Y-135644647D01*
X201456629Y-135663643D01*
X201462884Y-135684262D01*
X201465600Y-135711840D01*
X201465600Y-136220560D01*
X201462884Y-136248138D01*
X201456629Y-136268757D01*
X201446476Y-136287753D01*
X201432808Y-136304408D01*
X201416153Y-136318076D01*
X201397157Y-136328229D01*
X201376538Y-136334484D01*
X201348960Y-136337200D01*
X200890240Y-136337200D01*
X200862662Y-136334484D01*
X200842043Y-136328229D01*
X200823047Y-136318076D01*
X200806392Y-136304408D01*
X200792724Y-136287753D01*
X200782571Y-136268757D01*
X200776316Y-136248138D01*
X200773600Y-136220560D01*
X200773600Y-135711840D01*
X200776316Y-135684262D01*
X200782571Y-135663643D01*
X200792724Y-135644647D01*
X200806392Y-135627992D01*
X200823047Y-135614324D01*
X200842043Y-135604171D01*
X200862662Y-135597916D01*
X200890240Y-135595200D01*
X201348960Y-135595200D01*
X201376538Y-135597916D01*
X201376538Y-135597916D01*
G37*
G36*
X200406538Y-135597916D02*
G01*
X200427157Y-135604171D01*
X200446153Y-135614324D01*
X200462808Y-135627992D01*
X200476476Y-135644647D01*
X200486629Y-135663643D01*
X200492884Y-135684262D01*
X200495600Y-135711840D01*
X200495600Y-136220560D01*
X200492884Y-136248138D01*
X200486629Y-136268757D01*
X200476476Y-136287753D01*
X200462808Y-136304408D01*
X200446153Y-136318076D01*
X200427157Y-136328229D01*
X200406538Y-136334484D01*
X200378960Y-136337200D01*
X199920240Y-136337200D01*
X199892662Y-136334484D01*
X199872043Y-136328229D01*
X199853047Y-136318076D01*
X199836392Y-136304408D01*
X199822724Y-136287753D01*
X199812571Y-136268757D01*
X199806316Y-136248138D01*
X199803600Y-136220560D01*
X199803600Y-135711840D01*
X199806316Y-135684262D01*
X199812571Y-135663643D01*
X199822724Y-135644647D01*
X199836392Y-135627992D01*
X199853047Y-135614324D01*
X199872043Y-135604171D01*
X199892662Y-135597916D01*
X199920240Y-135595200D01*
X200378960Y-135595200D01*
X200406538Y-135597916D01*
X200406538Y-135597916D01*
G37*
G36*
X179532400Y-135767600D02*
G01*
X176880400Y-135767600D01*
X176880400Y-134605600D01*
X179532400Y-134605600D01*
X179532400Y-135767600D01*
X179532400Y-135767600D01*
G37*
G36*
X201763991Y-134174285D02*
G01*
X201797969Y-134184593D01*
X201829290Y-134201334D01*
X201856739Y-134223861D01*
X201879266Y-134251310D01*
X201896007Y-134282631D01*
X201906315Y-134316609D01*
X201910400Y-134358090D01*
X201910400Y-135034310D01*
X201906315Y-135075791D01*
X201896007Y-135109769D01*
X201879266Y-135141090D01*
X201856739Y-135168539D01*
X201829290Y-135191066D01*
X201797969Y-135207807D01*
X201763991Y-135218115D01*
X201722510Y-135222200D01*
X201121290Y-135222200D01*
X201079809Y-135218115D01*
X201045831Y-135207807D01*
X201014510Y-135191066D01*
X200987061Y-135168539D01*
X200964534Y-135141090D01*
X200947793Y-135109769D01*
X200937485Y-135075791D01*
X200933400Y-135034310D01*
X200933400Y-134358090D01*
X200937485Y-134316609D01*
X200947793Y-134282631D01*
X200964534Y-134251310D01*
X200987061Y-134223861D01*
X201014510Y-134201334D01*
X201045831Y-134184593D01*
X201079809Y-134174285D01*
X201121290Y-134170200D01*
X201722510Y-134170200D01*
X201763991Y-134174285D01*
X201763991Y-134174285D01*
G37*
G36*
X203338991Y-134174285D02*
G01*
X203372969Y-134184593D01*
X203404290Y-134201334D01*
X203431739Y-134223861D01*
X203454266Y-134251310D01*
X203471007Y-134282631D01*
X203481315Y-134316609D01*
X203485400Y-134358090D01*
X203485400Y-135034310D01*
X203481315Y-135075791D01*
X203471007Y-135109769D01*
X203454266Y-135141090D01*
X203431739Y-135168539D01*
X203404290Y-135191066D01*
X203372969Y-135207807D01*
X203338991Y-135218115D01*
X203297510Y-135222200D01*
X202696290Y-135222200D01*
X202654809Y-135218115D01*
X202620831Y-135207807D01*
X202589510Y-135191066D01*
X202562061Y-135168539D01*
X202539534Y-135141090D01*
X202522793Y-135109769D01*
X202512485Y-135075791D01*
X202508400Y-135034310D01*
X202508400Y-134358090D01*
X202512485Y-134316609D01*
X202522793Y-134282631D01*
X202539534Y-134251310D01*
X202562061Y-134223861D01*
X202589510Y-134201334D01*
X202620831Y-134184593D01*
X202654809Y-134174285D01*
X202696290Y-134170200D01*
X203297510Y-134170200D01*
X203338991Y-134174285D01*
X203338991Y-134174285D01*
G37*
G36*
X181379991Y-133957885D02*
G01*
X181413969Y-133968193D01*
X181445290Y-133984934D01*
X181472739Y-134007461D01*
X181495266Y-134034910D01*
X181512007Y-134066231D01*
X181522315Y-134100209D01*
X181526400Y-134141690D01*
X181526400Y-134742910D01*
X181522315Y-134784391D01*
X181512007Y-134818369D01*
X181495266Y-134849690D01*
X181472739Y-134877139D01*
X181445290Y-134899666D01*
X181413969Y-134916407D01*
X181379991Y-134926715D01*
X181338510Y-134930800D01*
X180662290Y-134930800D01*
X180620809Y-134926715D01*
X180586831Y-134916407D01*
X180555510Y-134899666D01*
X180528061Y-134877139D01*
X180505534Y-134849690D01*
X180488793Y-134818369D01*
X180478485Y-134784391D01*
X180474400Y-134742910D01*
X180474400Y-134141690D01*
X180478485Y-134100209D01*
X180488793Y-134066231D01*
X180505534Y-134034910D01*
X180528061Y-134007461D01*
X180555510Y-133984934D01*
X180586831Y-133968193D01*
X180620809Y-133957885D01*
X180662290Y-133953800D01*
X181338510Y-133953800D01*
X181379991Y-133957885D01*
X181379991Y-133957885D01*
G37*
G36*
X174416400Y-132910189D02*
G01*
X174449452Y-132920215D01*
X174479903Y-132936492D01*
X174506599Y-132958401D01*
X174528508Y-132985097D01*
X174544785Y-133015548D01*
X174554811Y-133048600D01*
X174558800Y-133089103D01*
X174558800Y-134525297D01*
X174554811Y-134565800D01*
X174544785Y-134598852D01*
X174528508Y-134629303D01*
X174506599Y-134655999D01*
X174479903Y-134677908D01*
X174449452Y-134694185D01*
X174416400Y-134704211D01*
X174375897Y-134708200D01*
X172689703Y-134708200D01*
X172649200Y-134704211D01*
X172616148Y-134694185D01*
X172585697Y-134677908D01*
X172559001Y-134655999D01*
X172537092Y-134629303D01*
X172520815Y-134598852D01*
X172510789Y-134565800D01*
X172506800Y-134525297D01*
X172506800Y-133089103D01*
X172510789Y-133048600D01*
X172520815Y-133015548D01*
X172537092Y-132985097D01*
X172559001Y-132958401D01*
X172585697Y-132936492D01*
X172616148Y-132920215D01*
X172649200Y-132910189D01*
X172689703Y-132906200D01*
X174375897Y-132906200D01*
X174416400Y-132910189D01*
X174416400Y-132910189D01*
G37*
G36*
X177632400Y-133567600D02*
G01*
X176880400Y-133567600D01*
X176880400Y-132405600D01*
X177632400Y-132405600D01*
X177632400Y-133567600D01*
X177632400Y-133567600D01*
G37*
G36*
X179532400Y-133567600D02*
G01*
X178780400Y-133567600D01*
X178780400Y-132405600D01*
X179532400Y-132405600D01*
X179532400Y-133567600D01*
X179532400Y-133567600D01*
G37*
G36*
X181379991Y-132382885D02*
G01*
X181413969Y-132393193D01*
X181445290Y-132409934D01*
X181472739Y-132432461D01*
X181495266Y-132459910D01*
X181512007Y-132491231D01*
X181522315Y-132525209D01*
X181526400Y-132566690D01*
X181526400Y-133167910D01*
X181522315Y-133209391D01*
X181512007Y-133243369D01*
X181495266Y-133274690D01*
X181472739Y-133302139D01*
X181445290Y-133324666D01*
X181413969Y-133341407D01*
X181379991Y-133351715D01*
X181338510Y-133355800D01*
X180662290Y-133355800D01*
X180620809Y-133351715D01*
X180586831Y-133341407D01*
X180555510Y-133324666D01*
X180528061Y-133302139D01*
X180505534Y-133274690D01*
X180488793Y-133243369D01*
X180478485Y-133209391D01*
X180474400Y-133167910D01*
X180474400Y-132566690D01*
X180478485Y-132525209D01*
X180488793Y-132491231D01*
X180505534Y-132459910D01*
X180528061Y-132432461D01*
X180555510Y-132409934D01*
X180586831Y-132393193D01*
X180620809Y-132382885D01*
X180662290Y-132378800D01*
X181338510Y-132378800D01*
X181379991Y-132382885D01*
X181379991Y-132382885D01*
G37*
G36*
X217991699Y-131646845D02*
G01*
X218029195Y-131658220D01*
X218063754Y-131676692D01*
X218094047Y-131701553D01*
X218118908Y-131731846D01*
X218137380Y-131766405D01*
X218148755Y-131803901D01*
X218153200Y-131849038D01*
X218153200Y-132587762D01*
X218148755Y-132632899D01*
X218137380Y-132670395D01*
X218118908Y-132704954D01*
X218094047Y-132735247D01*
X218063754Y-132760108D01*
X218029195Y-132778580D01*
X217991699Y-132789955D01*
X217946562Y-132794400D01*
X217307838Y-132794400D01*
X217262701Y-132789955D01*
X217225205Y-132778580D01*
X217190646Y-132760108D01*
X217160353Y-132735247D01*
X217135492Y-132704954D01*
X217117020Y-132670395D01*
X217105645Y-132632899D01*
X217101200Y-132587762D01*
X217101200Y-131849038D01*
X217105645Y-131803901D01*
X217117020Y-131766405D01*
X217135492Y-131731846D01*
X217160353Y-131701553D01*
X217190646Y-131676692D01*
X217225205Y-131658220D01*
X217262701Y-131646845D01*
X217307838Y-131642400D01*
X217946562Y-131642400D01*
X217991699Y-131646845D01*
X217991699Y-131646845D01*
G37*
G36*
X220070074Y-131518265D02*
G01*
X220107767Y-131529699D01*
X220142503Y-131548266D01*
X220172948Y-131573252D01*
X220197934Y-131603697D01*
X220216501Y-131638433D01*
X220227935Y-131676126D01*
X220232400Y-131721461D01*
X220232400Y-132558139D01*
X220227935Y-132603474D01*
X220216501Y-132641167D01*
X220197934Y-132675903D01*
X220172948Y-132706348D01*
X220142503Y-132731334D01*
X220107767Y-132749901D01*
X220070074Y-132761335D01*
X220024739Y-132765800D01*
X218938061Y-132765800D01*
X218892726Y-132761335D01*
X218855033Y-132749901D01*
X218820297Y-132731334D01*
X218789852Y-132706348D01*
X218764866Y-132675903D01*
X218746299Y-132641167D01*
X218734865Y-132603474D01*
X218730400Y-132558139D01*
X218730400Y-131721461D01*
X218734865Y-131676126D01*
X218746299Y-131638433D01*
X218764866Y-131603697D01*
X218789852Y-131573252D01*
X218820297Y-131548266D01*
X218855033Y-131529699D01*
X218892726Y-131518265D01*
X218938061Y-131513800D01*
X220024739Y-131513800D01*
X220070074Y-131518265D01*
X220070074Y-131518265D01*
G37*
G36*
X208083404Y-130801747D02*
G01*
X208119944Y-130812832D01*
X208153621Y-130830833D01*
X208183141Y-130855059D01*
X208207367Y-130884579D01*
X208225368Y-130918256D01*
X208236453Y-130954796D01*
X208240800Y-130998938D01*
X208240800Y-131947862D01*
X208236453Y-131992004D01*
X208225368Y-132028544D01*
X208207367Y-132062221D01*
X208183141Y-132091741D01*
X208153621Y-132115967D01*
X208119944Y-132133968D01*
X208083404Y-132145053D01*
X208039262Y-132149400D01*
X206590338Y-132149400D01*
X206546196Y-132145053D01*
X206509656Y-132133968D01*
X206475979Y-132115967D01*
X206446459Y-132091741D01*
X206422233Y-132062221D01*
X206404232Y-132028544D01*
X206393147Y-131992004D01*
X206388800Y-131947862D01*
X206388800Y-130998938D01*
X206393147Y-130954796D01*
X206404232Y-130918256D01*
X206422233Y-130884579D01*
X206446459Y-130855059D01*
X206475979Y-130830833D01*
X206509656Y-130812832D01*
X206546196Y-130801747D01*
X206590338Y-130797400D01*
X208039262Y-130797400D01*
X208083404Y-130801747D01*
X208083404Y-130801747D01*
G37*
G36*
X211873391Y-131075485D02*
G01*
X211907369Y-131085793D01*
X211938690Y-131102534D01*
X211966139Y-131125061D01*
X211988666Y-131152510D01*
X212005407Y-131183831D01*
X212015715Y-131217809D01*
X212019800Y-131259290D01*
X212019800Y-131935510D01*
X212015715Y-131976991D01*
X212005407Y-132010969D01*
X211988666Y-132042290D01*
X211966139Y-132069739D01*
X211938690Y-132092266D01*
X211907369Y-132109007D01*
X211873391Y-132119315D01*
X211831910Y-132123400D01*
X211230690Y-132123400D01*
X211189209Y-132119315D01*
X211155231Y-132109007D01*
X211123910Y-132092266D01*
X211096461Y-132069739D01*
X211073934Y-132042290D01*
X211057193Y-132010969D01*
X211046885Y-131976991D01*
X211042800Y-131935510D01*
X211042800Y-131259290D01*
X211046885Y-131217809D01*
X211057193Y-131183831D01*
X211073934Y-131152510D01*
X211096461Y-131125061D01*
X211123910Y-131102534D01*
X211155231Y-131085793D01*
X211189209Y-131075485D01*
X211230690Y-131071400D01*
X211831910Y-131071400D01*
X211873391Y-131075485D01*
X211873391Y-131075485D01*
G37*
G36*
X210298391Y-131075485D02*
G01*
X210332369Y-131085793D01*
X210363690Y-131102534D01*
X210391139Y-131125061D01*
X210413666Y-131152510D01*
X210430407Y-131183831D01*
X210440715Y-131217809D01*
X210444800Y-131259290D01*
X210444800Y-131935510D01*
X210440715Y-131976991D01*
X210430407Y-132010969D01*
X210413666Y-132042290D01*
X210391139Y-132069739D01*
X210363690Y-132092266D01*
X210332369Y-132109007D01*
X210298391Y-132119315D01*
X210256910Y-132123400D01*
X209655690Y-132123400D01*
X209614209Y-132119315D01*
X209580231Y-132109007D01*
X209548910Y-132092266D01*
X209521461Y-132069739D01*
X209498934Y-132042290D01*
X209482193Y-132010969D01*
X209471885Y-131976991D01*
X209467800Y-131935510D01*
X209467800Y-131259290D01*
X209471885Y-131217809D01*
X209482193Y-131183831D01*
X209498934Y-131152510D01*
X209521461Y-131125061D01*
X209548910Y-131102534D01*
X209580231Y-131085793D01*
X209614209Y-131075485D01*
X209655690Y-131071400D01*
X210256910Y-131071400D01*
X210298391Y-131075485D01*
X210298391Y-131075485D01*
G37*
G36*
X192758416Y-131092843D02*
G01*
X192762556Y-131094099D01*
X192781716Y-131102035D01*
X192805750Y-131106815D01*
X192830254Y-131106815D01*
X192854287Y-131102034D01*
X192873445Y-131094099D01*
X192877584Y-131092843D01*
X192886143Y-131092000D01*
X193149857Y-131092000D01*
X193158416Y-131092843D01*
X193162556Y-131094099D01*
X193181716Y-131102035D01*
X193205750Y-131106815D01*
X193230254Y-131106815D01*
X193254287Y-131102034D01*
X193273445Y-131094099D01*
X193277584Y-131092843D01*
X193286143Y-131092000D01*
X193549857Y-131092000D01*
X193558416Y-131092843D01*
X193562556Y-131094099D01*
X193581716Y-131102035D01*
X193605750Y-131106815D01*
X193630254Y-131106815D01*
X193654287Y-131102034D01*
X193673445Y-131094099D01*
X193677584Y-131092843D01*
X193686143Y-131092000D01*
X193949857Y-131092000D01*
X193958416Y-131092843D01*
X193962556Y-131094099D01*
X193981716Y-131102035D01*
X194005750Y-131106815D01*
X194030254Y-131106815D01*
X194054287Y-131102034D01*
X194073445Y-131094099D01*
X194077584Y-131092843D01*
X194086143Y-131092000D01*
X194349857Y-131092000D01*
X194358416Y-131092843D01*
X194362556Y-131094099D01*
X194381716Y-131102035D01*
X194405750Y-131106815D01*
X194430254Y-131106815D01*
X194454287Y-131102034D01*
X194473445Y-131094099D01*
X194477584Y-131092843D01*
X194486143Y-131092000D01*
X194749857Y-131092000D01*
X194758416Y-131092843D01*
X194762556Y-131094099D01*
X194781716Y-131102035D01*
X194805750Y-131106815D01*
X194830254Y-131106815D01*
X194854287Y-131102034D01*
X194873445Y-131094099D01*
X194877584Y-131092843D01*
X194886143Y-131092000D01*
X195149857Y-131092000D01*
X195158416Y-131092843D01*
X195162556Y-131094099D01*
X195181716Y-131102035D01*
X195205750Y-131106815D01*
X195230254Y-131106815D01*
X195254287Y-131102034D01*
X195273445Y-131094099D01*
X195277584Y-131092843D01*
X195286143Y-131092000D01*
X195549857Y-131092000D01*
X195558416Y-131092843D01*
X195562556Y-131094099D01*
X195581716Y-131102035D01*
X195605750Y-131106815D01*
X195630254Y-131106815D01*
X195654287Y-131102034D01*
X195673445Y-131094099D01*
X195677584Y-131092843D01*
X195686143Y-131092000D01*
X195949857Y-131092000D01*
X195958416Y-131092843D01*
X195962556Y-131094099D01*
X195981716Y-131102035D01*
X196005750Y-131106815D01*
X196030254Y-131106815D01*
X196054287Y-131102034D01*
X196073445Y-131094099D01*
X196077584Y-131092843D01*
X196086143Y-131092000D01*
X196349857Y-131092000D01*
X196358416Y-131092843D01*
X196362556Y-131094099D01*
X196381716Y-131102035D01*
X196405750Y-131106815D01*
X196430254Y-131106815D01*
X196454287Y-131102034D01*
X196473445Y-131094099D01*
X196477584Y-131092843D01*
X196486143Y-131092000D01*
X196749857Y-131092000D01*
X196758416Y-131092843D01*
X196762556Y-131094099D01*
X196781716Y-131102035D01*
X196805750Y-131106815D01*
X196830254Y-131106815D01*
X196854287Y-131102034D01*
X196873445Y-131094099D01*
X196877584Y-131092843D01*
X196886143Y-131092000D01*
X197149857Y-131092000D01*
X197158416Y-131092843D01*
X197160745Y-131093550D01*
X197162887Y-131094695D01*
X197164765Y-131096235D01*
X197166305Y-131098113D01*
X197167450Y-131100255D01*
X197168157Y-131102584D01*
X197169000Y-131111143D01*
X197169000Y-131974857D01*
X197168157Y-131983416D01*
X197166622Y-131988476D01*
X197166100Y-131991100D01*
X197163476Y-131991622D01*
X197158416Y-131993157D01*
X197149857Y-131994000D01*
X196886143Y-131994000D01*
X196877584Y-131993157D01*
X196873444Y-131991901D01*
X196854284Y-131983965D01*
X196830250Y-131979185D01*
X196805746Y-131979185D01*
X196781713Y-131983966D01*
X196762555Y-131991901D01*
X196758416Y-131993157D01*
X196749857Y-131994000D01*
X196486143Y-131994000D01*
X196477584Y-131993157D01*
X196473444Y-131991901D01*
X196454284Y-131983965D01*
X196430250Y-131979185D01*
X196405746Y-131979185D01*
X196381713Y-131983966D01*
X196362555Y-131991901D01*
X196358416Y-131993157D01*
X196349857Y-131994000D01*
X196086143Y-131994000D01*
X196077584Y-131993157D01*
X196073444Y-131991901D01*
X196054284Y-131983965D01*
X196030250Y-131979185D01*
X196005746Y-131979185D01*
X195981713Y-131983966D01*
X195962555Y-131991901D01*
X195958416Y-131993157D01*
X195949857Y-131994000D01*
X195686143Y-131994000D01*
X195677584Y-131993157D01*
X195673444Y-131991901D01*
X195654284Y-131983965D01*
X195630250Y-131979185D01*
X195605746Y-131979185D01*
X195581713Y-131983966D01*
X195562555Y-131991901D01*
X195558416Y-131993157D01*
X195549857Y-131994000D01*
X195286143Y-131994000D01*
X195277584Y-131993157D01*
X195273444Y-131991901D01*
X195254284Y-131983965D01*
X195230250Y-131979185D01*
X195205746Y-131979185D01*
X195181713Y-131983966D01*
X195162555Y-131991901D01*
X195158416Y-131993157D01*
X195149857Y-131994000D01*
X194886143Y-131994000D01*
X194877584Y-131993157D01*
X194873444Y-131991901D01*
X194854284Y-131983965D01*
X194830250Y-131979185D01*
X194805746Y-131979185D01*
X194781713Y-131983966D01*
X194762555Y-131991901D01*
X194758416Y-131993157D01*
X194749857Y-131994000D01*
X194486143Y-131994000D01*
X194477584Y-131993157D01*
X194473444Y-131991901D01*
X194454284Y-131983965D01*
X194430250Y-131979185D01*
X194405746Y-131979185D01*
X194381713Y-131983966D01*
X194362555Y-131991901D01*
X194358416Y-131993157D01*
X194349857Y-131994000D01*
X194086143Y-131994000D01*
X194077584Y-131993157D01*
X194073444Y-131991901D01*
X194054284Y-131983965D01*
X194030250Y-131979185D01*
X194005746Y-131979185D01*
X193981713Y-131983966D01*
X193962555Y-131991901D01*
X193958416Y-131993157D01*
X193949857Y-131994000D01*
X193686143Y-131994000D01*
X193677584Y-131993157D01*
X193673444Y-131991901D01*
X193654284Y-131983965D01*
X193630250Y-131979185D01*
X193605746Y-131979185D01*
X193581713Y-131983966D01*
X193562555Y-131991901D01*
X193558416Y-131993157D01*
X193549857Y-131994000D01*
X193286143Y-131994000D01*
X193277584Y-131993157D01*
X193273444Y-131991901D01*
X193254284Y-131983965D01*
X193230250Y-131979185D01*
X193205746Y-131979185D01*
X193181713Y-131983966D01*
X193162555Y-131991901D01*
X193158416Y-131993157D01*
X193149857Y-131994000D01*
X192886143Y-131994000D01*
X192877584Y-131993157D01*
X192873444Y-131991901D01*
X192854284Y-131983965D01*
X192830250Y-131979185D01*
X192805746Y-131979185D01*
X192781713Y-131983966D01*
X192762555Y-131991901D01*
X192758416Y-131993157D01*
X192749857Y-131994000D01*
X192486143Y-131994000D01*
X192477584Y-131993157D01*
X192472524Y-131991622D01*
X192469900Y-131991100D01*
X192469378Y-131988476D01*
X192467843Y-131983416D01*
X192467000Y-131974857D01*
X192467000Y-131111143D01*
X192467843Y-131102584D01*
X192468550Y-131100255D01*
X192469695Y-131098113D01*
X192471235Y-131096235D01*
X192473113Y-131094695D01*
X192475255Y-131093550D01*
X192477584Y-131092843D01*
X192486143Y-131092000D01*
X192749857Y-131092000D01*
X192758416Y-131092843D01*
X192758416Y-131092843D01*
G37*
G36*
X186028191Y-130605085D02*
G01*
X186062169Y-130615393D01*
X186093490Y-130632134D01*
X186120939Y-130654661D01*
X186143466Y-130682110D01*
X186160207Y-130713431D01*
X186170515Y-130747409D01*
X186174600Y-130788890D01*
X186174600Y-131390110D01*
X186170515Y-131431591D01*
X186160207Y-131465569D01*
X186143466Y-131496890D01*
X186120939Y-131524339D01*
X186093490Y-131546866D01*
X186062169Y-131563607D01*
X186028191Y-131573915D01*
X185986710Y-131578000D01*
X185310490Y-131578000D01*
X185269009Y-131573915D01*
X185235031Y-131563607D01*
X185203710Y-131546866D01*
X185176261Y-131524339D01*
X185153734Y-131496890D01*
X185136993Y-131465569D01*
X185126685Y-131431591D01*
X185122600Y-131390110D01*
X185122600Y-130788890D01*
X185126685Y-130747409D01*
X185136993Y-130713431D01*
X185153734Y-130682110D01*
X185176261Y-130654661D01*
X185203710Y-130632134D01*
X185235031Y-130615393D01*
X185269009Y-130605085D01*
X185310490Y-130601000D01*
X185986710Y-130601000D01*
X186028191Y-130605085D01*
X186028191Y-130605085D01*
G37*
G36*
X217991699Y-129896845D02*
G01*
X218029195Y-129908220D01*
X218063754Y-129926692D01*
X218094047Y-129951553D01*
X218118908Y-129981846D01*
X218137380Y-130016405D01*
X218148755Y-130053901D01*
X218153200Y-130099038D01*
X218153200Y-130837762D01*
X218148755Y-130882899D01*
X218137380Y-130920395D01*
X218118908Y-130954954D01*
X218094047Y-130985247D01*
X218063754Y-131010108D01*
X218029195Y-131028580D01*
X217991699Y-131039955D01*
X217946562Y-131044400D01*
X217307838Y-131044400D01*
X217262701Y-131039955D01*
X217225205Y-131028580D01*
X217190646Y-131010108D01*
X217160353Y-130985247D01*
X217135492Y-130954954D01*
X217117020Y-130920395D01*
X217105645Y-130882899D01*
X217101200Y-130837762D01*
X217101200Y-130099038D01*
X217105645Y-130053901D01*
X217117020Y-130016405D01*
X217135492Y-129981846D01*
X217160353Y-129951553D01*
X217190646Y-129926692D01*
X217225205Y-129908220D01*
X217262701Y-129896845D01*
X217307838Y-129892400D01*
X217946562Y-129892400D01*
X217991699Y-129896845D01*
X217991699Y-129896845D01*
G37*
G36*
X220070074Y-129468265D02*
G01*
X220107767Y-129479699D01*
X220142503Y-129498266D01*
X220172948Y-129523252D01*
X220197934Y-129553697D01*
X220216501Y-129588433D01*
X220227935Y-129626126D01*
X220232400Y-129671461D01*
X220232400Y-130508139D01*
X220227935Y-130553474D01*
X220216501Y-130591167D01*
X220197934Y-130625903D01*
X220172948Y-130656348D01*
X220142503Y-130681334D01*
X220107767Y-130699901D01*
X220070074Y-130711335D01*
X220024739Y-130715800D01*
X218938061Y-130715800D01*
X218892726Y-130711335D01*
X218855033Y-130699901D01*
X218820297Y-130681334D01*
X218789852Y-130656348D01*
X218764866Y-130625903D01*
X218746299Y-130591167D01*
X218734865Y-130553474D01*
X218730400Y-130508139D01*
X218730400Y-129671461D01*
X218734865Y-129626126D01*
X218746299Y-129588433D01*
X218764866Y-129553697D01*
X218789852Y-129523252D01*
X218820297Y-129498266D01*
X218855033Y-129479699D01*
X218892726Y-129468265D01*
X218938061Y-129463800D01*
X220024739Y-129463800D01*
X220070074Y-129468265D01*
X220070074Y-129468265D01*
G37*
G36*
X190816591Y-129526085D02*
G01*
X190850569Y-129536393D01*
X190881890Y-129553134D01*
X190909339Y-129575661D01*
X190931866Y-129603110D01*
X190948607Y-129634431D01*
X190958915Y-129668409D01*
X190963000Y-129709890D01*
X190963000Y-130386110D01*
X190958915Y-130427591D01*
X190948607Y-130461569D01*
X190931866Y-130492890D01*
X190909339Y-130520339D01*
X190881890Y-130542866D01*
X190850569Y-130559607D01*
X190816591Y-130569915D01*
X190775110Y-130574000D01*
X190173890Y-130574000D01*
X190132409Y-130569915D01*
X190098431Y-130559607D01*
X190067110Y-130542866D01*
X190039661Y-130520339D01*
X190017134Y-130492890D01*
X190000393Y-130461569D01*
X189990085Y-130427591D01*
X189986000Y-130386110D01*
X189986000Y-129709890D01*
X189990085Y-129668409D01*
X190000393Y-129634431D01*
X190017134Y-129603110D01*
X190039661Y-129575661D01*
X190067110Y-129553134D01*
X190098431Y-129536393D01*
X190132409Y-129526085D01*
X190173890Y-129522000D01*
X190775110Y-129522000D01*
X190816591Y-129526085D01*
X190816591Y-129526085D01*
G37*
G36*
X192391591Y-129526085D02*
G01*
X192425569Y-129536393D01*
X192456890Y-129553134D01*
X192484339Y-129575661D01*
X192506866Y-129603110D01*
X192523607Y-129634431D01*
X192533915Y-129668409D01*
X192538000Y-129709890D01*
X192538000Y-130386110D01*
X192533915Y-130427591D01*
X192523607Y-130461569D01*
X192506866Y-130492890D01*
X192484339Y-130520339D01*
X192456890Y-130542866D01*
X192425569Y-130559607D01*
X192391591Y-130569915D01*
X192350110Y-130574000D01*
X191748890Y-130574000D01*
X191707409Y-130569915D01*
X191673431Y-130559607D01*
X191642110Y-130542866D01*
X191614661Y-130520339D01*
X191592134Y-130492890D01*
X191575393Y-130461569D01*
X191565085Y-130427591D01*
X191561000Y-130386110D01*
X191561000Y-129709890D01*
X191565085Y-129668409D01*
X191575393Y-129634431D01*
X191592134Y-129603110D01*
X191614661Y-129575661D01*
X191642110Y-129553134D01*
X191673431Y-129536393D01*
X191707409Y-129526085D01*
X191748890Y-129522000D01*
X192350110Y-129522000D01*
X192391591Y-129526085D01*
X192391591Y-129526085D01*
G37*
G36*
X197991591Y-129589085D02*
G01*
X198025569Y-129599393D01*
X198056890Y-129616134D01*
X198084339Y-129638661D01*
X198106866Y-129666110D01*
X198123607Y-129697431D01*
X198133915Y-129731409D01*
X198138000Y-129772890D01*
X198138000Y-130374110D01*
X198133915Y-130415591D01*
X198123607Y-130449569D01*
X198106866Y-130480890D01*
X198084339Y-130508339D01*
X198056890Y-130530866D01*
X198025569Y-130547607D01*
X197991591Y-130557915D01*
X197950110Y-130562000D01*
X197273890Y-130562000D01*
X197232409Y-130557915D01*
X197198431Y-130547607D01*
X197167110Y-130530866D01*
X197139661Y-130508339D01*
X197117134Y-130480890D01*
X197100393Y-130449569D01*
X197090085Y-130415591D01*
X197086000Y-130374110D01*
X197086000Y-129772890D01*
X197090085Y-129731409D01*
X197100393Y-129697431D01*
X197117134Y-129666110D01*
X197139661Y-129638661D01*
X197167110Y-129616134D01*
X197198431Y-129599393D01*
X197232409Y-129589085D01*
X197273890Y-129585000D01*
X197950110Y-129585000D01*
X197991591Y-129589085D01*
X197991591Y-129589085D01*
G37*
G36*
X211906299Y-129424845D02*
G01*
X211943795Y-129436220D01*
X211978354Y-129454692D01*
X212008647Y-129479553D01*
X212033508Y-129509846D01*
X212051980Y-129544405D01*
X212063355Y-129581901D01*
X212067800Y-129627038D01*
X212067800Y-130265762D01*
X212063355Y-130310899D01*
X212051980Y-130348395D01*
X212033508Y-130382954D01*
X212008647Y-130413247D01*
X211978354Y-130438108D01*
X211943795Y-130456580D01*
X211906299Y-130467955D01*
X211861162Y-130472400D01*
X211122438Y-130472400D01*
X211077301Y-130467955D01*
X211039805Y-130456580D01*
X211005246Y-130438108D01*
X210974953Y-130413247D01*
X210950092Y-130382954D01*
X210931620Y-130348395D01*
X210920245Y-130310899D01*
X210915800Y-130265762D01*
X210915800Y-129627038D01*
X210920245Y-129581901D01*
X210931620Y-129544405D01*
X210950092Y-129509846D01*
X210974953Y-129479553D01*
X211005246Y-129454692D01*
X211039805Y-129436220D01*
X211077301Y-129424845D01*
X211122438Y-129420400D01*
X211861162Y-129420400D01*
X211906299Y-129424845D01*
X211906299Y-129424845D01*
G37*
G36*
X210156299Y-129424845D02*
G01*
X210193795Y-129436220D01*
X210228354Y-129454692D01*
X210258647Y-129479553D01*
X210283508Y-129509846D01*
X210301980Y-129544405D01*
X210313355Y-129581901D01*
X210317800Y-129627038D01*
X210317800Y-130265762D01*
X210313355Y-130310899D01*
X210301980Y-130348395D01*
X210283508Y-130382954D01*
X210258647Y-130413247D01*
X210228354Y-130438108D01*
X210193795Y-130456580D01*
X210156299Y-130467955D01*
X210111162Y-130472400D01*
X209372438Y-130472400D01*
X209327301Y-130467955D01*
X209289805Y-130456580D01*
X209255246Y-130438108D01*
X209224953Y-130413247D01*
X209200092Y-130382954D01*
X209181620Y-130348395D01*
X209170245Y-130310899D01*
X209165800Y-130265762D01*
X209165800Y-129627038D01*
X209170245Y-129581901D01*
X209181620Y-129544405D01*
X209200092Y-129509846D01*
X209224953Y-129479553D01*
X209255246Y-129454692D01*
X209289805Y-129436220D01*
X209327301Y-129424845D01*
X209372438Y-129420400D01*
X210111162Y-129420400D01*
X210156299Y-129424845D01*
X210156299Y-129424845D01*
G37*
G36*
X186028191Y-129030085D02*
G01*
X186062169Y-129040393D01*
X186093490Y-129057134D01*
X186120939Y-129079661D01*
X186143466Y-129107110D01*
X186160207Y-129138431D01*
X186170515Y-129172409D01*
X186174600Y-129213890D01*
X186174600Y-129815110D01*
X186170515Y-129856591D01*
X186160207Y-129890569D01*
X186143466Y-129921890D01*
X186120939Y-129949339D01*
X186093490Y-129971866D01*
X186062169Y-129988607D01*
X186028191Y-129998915D01*
X185986710Y-130003000D01*
X185310490Y-130003000D01*
X185269009Y-129998915D01*
X185235031Y-129988607D01*
X185203710Y-129971866D01*
X185176261Y-129949339D01*
X185153734Y-129921890D01*
X185136993Y-129890569D01*
X185126685Y-129856591D01*
X185122600Y-129815110D01*
X185122600Y-129213890D01*
X185126685Y-129172409D01*
X185136993Y-129138431D01*
X185153734Y-129107110D01*
X185176261Y-129079661D01*
X185203710Y-129057134D01*
X185235031Y-129040393D01*
X185269009Y-129030085D01*
X185310490Y-129026000D01*
X185986710Y-129026000D01*
X186028191Y-129030085D01*
X186028191Y-129030085D01*
G37*
G36*
X183428000Y-129693000D02*
G01*
X182586000Y-129693000D01*
X182586000Y-127191000D01*
X183428000Y-127191000D01*
X183428000Y-129693000D01*
X183428000Y-129693000D01*
G37*
G36*
X182158000Y-129693000D02*
G01*
X181316000Y-129693000D01*
X181316000Y-127191000D01*
X182158000Y-127191000D01*
X182158000Y-129693000D01*
X182158000Y-129693000D01*
G37*
G36*
X180888000Y-129693000D02*
G01*
X180046000Y-129693000D01*
X180046000Y-127191000D01*
X180888000Y-127191000D01*
X180888000Y-129693000D01*
X180888000Y-129693000D01*
G37*
G36*
X179618000Y-129693000D02*
G01*
X178776000Y-129693000D01*
X178776000Y-127191000D01*
X179618000Y-127191000D01*
X179618000Y-129693000D01*
X179618000Y-129693000D01*
G37*
G36*
X178348000Y-129693000D02*
G01*
X177506000Y-129693000D01*
X177506000Y-127191000D01*
X178348000Y-127191000D01*
X178348000Y-129693000D01*
X178348000Y-129693000D01*
G37*
G36*
X214470868Y-128082365D02*
G01*
X214509538Y-128094096D01*
X214545177Y-128113146D01*
X214576417Y-128138783D01*
X214602054Y-128170023D01*
X214621104Y-128205662D01*
X214632835Y-128244332D01*
X214637400Y-128290688D01*
X214637400Y-129366912D01*
X214632835Y-129413268D01*
X214621104Y-129451938D01*
X214602054Y-129487577D01*
X214576417Y-129518817D01*
X214545177Y-129544454D01*
X214509538Y-129563504D01*
X214470868Y-129575235D01*
X214424512Y-129579800D01*
X213773288Y-129579800D01*
X213726932Y-129575235D01*
X213688262Y-129563504D01*
X213652623Y-129544454D01*
X213621383Y-129518817D01*
X213595746Y-129487577D01*
X213576696Y-129451938D01*
X213564965Y-129413268D01*
X213560400Y-129366912D01*
X213560400Y-128290688D01*
X213564965Y-128244332D01*
X213576696Y-128205662D01*
X213595746Y-128170023D01*
X213621383Y-128138783D01*
X213652623Y-128113146D01*
X213688262Y-128094096D01*
X213726932Y-128082365D01*
X213773288Y-128077800D01*
X214424512Y-128077800D01*
X214470868Y-128082365D01*
X214470868Y-128082365D01*
G37*
G36*
X216345868Y-128082365D02*
G01*
X216384538Y-128094096D01*
X216420177Y-128113146D01*
X216451417Y-128138783D01*
X216477054Y-128170023D01*
X216496104Y-128205662D01*
X216507835Y-128244332D01*
X216512400Y-128290688D01*
X216512400Y-129366912D01*
X216507835Y-129413268D01*
X216496104Y-129451938D01*
X216477054Y-129487577D01*
X216451417Y-129518817D01*
X216420177Y-129544454D01*
X216384538Y-129563504D01*
X216345868Y-129575235D01*
X216299512Y-129579800D01*
X215648288Y-129579800D01*
X215601932Y-129575235D01*
X215563262Y-129563504D01*
X215527623Y-129544454D01*
X215496383Y-129518817D01*
X215470746Y-129487577D01*
X215451696Y-129451938D01*
X215439965Y-129413268D01*
X215435400Y-129366912D01*
X215435400Y-128290688D01*
X215439965Y-128244332D01*
X215451696Y-128205662D01*
X215470746Y-128170023D01*
X215496383Y-128138783D01*
X215527623Y-128113146D01*
X215563262Y-128094096D01*
X215601932Y-128082365D01*
X215648288Y-128077800D01*
X216299512Y-128077800D01*
X216345868Y-128082365D01*
X216345868Y-128082365D01*
G37*
G36*
X208083404Y-128001747D02*
G01*
X208119944Y-128012832D01*
X208153621Y-128030833D01*
X208183141Y-128055059D01*
X208207367Y-128084579D01*
X208225368Y-128118256D01*
X208236453Y-128154796D01*
X208240800Y-128198938D01*
X208240800Y-129147862D01*
X208236453Y-129192004D01*
X208225368Y-129228544D01*
X208207367Y-129262221D01*
X208183141Y-129291741D01*
X208153621Y-129315967D01*
X208119944Y-129333968D01*
X208083404Y-129345053D01*
X208039262Y-129349400D01*
X206590338Y-129349400D01*
X206546196Y-129345053D01*
X206509656Y-129333968D01*
X206475979Y-129315967D01*
X206446459Y-129291741D01*
X206422233Y-129262221D01*
X206404232Y-129228544D01*
X206393147Y-129192004D01*
X206388800Y-129147862D01*
X206388800Y-128198938D01*
X206393147Y-128154796D01*
X206404232Y-128118256D01*
X206422233Y-128084579D01*
X206446459Y-128055059D01*
X206475979Y-128030833D01*
X206509656Y-128012832D01*
X206546196Y-128001747D01*
X206590338Y-127997400D01*
X208039262Y-127997400D01*
X208083404Y-128001747D01*
X208083404Y-128001747D01*
G37*
G36*
X197991591Y-128014085D02*
G01*
X198025569Y-128024393D01*
X198056890Y-128041134D01*
X198084339Y-128063661D01*
X198106866Y-128091110D01*
X198123607Y-128122431D01*
X198133915Y-128156409D01*
X198138000Y-128197890D01*
X198138000Y-128799110D01*
X198133915Y-128840591D01*
X198123607Y-128874569D01*
X198106866Y-128905890D01*
X198084339Y-128933339D01*
X198056890Y-128955866D01*
X198025569Y-128972607D01*
X197991591Y-128982915D01*
X197950110Y-128987000D01*
X197273890Y-128987000D01*
X197232409Y-128982915D01*
X197198431Y-128972607D01*
X197167110Y-128955866D01*
X197139661Y-128933339D01*
X197117134Y-128905890D01*
X197100393Y-128874569D01*
X197090085Y-128840591D01*
X197086000Y-128799110D01*
X197086000Y-128197890D01*
X197090085Y-128156409D01*
X197100393Y-128122431D01*
X197117134Y-128091110D01*
X197139661Y-128063661D01*
X197167110Y-128041134D01*
X197198431Y-128024393D01*
X197232409Y-128014085D01*
X197273890Y-128010000D01*
X197950110Y-128010000D01*
X197991591Y-128014085D01*
X197991591Y-128014085D01*
G37*
G36*
X218220400Y-128680400D02*
G01*
X217218400Y-128680400D01*
X217218400Y-127778400D01*
X218220400Y-127778400D01*
X218220400Y-128680400D01*
X218220400Y-128680400D01*
G37*
G36*
X212297800Y-128605400D02*
G01*
X211135800Y-128605400D01*
X211135800Y-125953400D01*
X212297800Y-125953400D01*
X212297800Y-128605400D01*
X212297800Y-128605400D01*
G37*
G36*
X210097800Y-128605400D02*
G01*
X208935800Y-128605400D01*
X208935800Y-127853400D01*
X210097800Y-127853400D01*
X210097800Y-128605400D01*
X210097800Y-128605400D01*
G37*
G36*
X186417204Y-127118747D02*
G01*
X186453744Y-127129832D01*
X186487421Y-127147833D01*
X186516941Y-127172059D01*
X186541167Y-127201579D01*
X186559168Y-127235256D01*
X186570253Y-127271796D01*
X186574600Y-127315938D01*
X186574600Y-128264862D01*
X186570253Y-128309004D01*
X186559168Y-128345544D01*
X186541167Y-128379221D01*
X186516941Y-128408741D01*
X186487421Y-128432967D01*
X186453744Y-128450968D01*
X186417204Y-128462053D01*
X186373062Y-128466400D01*
X184924138Y-128466400D01*
X184879996Y-128462053D01*
X184843456Y-128450968D01*
X184809779Y-128432967D01*
X184780259Y-128408741D01*
X184756033Y-128379221D01*
X184738032Y-128345544D01*
X184726947Y-128309004D01*
X184722600Y-128264862D01*
X184722600Y-127315938D01*
X184726947Y-127271796D01*
X184738032Y-127235256D01*
X184756033Y-127201579D01*
X184780259Y-127172059D01*
X184809779Y-127147833D01*
X184843456Y-127129832D01*
X184879996Y-127118747D01*
X184924138Y-127114400D01*
X186373062Y-127114400D01*
X186417204Y-127118747D01*
X186417204Y-127118747D01*
G37*
G36*
X189722800Y-128256600D02*
G01*
X188970800Y-128256600D01*
X188970800Y-126454600D01*
X189722800Y-126454600D01*
X189722800Y-128256600D01*
X189722800Y-128256600D01*
G37*
G36*
X191622800Y-128256600D02*
G01*
X190870800Y-128256600D01*
X190870800Y-127754600D01*
X191622800Y-127754600D01*
X191622800Y-128256600D01*
X191622800Y-128256600D01*
G37*
G36*
X220220400Y-127730400D02*
G01*
X219218400Y-127730400D01*
X219218400Y-126828400D01*
X220220400Y-126828400D01*
X220220400Y-127730400D01*
X220220400Y-127730400D01*
G37*
G36*
X214445468Y-125897965D02*
G01*
X214484138Y-125909696D01*
X214519777Y-125928746D01*
X214551017Y-125954383D01*
X214576654Y-125985623D01*
X214595704Y-126021262D01*
X214607435Y-126059932D01*
X214612000Y-126106288D01*
X214612000Y-127182512D01*
X214607435Y-127228868D01*
X214595704Y-127267538D01*
X214576654Y-127303177D01*
X214551017Y-127334417D01*
X214519777Y-127360054D01*
X214484138Y-127379104D01*
X214445468Y-127390835D01*
X214399112Y-127395400D01*
X213747888Y-127395400D01*
X213701532Y-127390835D01*
X213662862Y-127379104D01*
X213627223Y-127360054D01*
X213595983Y-127334417D01*
X213570346Y-127303177D01*
X213551296Y-127267538D01*
X213539565Y-127228868D01*
X213535000Y-127182512D01*
X213535000Y-126106288D01*
X213539565Y-126059932D01*
X213551296Y-126021262D01*
X213570346Y-125985623D01*
X213595983Y-125954383D01*
X213627223Y-125928746D01*
X213662862Y-125909696D01*
X213701532Y-125897965D01*
X213747888Y-125893400D01*
X214399112Y-125893400D01*
X214445468Y-125897965D01*
X214445468Y-125897965D01*
G37*
G36*
X216320468Y-125897965D02*
G01*
X216359138Y-125909696D01*
X216394777Y-125928746D01*
X216426017Y-125954383D01*
X216451654Y-125985623D01*
X216470704Y-126021262D01*
X216482435Y-126059932D01*
X216487000Y-126106288D01*
X216487000Y-127182512D01*
X216482435Y-127228868D01*
X216470704Y-127267538D01*
X216451654Y-127303177D01*
X216426017Y-127334417D01*
X216394777Y-127360054D01*
X216359138Y-127379104D01*
X216320468Y-127390835D01*
X216274112Y-127395400D01*
X215622888Y-127395400D01*
X215576532Y-127390835D01*
X215537862Y-127379104D01*
X215502223Y-127360054D01*
X215470983Y-127334417D01*
X215445346Y-127303177D01*
X215426296Y-127267538D01*
X215414565Y-127228868D01*
X215410000Y-127182512D01*
X215410000Y-126106288D01*
X215414565Y-126059932D01*
X215426296Y-126021262D01*
X215445346Y-125985623D01*
X215470983Y-125954383D01*
X215502223Y-125928746D01*
X215537862Y-125909696D01*
X215576532Y-125897965D01*
X215622888Y-125893400D01*
X216274112Y-125893400D01*
X216320468Y-125897965D01*
X216320468Y-125897965D01*
G37*
G36*
X208204068Y-125930365D02*
G01*
X208242738Y-125942096D01*
X208278377Y-125961146D01*
X208309617Y-125986783D01*
X208335254Y-126018023D01*
X208354304Y-126053662D01*
X208366035Y-126092332D01*
X208370600Y-126138688D01*
X208370600Y-126789912D01*
X208366035Y-126836268D01*
X208354304Y-126874938D01*
X208335254Y-126910577D01*
X208309617Y-126941817D01*
X208278377Y-126967454D01*
X208242738Y-126986504D01*
X208204068Y-126998235D01*
X208157712Y-127002800D01*
X207081488Y-127002800D01*
X207035132Y-126998235D01*
X206996462Y-126986504D01*
X206960823Y-126967454D01*
X206929583Y-126941817D01*
X206903946Y-126910577D01*
X206884896Y-126874938D01*
X206873165Y-126836268D01*
X206868600Y-126789912D01*
X206868600Y-126138688D01*
X206873165Y-126092332D01*
X206884896Y-126053662D01*
X206903946Y-126018023D01*
X206929583Y-125986783D01*
X206960823Y-125961146D01*
X206996462Y-125942096D01*
X207035132Y-125930365D01*
X207081488Y-125925800D01*
X208157712Y-125925800D01*
X208204068Y-125930365D01*
X208204068Y-125930365D01*
G37*
G36*
X191622800Y-126956600D02*
G01*
X190870800Y-126956600D01*
X190870800Y-126454600D01*
X191622800Y-126454600D01*
X191622800Y-126956600D01*
X191622800Y-126956600D01*
G37*
G36*
X218220400Y-126780400D02*
G01*
X217218400Y-126780400D01*
X217218400Y-125878400D01*
X218220400Y-125878400D01*
X218220400Y-126780400D01*
X218220400Y-126780400D01*
G37*
G36*
X210097800Y-126705400D02*
G01*
X208935800Y-126705400D01*
X208935800Y-125953400D01*
X210097800Y-125953400D01*
X210097800Y-126705400D01*
X210097800Y-126705400D01*
G37*
G36*
X179618000Y-125793000D02*
G01*
X178776000Y-125793000D01*
X178776000Y-123291000D01*
X179618000Y-123291000D01*
X179618000Y-125793000D01*
X179618000Y-125793000D01*
G37*
G36*
X183428000Y-125793000D02*
G01*
X182586000Y-125793000D01*
X182586000Y-123291000D01*
X183428000Y-123291000D01*
X183428000Y-125793000D01*
X183428000Y-125793000D01*
G37*
G36*
X182158000Y-125793000D02*
G01*
X181316000Y-125793000D01*
X181316000Y-123291000D01*
X182158000Y-123291000D01*
X182158000Y-125793000D01*
X182158000Y-125793000D01*
G37*
G36*
X180888000Y-125793000D02*
G01*
X180046000Y-125793000D01*
X180046000Y-123291000D01*
X180888000Y-123291000D01*
X180888000Y-125793000D01*
X180888000Y-125793000D01*
G37*
G36*
X178348000Y-125793000D02*
G01*
X177506000Y-125793000D01*
X177506000Y-123291000D01*
X178348000Y-123291000D01*
X178348000Y-125793000D01*
X178348000Y-125793000D01*
G37*
G36*
X186417204Y-124318747D02*
G01*
X186453744Y-124329832D01*
X186487421Y-124347833D01*
X186516941Y-124372059D01*
X186541167Y-124401579D01*
X186559168Y-124435256D01*
X186570253Y-124471796D01*
X186574600Y-124515938D01*
X186574600Y-125464862D01*
X186570253Y-125509004D01*
X186559168Y-125545544D01*
X186541167Y-125579221D01*
X186516941Y-125608741D01*
X186487421Y-125632967D01*
X186453744Y-125650968D01*
X186417204Y-125662053D01*
X186373062Y-125666400D01*
X184924138Y-125666400D01*
X184879996Y-125662053D01*
X184843456Y-125650968D01*
X184809779Y-125632967D01*
X184780259Y-125608741D01*
X184756033Y-125579221D01*
X184738032Y-125545544D01*
X184726947Y-125509004D01*
X184722600Y-125464862D01*
X184722600Y-124515938D01*
X184726947Y-124471796D01*
X184738032Y-124435256D01*
X184756033Y-124401579D01*
X184780259Y-124372059D01*
X184809779Y-124347833D01*
X184843456Y-124329832D01*
X184879996Y-124318747D01*
X184924138Y-124314400D01*
X186373062Y-124314400D01*
X186417204Y-124318747D01*
X186417204Y-124318747D01*
G37*
G36*
X208204068Y-124055365D02*
G01*
X208242738Y-124067096D01*
X208278377Y-124086146D01*
X208309617Y-124111783D01*
X208335254Y-124143023D01*
X208354304Y-124178662D01*
X208366035Y-124217332D01*
X208370600Y-124263688D01*
X208370600Y-124914912D01*
X208366035Y-124961268D01*
X208354304Y-124999938D01*
X208335254Y-125035577D01*
X208309617Y-125066817D01*
X208278377Y-125092454D01*
X208242738Y-125111504D01*
X208204068Y-125123235D01*
X208157712Y-125127800D01*
X207081488Y-125127800D01*
X207035132Y-125123235D01*
X206996462Y-125111504D01*
X206960823Y-125092454D01*
X206929583Y-125066817D01*
X206903946Y-125035577D01*
X206884896Y-124999938D01*
X206873165Y-124961268D01*
X206868600Y-124914912D01*
X206868600Y-124263688D01*
X206873165Y-124217332D01*
X206884896Y-124178662D01*
X206903946Y-124143023D01*
X206929583Y-124111783D01*
X206960823Y-124086146D01*
X206996462Y-124067096D01*
X207035132Y-124055365D01*
X207081488Y-124050800D01*
X208157712Y-124050800D01*
X208204068Y-124055365D01*
X208204068Y-124055365D01*
G37*
G36*
X219912794Y-120802263D02*
G01*
X220186207Y-120856648D01*
X220486488Y-120981029D01*
X220756734Y-121161601D01*
X220986559Y-121391426D01*
X221167131Y-121661672D01*
X221291512Y-121961953D01*
X221354920Y-122280729D01*
X221354920Y-122605751D01*
X221291512Y-122924527D01*
X221167131Y-123224808D01*
X220986559Y-123495054D01*
X220756734Y-123724879D01*
X220486488Y-123905451D01*
X220186207Y-124029832D01*
X219912794Y-124084217D01*
X219867432Y-124093240D01*
X219542408Y-124093240D01*
X219497046Y-124084217D01*
X219223633Y-124029832D01*
X218923352Y-123905451D01*
X218653106Y-123724879D01*
X218423281Y-123495054D01*
X218242709Y-123224808D01*
X218118328Y-122924527D01*
X218054920Y-122605751D01*
X218054920Y-122280729D01*
X218118328Y-121961953D01*
X218242709Y-121661672D01*
X218423281Y-121391426D01*
X218653106Y-121161601D01*
X218923352Y-120981029D01*
X219223633Y-120856648D01*
X219497046Y-120802263D01*
X219542408Y-120793240D01*
X219867432Y-120793240D01*
X219912794Y-120802263D01*
X219912794Y-120802263D01*
G37*
G36*
X173125994Y-120802263D02*
G01*
X173399407Y-120856648D01*
X173699688Y-120981029D01*
X173969934Y-121161601D01*
X174199759Y-121391426D01*
X174380331Y-121661672D01*
X174504712Y-121961953D01*
X174568120Y-122280729D01*
X174568120Y-122605751D01*
X174504712Y-122924527D01*
X174380331Y-123224808D01*
X174199759Y-123495054D01*
X173969934Y-123724879D01*
X173699688Y-123905451D01*
X173399407Y-124029832D01*
X173125994Y-124084217D01*
X173080632Y-124093240D01*
X172755608Y-124093240D01*
X172710246Y-124084217D01*
X172436833Y-124029832D01*
X172136552Y-123905451D01*
X171866306Y-123724879D01*
X171636481Y-123495054D01*
X171455909Y-123224808D01*
X171331528Y-122924527D01*
X171268120Y-122605751D01*
X171268120Y-122280729D01*
X171331528Y-121961953D01*
X171455909Y-121661672D01*
X171636481Y-121391426D01*
X171866306Y-121161601D01*
X172136552Y-120981029D01*
X172436833Y-120856648D01*
X172710246Y-120802263D01*
X172755608Y-120793240D01*
X173080632Y-120793240D01*
X173125994Y-120802263D01*
X173125994Y-120802263D01*
G37*
M02*
